%TF.GenerationSoftware,KiCad,Pcbnew,8.0.1-8.0.1-0~ubuntu20.04.1*%
%TF.CreationDate,2024-06-12T16:02:46+01:00*%
%TF.ProjectId,sensd,73656e73-642e-46b6-9963-61645f706362,rev?*%
%TF.SameCoordinates,Original*%
%TF.FileFunction,AssemblyDrawing,Bot*%
%FSLAX46Y46*%
G04 Gerber Fmt 4.6, Leading zero omitted, Abs format (unit mm)*
G04 Created by KiCad (PCBNEW 8.0.1-8.0.1-0~ubuntu20.04.1) date 2024-06-12 16:02:46*
%MOMM*%
%LPD*%
G01*
G04 APERTURE LIST*
%ADD10C,0.150000*%
%ADD11C,0.100000*%
G04 APERTURE END LIST*
D10*
X147124819Y-143730476D02*
X147839104Y-143730476D01*
X147839104Y-143730476D02*
X147981961Y-143682857D01*
X147981961Y-143682857D02*
X148077200Y-143587619D01*
X148077200Y-143587619D02*
X148124819Y-143444762D01*
X148124819Y-143444762D02*
X148124819Y-143349524D01*
X148124819Y-144730476D02*
X148124819Y-144159048D01*
X148124819Y-144444762D02*
X147124819Y-144444762D01*
X147124819Y-144444762D02*
X147267676Y-144349524D01*
X147267676Y-144349524D02*
X147362914Y-144254286D01*
X147362914Y-144254286D02*
X147410533Y-144159048D01*
X147458152Y-145587619D02*
X148124819Y-145587619D01*
X147077200Y-145349524D02*
X147791485Y-145111429D01*
X147791485Y-145111429D02*
X147791485Y-145730476D01*
D11*
%TO.C,J14*%
X141420000Y-158965000D02*
X141420000Y-130115000D01*
X142420000Y-129115000D02*
X152920000Y-129115000D01*
X143720000Y-150783194D02*
X143720000Y-138296806D01*
X150297837Y-137549850D02*
X145597837Y-136721113D01*
X150297837Y-151530150D02*
X145597837Y-152358887D01*
X151620000Y-149954457D02*
X151620000Y-139125543D01*
X152920000Y-159965000D02*
X142420000Y-159965000D01*
X153920000Y-130115000D02*
X153920000Y-158965000D01*
X141420000Y-130115000D02*
G75*
G02*
X142420000Y-129115000I999999J1D01*
G01*
X142420000Y-159965000D02*
G75*
G02*
X141420000Y-158965000I0J1000000D01*
G01*
X143720000Y-138296806D02*
G75*
G02*
X145597837Y-136721114I1600000J0D01*
G01*
X145597837Y-152358885D02*
G75*
G02*
X143720001Y-150783194I-277837J1575691D01*
G01*
X150297837Y-137549852D02*
G75*
G02*
X151619999Y-139125543I-277837J-1575691D01*
G01*
X151620000Y-149954457D02*
G75*
G02*
X150297837Y-151530149I-1600000J0D01*
G01*
X152920000Y-129115000D02*
G75*
G02*
X153920000Y-130115000I1J-999999D01*
G01*
X153920000Y-158965000D02*
G75*
G02*
X152920000Y-159965000I-1000000J0D01*
G01*
%TD*%
M02*
