M48
; DRILL file {KiCad 8.0.1-8.0.1-0~ubuntu20.04.1} date 2024-06-12T16:02:46+0100
; FORMAT={-:-/ absolute / metric / decimal}
; #@! TF.CreationDate,2024-06-12T16:02:46+01:00
; #@! TF.GenerationSoftware,Kicad,Pcbnew,8.0.1-8.0.1-0~ubuntu20.04.1
; #@! TF.FileFunction,NonPlated,1,2,NPTH
FMAT,2
METRIC
; #@! TA.AperFunction,NonPlated,NPTH,ComponentDrill
T1C1.700
; #@! TA.AperFunction,NonPlated,NPTH,ComponentDrill
T2C3.200
; #@! TA.AperFunction,NonPlated,NPTH,ComponentDrill
T3C4.000
%
G90
G05
T1
X53.42Y-178.58
X63.58Y-178.58
X72.42Y-178.58
X82.58Y-178.58
X91.42Y-178.58
X101.58Y-178.58
X110.42Y-178.58
X120.58Y-178.58
T2
X33.0Y-48.0
X33.0Y-189.5
X40.0Y-160.5
X90.0Y-160.5
X136.0Y-48.0
X151.0Y-50.622
X151.0Y-62.052
X153.0Y-189.5
T3
X58.5Y-178.58
X77.5Y-178.58
X96.5Y-178.58
X115.5Y-178.58
M30
