%TF.GenerationSoftware,KiCad,Pcbnew,8.0.1-8.0.1-0~ubuntu20.04.1*%
%TF.CreationDate,2024-06-12T16:02:46+01:00*%
%TF.ProjectId,sensd,73656e73-642e-46b6-9963-61645f706362,rev?*%
%TF.SameCoordinates,Original*%
%TF.FileFunction,AssemblyDrawing,Top*%
%FSLAX46Y46*%
G04 Gerber Fmt 4.6, Leading zero omitted, Abs format (unit mm)*
G04 Created by KiCad (PCBNEW 8.0.1-8.0.1-0~ubuntu20.04.1) date 2024-06-12 16:02:46*
%MOMM*%
%LPD*%
G01*
G04 APERTURE LIST*
%ADD10C,0.150000*%
%ADD11C,0.050000*%
%ADD12C,0.060000*%
%ADD13C,0.100000*%
%ADD14C,0.120000*%
G04 APERTURE END LIST*
D10*
X67359580Y-106166666D02*
X67407200Y-106214285D01*
X67407200Y-106214285D02*
X67454819Y-106357142D01*
X67454819Y-106357142D02*
X67454819Y-106452380D01*
X67454819Y-106452380D02*
X67407200Y-106595237D01*
X67407200Y-106595237D02*
X67311961Y-106690475D01*
X67311961Y-106690475D02*
X67216723Y-106738094D01*
X67216723Y-106738094D02*
X67026247Y-106785713D01*
X67026247Y-106785713D02*
X66883390Y-106785713D01*
X66883390Y-106785713D02*
X66692914Y-106738094D01*
X66692914Y-106738094D02*
X66597676Y-106690475D01*
X66597676Y-106690475D02*
X66502438Y-106595237D01*
X66502438Y-106595237D02*
X66454819Y-106452380D01*
X66454819Y-106452380D02*
X66454819Y-106357142D01*
X66454819Y-106357142D02*
X66502438Y-106214285D01*
X66502438Y-106214285D02*
X66550057Y-106166666D01*
X66454819Y-105261904D02*
X66454819Y-105738094D01*
X66454819Y-105738094D02*
X66931009Y-105785713D01*
X66931009Y-105785713D02*
X66883390Y-105738094D01*
X66883390Y-105738094D02*
X66835771Y-105642856D01*
X66835771Y-105642856D02*
X66835771Y-105404761D01*
X66835771Y-105404761D02*
X66883390Y-105309523D01*
X66883390Y-105309523D02*
X66931009Y-105261904D01*
X66931009Y-105261904D02*
X67026247Y-105214285D01*
X67026247Y-105214285D02*
X67264342Y-105214285D01*
X67264342Y-105214285D02*
X67359580Y-105261904D01*
X67359580Y-105261904D02*
X67407200Y-105309523D01*
X67407200Y-105309523D02*
X67454819Y-105404761D01*
X67454819Y-105404761D02*
X67454819Y-105642856D01*
X67454819Y-105642856D02*
X67407200Y-105738094D01*
X67407200Y-105738094D02*
X67359580Y-105785713D01*
X74465566Y-106746666D02*
X75258900Y-106746666D01*
X75258900Y-106746666D02*
X75352233Y-106700000D01*
X75352233Y-106700000D02*
X75398900Y-106653333D01*
X75398900Y-106653333D02*
X75445566Y-106560000D01*
X75445566Y-106560000D02*
X75445566Y-106373333D01*
X75445566Y-106373333D02*
X75398900Y-106280000D01*
X75398900Y-106280000D02*
X75352233Y-106233333D01*
X75352233Y-106233333D02*
X75258900Y-106186666D01*
X75258900Y-106186666D02*
X74465566Y-106186666D01*
X74465566Y-105813333D02*
X74465566Y-105206666D01*
X74465566Y-105206666D02*
X74838900Y-105533333D01*
X74838900Y-105533333D02*
X74838900Y-105393333D01*
X74838900Y-105393333D02*
X74885566Y-105299999D01*
X74885566Y-105299999D02*
X74932233Y-105253333D01*
X74932233Y-105253333D02*
X75025566Y-105206666D01*
X75025566Y-105206666D02*
X75258900Y-105206666D01*
X75258900Y-105206666D02*
X75352233Y-105253333D01*
X75352233Y-105253333D02*
X75398900Y-105299999D01*
X75398900Y-105299999D02*
X75445566Y-105393333D01*
X75445566Y-105393333D02*
X75445566Y-105673333D01*
X75445566Y-105673333D02*
X75398900Y-105766666D01*
X75398900Y-105766666D02*
X75352233Y-105813333D01*
D11*
X36150914Y-89882857D02*
X36135676Y-89913333D01*
X36135676Y-89913333D02*
X36105200Y-89943809D01*
X36105200Y-89943809D02*
X36059485Y-89989523D01*
X36059485Y-89989523D02*
X36044247Y-90020000D01*
X36044247Y-90020000D02*
X36044247Y-90050476D01*
X36120438Y-90035238D02*
X36105200Y-90065714D01*
X36105200Y-90065714D02*
X36074723Y-90096190D01*
X36074723Y-90096190D02*
X36013771Y-90111428D01*
X36013771Y-90111428D02*
X35907104Y-90111428D01*
X35907104Y-90111428D02*
X35846152Y-90096190D01*
X35846152Y-90096190D02*
X35815676Y-90065714D01*
X35815676Y-90065714D02*
X35800438Y-90035238D01*
X35800438Y-90035238D02*
X35800438Y-89974285D01*
X35800438Y-89974285D02*
X35815676Y-89943809D01*
X35815676Y-89943809D02*
X35846152Y-89913333D01*
X35846152Y-89913333D02*
X35907104Y-89898095D01*
X35907104Y-89898095D02*
X36013771Y-89898095D01*
X36013771Y-89898095D02*
X36074723Y-89913333D01*
X36074723Y-89913333D02*
X36105200Y-89943809D01*
X36105200Y-89943809D02*
X36120438Y-89974285D01*
X36120438Y-89974285D02*
X36120438Y-90035238D01*
X36120438Y-89593333D02*
X36120438Y-89776190D01*
X36120438Y-89684762D02*
X35800438Y-89684762D01*
X35800438Y-89684762D02*
X35846152Y-89715238D01*
X35846152Y-89715238D02*
X35876628Y-89745714D01*
X35876628Y-89745714D02*
X35891866Y-89776190D01*
X35800438Y-89486666D02*
X35800438Y-89288571D01*
X35800438Y-89288571D02*
X35922342Y-89395238D01*
X35922342Y-89395238D02*
X35922342Y-89349523D01*
X35922342Y-89349523D02*
X35937580Y-89319047D01*
X35937580Y-89319047D02*
X35952819Y-89303809D01*
X35952819Y-89303809D02*
X35983295Y-89288571D01*
X35983295Y-89288571D02*
X36059485Y-89288571D01*
X36059485Y-89288571D02*
X36089961Y-89303809D01*
X36089961Y-89303809D02*
X36105200Y-89319047D01*
X36105200Y-89319047D02*
X36120438Y-89349523D01*
X36120438Y-89349523D02*
X36120438Y-89440952D01*
X36120438Y-89440952D02*
X36105200Y-89471428D01*
X36105200Y-89471428D02*
X36089961Y-89486666D01*
D12*
X65908333Y-85761927D02*
X65775000Y-85571451D01*
X65679762Y-85761927D02*
X65679762Y-85361927D01*
X65679762Y-85361927D02*
X65832143Y-85361927D01*
X65832143Y-85361927D02*
X65870238Y-85380975D01*
X65870238Y-85380975D02*
X65889285Y-85400022D01*
X65889285Y-85400022D02*
X65908333Y-85438118D01*
X65908333Y-85438118D02*
X65908333Y-85495260D01*
X65908333Y-85495260D02*
X65889285Y-85533356D01*
X65889285Y-85533356D02*
X65870238Y-85552403D01*
X65870238Y-85552403D02*
X65832143Y-85571451D01*
X65832143Y-85571451D02*
X65679762Y-85571451D01*
X66098809Y-85761927D02*
X66175000Y-85761927D01*
X66175000Y-85761927D02*
X66213095Y-85742880D01*
X66213095Y-85742880D02*
X66232143Y-85723832D01*
X66232143Y-85723832D02*
X66270238Y-85666689D01*
X66270238Y-85666689D02*
X66289285Y-85590499D01*
X66289285Y-85590499D02*
X66289285Y-85438118D01*
X66289285Y-85438118D02*
X66270238Y-85400022D01*
X66270238Y-85400022D02*
X66251190Y-85380975D01*
X66251190Y-85380975D02*
X66213095Y-85361927D01*
X66213095Y-85361927D02*
X66136904Y-85361927D01*
X66136904Y-85361927D02*
X66098809Y-85380975D01*
X66098809Y-85380975D02*
X66079762Y-85400022D01*
X66079762Y-85400022D02*
X66060714Y-85438118D01*
X66060714Y-85438118D02*
X66060714Y-85533356D01*
X66060714Y-85533356D02*
X66079762Y-85571451D01*
X66079762Y-85571451D02*
X66098809Y-85590499D01*
X66098809Y-85590499D02*
X66136904Y-85609546D01*
X66136904Y-85609546D02*
X66213095Y-85609546D01*
X66213095Y-85609546D02*
X66251190Y-85590499D01*
X66251190Y-85590499D02*
X66270238Y-85571451D01*
X66270238Y-85571451D02*
X66289285Y-85533356D01*
D10*
X78254819Y-106738094D02*
X77254819Y-106738094D01*
X77254819Y-106738094D02*
X77254819Y-106499999D01*
X77254819Y-106499999D02*
X77302438Y-106357142D01*
X77302438Y-106357142D02*
X77397676Y-106261904D01*
X77397676Y-106261904D02*
X77492914Y-106214285D01*
X77492914Y-106214285D02*
X77683390Y-106166666D01*
X77683390Y-106166666D02*
X77826247Y-106166666D01*
X77826247Y-106166666D02*
X78016723Y-106214285D01*
X78016723Y-106214285D02*
X78111961Y-106261904D01*
X78111961Y-106261904D02*
X78207200Y-106357142D01*
X78207200Y-106357142D02*
X78254819Y-106499999D01*
X78254819Y-106499999D02*
X78254819Y-106738094D01*
X78254819Y-105214285D02*
X78254819Y-105785713D01*
X78254819Y-105499999D02*
X77254819Y-105499999D01*
X77254819Y-105499999D02*
X77397676Y-105595237D01*
X77397676Y-105595237D02*
X77492914Y-105690475D01*
X77492914Y-105690475D02*
X77540533Y-105785713D01*
X38666666Y-160954819D02*
X38333333Y-160478628D01*
X38095238Y-160954819D02*
X38095238Y-159954819D01*
X38095238Y-159954819D02*
X38476190Y-159954819D01*
X38476190Y-159954819D02*
X38571428Y-160002438D01*
X38571428Y-160002438D02*
X38619047Y-160050057D01*
X38619047Y-160050057D02*
X38666666Y-160145295D01*
X38666666Y-160145295D02*
X38666666Y-160288152D01*
X38666666Y-160288152D02*
X38619047Y-160383390D01*
X38619047Y-160383390D02*
X38571428Y-160431009D01*
X38571428Y-160431009D02*
X38476190Y-160478628D01*
X38476190Y-160478628D02*
X38095238Y-160478628D01*
X39095238Y-160431009D02*
X39428571Y-160431009D01*
X39571428Y-160954819D02*
X39095238Y-160954819D01*
X39095238Y-160954819D02*
X39095238Y-159954819D01*
X39095238Y-159954819D02*
X39571428Y-159954819D01*
X40333333Y-160431009D02*
X40000000Y-160431009D01*
X40000000Y-160954819D02*
X40000000Y-159954819D01*
X40000000Y-159954819D02*
X40476190Y-159954819D01*
X41000000Y-159954819D02*
X41000000Y-160192914D01*
X40761905Y-160097676D02*
X41000000Y-160192914D01*
X41000000Y-160192914D02*
X41238095Y-160097676D01*
X40857143Y-160383390D02*
X41000000Y-160192914D01*
X41000000Y-160192914D02*
X41142857Y-160383390D01*
X41761905Y-159954819D02*
X41761905Y-160192914D01*
X41523810Y-160097676D02*
X41761905Y-160192914D01*
X41761905Y-160192914D02*
X42000000Y-160097676D01*
X41619048Y-160383390D02*
X41761905Y-160192914D01*
X41761905Y-160192914D02*
X41904762Y-160383390D01*
D12*
X134931927Y-71316666D02*
X134741451Y-71449999D01*
X134931927Y-71545237D02*
X134531927Y-71545237D01*
X134531927Y-71545237D02*
X134531927Y-71392856D01*
X134531927Y-71392856D02*
X134550975Y-71354761D01*
X134550975Y-71354761D02*
X134570022Y-71335714D01*
X134570022Y-71335714D02*
X134608118Y-71316666D01*
X134608118Y-71316666D02*
X134665260Y-71316666D01*
X134665260Y-71316666D02*
X134703356Y-71335714D01*
X134703356Y-71335714D02*
X134722403Y-71354761D01*
X134722403Y-71354761D02*
X134741451Y-71392856D01*
X134741451Y-71392856D02*
X134741451Y-71545237D01*
X134531927Y-70954761D02*
X134531927Y-71145237D01*
X134531927Y-71145237D02*
X134722403Y-71164285D01*
X134722403Y-71164285D02*
X134703356Y-71145237D01*
X134703356Y-71145237D02*
X134684308Y-71107142D01*
X134684308Y-71107142D02*
X134684308Y-71011904D01*
X134684308Y-71011904D02*
X134703356Y-70973809D01*
X134703356Y-70973809D02*
X134722403Y-70954761D01*
X134722403Y-70954761D02*
X134760499Y-70935714D01*
X134760499Y-70935714D02*
X134855737Y-70935714D01*
X134855737Y-70935714D02*
X134893832Y-70954761D01*
X134893832Y-70954761D02*
X134912880Y-70973809D01*
X134912880Y-70973809D02*
X134931927Y-71011904D01*
X134931927Y-71011904D02*
X134931927Y-71107142D01*
X134931927Y-71107142D02*
X134912880Y-71145237D01*
X134912880Y-71145237D02*
X134893832Y-71164285D01*
D11*
X76150914Y-89730476D02*
X76135676Y-89760952D01*
X76135676Y-89760952D02*
X76105200Y-89791428D01*
X76105200Y-89791428D02*
X76059485Y-89837142D01*
X76059485Y-89837142D02*
X76044247Y-89867619D01*
X76044247Y-89867619D02*
X76044247Y-89898095D01*
X76120438Y-89882857D02*
X76105200Y-89913333D01*
X76105200Y-89913333D02*
X76074723Y-89943809D01*
X76074723Y-89943809D02*
X76013771Y-89959047D01*
X76013771Y-89959047D02*
X75907104Y-89959047D01*
X75907104Y-89959047D02*
X75846152Y-89943809D01*
X75846152Y-89943809D02*
X75815676Y-89913333D01*
X75815676Y-89913333D02*
X75800438Y-89882857D01*
X75800438Y-89882857D02*
X75800438Y-89821904D01*
X75800438Y-89821904D02*
X75815676Y-89791428D01*
X75815676Y-89791428D02*
X75846152Y-89760952D01*
X75846152Y-89760952D02*
X75907104Y-89745714D01*
X75907104Y-89745714D02*
X76013771Y-89745714D01*
X76013771Y-89745714D02*
X76074723Y-89760952D01*
X76074723Y-89760952D02*
X76105200Y-89791428D01*
X76105200Y-89791428D02*
X76120438Y-89821904D01*
X76120438Y-89821904D02*
X76120438Y-89882857D01*
X75800438Y-89456190D02*
X75800438Y-89608571D01*
X75800438Y-89608571D02*
X75952819Y-89623809D01*
X75952819Y-89623809D02*
X75937580Y-89608571D01*
X75937580Y-89608571D02*
X75922342Y-89578095D01*
X75922342Y-89578095D02*
X75922342Y-89501904D01*
X75922342Y-89501904D02*
X75937580Y-89471428D01*
X75937580Y-89471428D02*
X75952819Y-89456190D01*
X75952819Y-89456190D02*
X75983295Y-89440952D01*
X75983295Y-89440952D02*
X76059485Y-89440952D01*
X76059485Y-89440952D02*
X76089961Y-89456190D01*
X76089961Y-89456190D02*
X76105200Y-89471428D01*
X76105200Y-89471428D02*
X76120438Y-89501904D01*
X76120438Y-89501904D02*
X76120438Y-89578095D01*
X76120438Y-89578095D02*
X76105200Y-89608571D01*
X76105200Y-89608571D02*
X76089961Y-89623809D01*
X124125914Y-80245357D02*
X124110676Y-80275833D01*
X124110676Y-80275833D02*
X124080200Y-80306309D01*
X124080200Y-80306309D02*
X124034485Y-80352023D01*
X124034485Y-80352023D02*
X124019247Y-80382500D01*
X124019247Y-80382500D02*
X124019247Y-80412976D01*
X124095438Y-80397738D02*
X124080200Y-80428214D01*
X124080200Y-80428214D02*
X124049723Y-80458690D01*
X124049723Y-80458690D02*
X123988771Y-80473928D01*
X123988771Y-80473928D02*
X123882104Y-80473928D01*
X123882104Y-80473928D02*
X123821152Y-80458690D01*
X123821152Y-80458690D02*
X123790676Y-80428214D01*
X123790676Y-80428214D02*
X123775438Y-80397738D01*
X123775438Y-80397738D02*
X123775438Y-80336785D01*
X123775438Y-80336785D02*
X123790676Y-80306309D01*
X123790676Y-80306309D02*
X123821152Y-80275833D01*
X123821152Y-80275833D02*
X123882104Y-80260595D01*
X123882104Y-80260595D02*
X123988771Y-80260595D01*
X123988771Y-80260595D02*
X124049723Y-80275833D01*
X124049723Y-80275833D02*
X124080200Y-80306309D01*
X124080200Y-80306309D02*
X124095438Y-80336785D01*
X124095438Y-80336785D02*
X124095438Y-80397738D01*
X124095438Y-79955833D02*
X124095438Y-80138690D01*
X124095438Y-80047262D02*
X123775438Y-80047262D01*
X123775438Y-80047262D02*
X123821152Y-80077738D01*
X123821152Y-80077738D02*
X123851628Y-80108214D01*
X123851628Y-80108214D02*
X123866866Y-80138690D01*
X123775438Y-79757738D02*
X123775438Y-79727261D01*
X123775438Y-79727261D02*
X123790676Y-79696785D01*
X123790676Y-79696785D02*
X123805914Y-79681547D01*
X123805914Y-79681547D02*
X123836390Y-79666309D01*
X123836390Y-79666309D02*
X123897342Y-79651071D01*
X123897342Y-79651071D02*
X123973533Y-79651071D01*
X123973533Y-79651071D02*
X124034485Y-79666309D01*
X124034485Y-79666309D02*
X124064961Y-79681547D01*
X124064961Y-79681547D02*
X124080200Y-79696785D01*
X124080200Y-79696785D02*
X124095438Y-79727261D01*
X124095438Y-79727261D02*
X124095438Y-79757738D01*
X124095438Y-79757738D02*
X124080200Y-79788214D01*
X124080200Y-79788214D02*
X124064961Y-79803452D01*
X124064961Y-79803452D02*
X124034485Y-79818690D01*
X124034485Y-79818690D02*
X123973533Y-79833928D01*
X123973533Y-79833928D02*
X123897342Y-79833928D01*
X123897342Y-79833928D02*
X123836390Y-79818690D01*
X123836390Y-79818690D02*
X123805914Y-79803452D01*
X123805914Y-79803452D02*
X123790676Y-79788214D01*
X123790676Y-79788214D02*
X123775438Y-79757738D01*
X66150914Y-82610476D02*
X66135676Y-82640952D01*
X66135676Y-82640952D02*
X66105200Y-82671428D01*
X66105200Y-82671428D02*
X66059485Y-82717142D01*
X66059485Y-82717142D02*
X66044247Y-82747619D01*
X66044247Y-82747619D02*
X66044247Y-82778095D01*
X66120438Y-82762857D02*
X66105200Y-82793333D01*
X66105200Y-82793333D02*
X66074723Y-82823809D01*
X66074723Y-82823809D02*
X66013771Y-82839047D01*
X66013771Y-82839047D02*
X65907104Y-82839047D01*
X65907104Y-82839047D02*
X65846152Y-82823809D01*
X65846152Y-82823809D02*
X65815676Y-82793333D01*
X65815676Y-82793333D02*
X65800438Y-82762857D01*
X65800438Y-82762857D02*
X65800438Y-82701904D01*
X65800438Y-82701904D02*
X65815676Y-82671428D01*
X65815676Y-82671428D02*
X65846152Y-82640952D01*
X65846152Y-82640952D02*
X65907104Y-82625714D01*
X65907104Y-82625714D02*
X66013771Y-82625714D01*
X66013771Y-82625714D02*
X66074723Y-82640952D01*
X66074723Y-82640952D02*
X66105200Y-82671428D01*
X66105200Y-82671428D02*
X66120438Y-82701904D01*
X66120438Y-82701904D02*
X66120438Y-82762857D01*
X65830914Y-82503809D02*
X65815676Y-82488571D01*
X65815676Y-82488571D02*
X65800438Y-82458095D01*
X65800438Y-82458095D02*
X65800438Y-82381904D01*
X65800438Y-82381904D02*
X65815676Y-82351428D01*
X65815676Y-82351428D02*
X65830914Y-82336190D01*
X65830914Y-82336190D02*
X65861390Y-82320952D01*
X65861390Y-82320952D02*
X65891866Y-82320952D01*
X65891866Y-82320952D02*
X65937580Y-82336190D01*
X65937580Y-82336190D02*
X66120438Y-82519047D01*
X66120438Y-82519047D02*
X66120438Y-82320952D01*
X116175914Y-80245357D02*
X116160676Y-80275833D01*
X116160676Y-80275833D02*
X116130200Y-80306309D01*
X116130200Y-80306309D02*
X116084485Y-80352023D01*
X116084485Y-80352023D02*
X116069247Y-80382500D01*
X116069247Y-80382500D02*
X116069247Y-80412976D01*
X116145438Y-80397738D02*
X116130200Y-80428214D01*
X116130200Y-80428214D02*
X116099723Y-80458690D01*
X116099723Y-80458690D02*
X116038771Y-80473928D01*
X116038771Y-80473928D02*
X115932104Y-80473928D01*
X115932104Y-80473928D02*
X115871152Y-80458690D01*
X115871152Y-80458690D02*
X115840676Y-80428214D01*
X115840676Y-80428214D02*
X115825438Y-80397738D01*
X115825438Y-80397738D02*
X115825438Y-80336785D01*
X115825438Y-80336785D02*
X115840676Y-80306309D01*
X115840676Y-80306309D02*
X115871152Y-80275833D01*
X115871152Y-80275833D02*
X115932104Y-80260595D01*
X115932104Y-80260595D02*
X116038771Y-80260595D01*
X116038771Y-80260595D02*
X116099723Y-80275833D01*
X116099723Y-80275833D02*
X116130200Y-80306309D01*
X116130200Y-80306309D02*
X116145438Y-80336785D01*
X116145438Y-80336785D02*
X116145438Y-80397738D01*
X116145438Y-79955833D02*
X116145438Y-80138690D01*
X116145438Y-80047262D02*
X115825438Y-80047262D01*
X115825438Y-80047262D02*
X115871152Y-80077738D01*
X115871152Y-80077738D02*
X115901628Y-80108214D01*
X115901628Y-80108214D02*
X115916866Y-80138690D01*
X115932104Y-79681547D02*
X116145438Y-79681547D01*
X115810200Y-79757738D02*
X116038771Y-79833928D01*
X116038771Y-79833928D02*
X116038771Y-79635833D01*
D12*
X134181927Y-88066666D02*
X133991451Y-88199999D01*
X134181927Y-88295237D02*
X133781927Y-88295237D01*
X133781927Y-88295237D02*
X133781927Y-88142856D01*
X133781927Y-88142856D02*
X133800975Y-88104761D01*
X133800975Y-88104761D02*
X133820022Y-88085714D01*
X133820022Y-88085714D02*
X133858118Y-88066666D01*
X133858118Y-88066666D02*
X133915260Y-88066666D01*
X133915260Y-88066666D02*
X133953356Y-88085714D01*
X133953356Y-88085714D02*
X133972403Y-88104761D01*
X133972403Y-88104761D02*
X133991451Y-88142856D01*
X133991451Y-88142856D02*
X133991451Y-88295237D01*
X133781927Y-87933333D02*
X133781927Y-87685714D01*
X133781927Y-87685714D02*
X133934308Y-87819047D01*
X133934308Y-87819047D02*
X133934308Y-87761904D01*
X133934308Y-87761904D02*
X133953356Y-87723809D01*
X133953356Y-87723809D02*
X133972403Y-87704761D01*
X133972403Y-87704761D02*
X134010499Y-87685714D01*
X134010499Y-87685714D02*
X134105737Y-87685714D01*
X134105737Y-87685714D02*
X134143832Y-87704761D01*
X134143832Y-87704761D02*
X134162880Y-87723809D01*
X134162880Y-87723809D02*
X134181927Y-87761904D01*
X134181927Y-87761904D02*
X134181927Y-87876190D01*
X134181927Y-87876190D02*
X134162880Y-87914285D01*
X134162880Y-87914285D02*
X134143832Y-87933333D01*
X125492857Y-147851927D02*
X125359524Y-147661451D01*
X125264286Y-147851927D02*
X125264286Y-147451927D01*
X125264286Y-147451927D02*
X125416667Y-147451927D01*
X125416667Y-147451927D02*
X125454762Y-147470975D01*
X125454762Y-147470975D02*
X125473809Y-147490022D01*
X125473809Y-147490022D02*
X125492857Y-147528118D01*
X125492857Y-147528118D02*
X125492857Y-147585260D01*
X125492857Y-147585260D02*
X125473809Y-147623356D01*
X125473809Y-147623356D02*
X125454762Y-147642403D01*
X125454762Y-147642403D02*
X125416667Y-147661451D01*
X125416667Y-147661451D02*
X125264286Y-147661451D01*
X125645238Y-147490022D02*
X125664286Y-147470975D01*
X125664286Y-147470975D02*
X125702381Y-147451927D01*
X125702381Y-147451927D02*
X125797619Y-147451927D01*
X125797619Y-147451927D02*
X125835714Y-147470975D01*
X125835714Y-147470975D02*
X125854762Y-147490022D01*
X125854762Y-147490022D02*
X125873809Y-147528118D01*
X125873809Y-147528118D02*
X125873809Y-147566213D01*
X125873809Y-147566213D02*
X125854762Y-147623356D01*
X125854762Y-147623356D02*
X125626190Y-147851927D01*
X125626190Y-147851927D02*
X125873809Y-147851927D01*
X126121428Y-147451927D02*
X126159523Y-147451927D01*
X126159523Y-147451927D02*
X126197619Y-147470975D01*
X126197619Y-147470975D02*
X126216666Y-147490022D01*
X126216666Y-147490022D02*
X126235714Y-147528118D01*
X126235714Y-147528118D02*
X126254761Y-147604308D01*
X126254761Y-147604308D02*
X126254761Y-147699546D01*
X126254761Y-147699546D02*
X126235714Y-147775737D01*
X126235714Y-147775737D02*
X126216666Y-147813832D01*
X126216666Y-147813832D02*
X126197619Y-147832880D01*
X126197619Y-147832880D02*
X126159523Y-147851927D01*
X126159523Y-147851927D02*
X126121428Y-147851927D01*
X126121428Y-147851927D02*
X126083333Y-147832880D01*
X126083333Y-147832880D02*
X126064285Y-147813832D01*
X126064285Y-147813832D02*
X126045238Y-147775737D01*
X126045238Y-147775737D02*
X126026190Y-147699546D01*
X126026190Y-147699546D02*
X126026190Y-147604308D01*
X126026190Y-147604308D02*
X126045238Y-147528118D01*
X126045238Y-147528118D02*
X126064285Y-147490022D01*
X126064285Y-147490022D02*
X126083333Y-147470975D01*
X126083333Y-147470975D02*
X126121428Y-147451927D01*
X140181927Y-88066666D02*
X139991451Y-88199999D01*
X140181927Y-88295237D02*
X139781927Y-88295237D01*
X139781927Y-88295237D02*
X139781927Y-88142856D01*
X139781927Y-88142856D02*
X139800975Y-88104761D01*
X139800975Y-88104761D02*
X139820022Y-88085714D01*
X139820022Y-88085714D02*
X139858118Y-88066666D01*
X139858118Y-88066666D02*
X139915260Y-88066666D01*
X139915260Y-88066666D02*
X139953356Y-88085714D01*
X139953356Y-88085714D02*
X139972403Y-88104761D01*
X139972403Y-88104761D02*
X139991451Y-88142856D01*
X139991451Y-88142856D02*
X139991451Y-88295237D01*
X139820022Y-87914285D02*
X139800975Y-87895237D01*
X139800975Y-87895237D02*
X139781927Y-87857142D01*
X139781927Y-87857142D02*
X139781927Y-87761904D01*
X139781927Y-87761904D02*
X139800975Y-87723809D01*
X139800975Y-87723809D02*
X139820022Y-87704761D01*
X139820022Y-87704761D02*
X139858118Y-87685714D01*
X139858118Y-87685714D02*
X139896213Y-87685714D01*
X139896213Y-87685714D02*
X139953356Y-87704761D01*
X139953356Y-87704761D02*
X140181927Y-87933333D01*
X140181927Y-87933333D02*
X140181927Y-87685714D01*
D10*
X35454819Y-59349523D02*
X36169104Y-59349523D01*
X36169104Y-59349523D02*
X36311961Y-59397142D01*
X36311961Y-59397142D02*
X36407200Y-59492380D01*
X36407200Y-59492380D02*
X36454819Y-59635237D01*
X36454819Y-59635237D02*
X36454819Y-59730475D01*
X36454819Y-58349523D02*
X36454819Y-58920951D01*
X36454819Y-58635237D02*
X35454819Y-58635237D01*
X35454819Y-58635237D02*
X35597676Y-58730475D01*
X35597676Y-58730475D02*
X35692914Y-58825713D01*
X35692914Y-58825713D02*
X35740533Y-58920951D01*
X35454819Y-58016189D02*
X35454819Y-57349523D01*
X35454819Y-57349523D02*
X36454819Y-57778094D01*
D12*
X75908333Y-79761927D02*
X75775000Y-79571451D01*
X75679762Y-79761927D02*
X75679762Y-79361927D01*
X75679762Y-79361927D02*
X75832143Y-79361927D01*
X75832143Y-79361927D02*
X75870238Y-79380975D01*
X75870238Y-79380975D02*
X75889285Y-79400022D01*
X75889285Y-79400022D02*
X75908333Y-79438118D01*
X75908333Y-79438118D02*
X75908333Y-79495260D01*
X75908333Y-79495260D02*
X75889285Y-79533356D01*
X75889285Y-79533356D02*
X75870238Y-79552403D01*
X75870238Y-79552403D02*
X75832143Y-79571451D01*
X75832143Y-79571451D02*
X75679762Y-79571451D01*
X76041666Y-79361927D02*
X76308333Y-79361927D01*
X76308333Y-79361927D02*
X76136904Y-79761927D01*
X55717857Y-79761927D02*
X55584524Y-79571451D01*
X55489286Y-79761927D02*
X55489286Y-79361927D01*
X55489286Y-79361927D02*
X55641667Y-79361927D01*
X55641667Y-79361927D02*
X55679762Y-79380975D01*
X55679762Y-79380975D02*
X55698809Y-79400022D01*
X55698809Y-79400022D02*
X55717857Y-79438118D01*
X55717857Y-79438118D02*
X55717857Y-79495260D01*
X55717857Y-79495260D02*
X55698809Y-79533356D01*
X55698809Y-79533356D02*
X55679762Y-79552403D01*
X55679762Y-79552403D02*
X55641667Y-79571451D01*
X55641667Y-79571451D02*
X55489286Y-79571451D01*
X56098809Y-79761927D02*
X55870238Y-79761927D01*
X55984524Y-79761927D02*
X55984524Y-79361927D01*
X55984524Y-79361927D02*
X55946428Y-79419070D01*
X55946428Y-79419070D02*
X55908333Y-79457165D01*
X55908333Y-79457165D02*
X55870238Y-79476213D01*
X56251190Y-79400022D02*
X56270238Y-79380975D01*
X56270238Y-79380975D02*
X56308333Y-79361927D01*
X56308333Y-79361927D02*
X56403571Y-79361927D01*
X56403571Y-79361927D02*
X56441666Y-79380975D01*
X56441666Y-79380975D02*
X56460714Y-79400022D01*
X56460714Y-79400022D02*
X56479761Y-79438118D01*
X56479761Y-79438118D02*
X56479761Y-79476213D01*
X56479761Y-79476213D02*
X56460714Y-79533356D01*
X56460714Y-79533356D02*
X56232142Y-79761927D01*
X56232142Y-79761927D02*
X56479761Y-79761927D01*
D11*
X56150914Y-82610476D02*
X56135676Y-82640952D01*
X56135676Y-82640952D02*
X56105200Y-82671428D01*
X56105200Y-82671428D02*
X56059485Y-82717142D01*
X56059485Y-82717142D02*
X56044247Y-82747619D01*
X56044247Y-82747619D02*
X56044247Y-82778095D01*
X56120438Y-82762857D02*
X56105200Y-82793333D01*
X56105200Y-82793333D02*
X56074723Y-82823809D01*
X56074723Y-82823809D02*
X56013771Y-82839047D01*
X56013771Y-82839047D02*
X55907104Y-82839047D01*
X55907104Y-82839047D02*
X55846152Y-82823809D01*
X55846152Y-82823809D02*
X55815676Y-82793333D01*
X55815676Y-82793333D02*
X55800438Y-82762857D01*
X55800438Y-82762857D02*
X55800438Y-82701904D01*
X55800438Y-82701904D02*
X55815676Y-82671428D01*
X55815676Y-82671428D02*
X55846152Y-82640952D01*
X55846152Y-82640952D02*
X55907104Y-82625714D01*
X55907104Y-82625714D02*
X56013771Y-82625714D01*
X56013771Y-82625714D02*
X56074723Y-82640952D01*
X56074723Y-82640952D02*
X56105200Y-82671428D01*
X56105200Y-82671428D02*
X56120438Y-82701904D01*
X56120438Y-82701904D02*
X56120438Y-82762857D01*
X55800438Y-82519047D02*
X55800438Y-82320952D01*
X55800438Y-82320952D02*
X55922342Y-82427619D01*
X55922342Y-82427619D02*
X55922342Y-82381904D01*
X55922342Y-82381904D02*
X55937580Y-82351428D01*
X55937580Y-82351428D02*
X55952819Y-82336190D01*
X55952819Y-82336190D02*
X55983295Y-82320952D01*
X55983295Y-82320952D02*
X56059485Y-82320952D01*
X56059485Y-82320952D02*
X56089961Y-82336190D01*
X56089961Y-82336190D02*
X56105200Y-82351428D01*
X56105200Y-82351428D02*
X56120438Y-82381904D01*
X56120438Y-82381904D02*
X56120438Y-82473333D01*
X56120438Y-82473333D02*
X56105200Y-82503809D01*
X56105200Y-82503809D02*
X56089961Y-82519047D01*
D12*
X122643832Y-134816666D02*
X122662880Y-134835714D01*
X122662880Y-134835714D02*
X122681927Y-134892856D01*
X122681927Y-134892856D02*
X122681927Y-134930952D01*
X122681927Y-134930952D02*
X122662880Y-134988095D01*
X122662880Y-134988095D02*
X122624784Y-135026190D01*
X122624784Y-135026190D02*
X122586689Y-135045237D01*
X122586689Y-135045237D02*
X122510499Y-135064285D01*
X122510499Y-135064285D02*
X122453356Y-135064285D01*
X122453356Y-135064285D02*
X122377165Y-135045237D01*
X122377165Y-135045237D02*
X122339070Y-135026190D01*
X122339070Y-135026190D02*
X122300975Y-134988095D01*
X122300975Y-134988095D02*
X122281927Y-134930952D01*
X122281927Y-134930952D02*
X122281927Y-134892856D01*
X122281927Y-134892856D02*
X122300975Y-134835714D01*
X122300975Y-134835714D02*
X122320022Y-134816666D01*
X122320022Y-134664285D02*
X122300975Y-134645237D01*
X122300975Y-134645237D02*
X122281927Y-134607142D01*
X122281927Y-134607142D02*
X122281927Y-134511904D01*
X122281927Y-134511904D02*
X122300975Y-134473809D01*
X122300975Y-134473809D02*
X122320022Y-134454761D01*
X122320022Y-134454761D02*
X122358118Y-134435714D01*
X122358118Y-134435714D02*
X122396213Y-134435714D01*
X122396213Y-134435714D02*
X122453356Y-134454761D01*
X122453356Y-134454761D02*
X122681927Y-134683333D01*
X122681927Y-134683333D02*
X122681927Y-134435714D01*
D10*
X95166667Y-171113200D02*
X95309524Y-171160819D01*
X95309524Y-171160819D02*
X95547619Y-171160819D01*
X95547619Y-171160819D02*
X95642857Y-171113200D01*
X95642857Y-171113200D02*
X95690476Y-171065580D01*
X95690476Y-171065580D02*
X95738095Y-170970342D01*
X95738095Y-170970342D02*
X95738095Y-170875104D01*
X95738095Y-170875104D02*
X95690476Y-170779866D01*
X95690476Y-170779866D02*
X95642857Y-170732247D01*
X95642857Y-170732247D02*
X95547619Y-170684628D01*
X95547619Y-170684628D02*
X95357143Y-170637009D01*
X95357143Y-170637009D02*
X95261905Y-170589390D01*
X95261905Y-170589390D02*
X95214286Y-170541771D01*
X95214286Y-170541771D02*
X95166667Y-170446533D01*
X95166667Y-170446533D02*
X95166667Y-170351295D01*
X95166667Y-170351295D02*
X95214286Y-170256057D01*
X95214286Y-170256057D02*
X95261905Y-170208438D01*
X95261905Y-170208438D02*
X95357143Y-170160819D01*
X95357143Y-170160819D02*
X95595238Y-170160819D01*
X95595238Y-170160819D02*
X95738095Y-170208438D01*
X96071429Y-170160819D02*
X96309524Y-171160819D01*
X96309524Y-171160819D02*
X96500000Y-170446533D01*
X96500000Y-170446533D02*
X96690476Y-171160819D01*
X96690476Y-171160819D02*
X96928572Y-170160819D01*
X97738095Y-170494152D02*
X97738095Y-171160819D01*
X97500000Y-170113200D02*
X97261905Y-170827485D01*
X97261905Y-170827485D02*
X97880952Y-170827485D01*
X88666666Y-160954819D02*
X88333333Y-160478628D01*
X88095238Y-160954819D02*
X88095238Y-159954819D01*
X88095238Y-159954819D02*
X88476190Y-159954819D01*
X88476190Y-159954819D02*
X88571428Y-160002438D01*
X88571428Y-160002438D02*
X88619047Y-160050057D01*
X88619047Y-160050057D02*
X88666666Y-160145295D01*
X88666666Y-160145295D02*
X88666666Y-160288152D01*
X88666666Y-160288152D02*
X88619047Y-160383390D01*
X88619047Y-160383390D02*
X88571428Y-160431009D01*
X88571428Y-160431009D02*
X88476190Y-160478628D01*
X88476190Y-160478628D02*
X88095238Y-160478628D01*
X89095238Y-160431009D02*
X89428571Y-160431009D01*
X89571428Y-160954819D02*
X89095238Y-160954819D01*
X89095238Y-160954819D02*
X89095238Y-159954819D01*
X89095238Y-159954819D02*
X89571428Y-159954819D01*
X90333333Y-160431009D02*
X90000000Y-160431009D01*
X90000000Y-160954819D02*
X90000000Y-159954819D01*
X90000000Y-159954819D02*
X90476190Y-159954819D01*
X91000000Y-159954819D02*
X91000000Y-160192914D01*
X90761905Y-160097676D02*
X91000000Y-160192914D01*
X91000000Y-160192914D02*
X91238095Y-160097676D01*
X90857143Y-160383390D02*
X91000000Y-160192914D01*
X91000000Y-160192914D02*
X91142857Y-160383390D01*
X91761905Y-159954819D02*
X91761905Y-160192914D01*
X91523810Y-160097676D02*
X91761905Y-160192914D01*
X91761905Y-160192914D02*
X92000000Y-160097676D01*
X91619048Y-160383390D02*
X91761905Y-160192914D01*
X91761905Y-160192914D02*
X91904762Y-160383390D01*
X146104819Y-57147023D02*
X146819104Y-57147023D01*
X146819104Y-57147023D02*
X146961961Y-57194642D01*
X146961961Y-57194642D02*
X147057200Y-57289880D01*
X147057200Y-57289880D02*
X147104819Y-57432737D01*
X147104819Y-57432737D02*
X147104819Y-57527975D01*
X147104819Y-56147023D02*
X147104819Y-56718451D01*
X147104819Y-56432737D02*
X146104819Y-56432737D01*
X146104819Y-56432737D02*
X146247676Y-56527975D01*
X146247676Y-56527975D02*
X146342914Y-56623213D01*
X146342914Y-56623213D02*
X146390533Y-56718451D01*
X146104819Y-55813689D02*
X146104819Y-55194642D01*
X146104819Y-55194642D02*
X146485771Y-55527975D01*
X146485771Y-55527975D02*
X146485771Y-55385118D01*
X146485771Y-55385118D02*
X146533390Y-55289880D01*
X146533390Y-55289880D02*
X146581009Y-55242261D01*
X146581009Y-55242261D02*
X146676247Y-55194642D01*
X146676247Y-55194642D02*
X146914342Y-55194642D01*
X146914342Y-55194642D02*
X147009580Y-55242261D01*
X147009580Y-55242261D02*
X147057200Y-55289880D01*
X147057200Y-55289880D02*
X147104819Y-55385118D01*
X147104819Y-55385118D02*
X147104819Y-55670832D01*
X147104819Y-55670832D02*
X147057200Y-55766070D01*
X147057200Y-55766070D02*
X147009580Y-55813689D01*
D11*
X128125914Y-80245357D02*
X128110676Y-80275833D01*
X128110676Y-80275833D02*
X128080200Y-80306309D01*
X128080200Y-80306309D02*
X128034485Y-80352023D01*
X128034485Y-80352023D02*
X128019247Y-80382500D01*
X128019247Y-80382500D02*
X128019247Y-80412976D01*
X128095438Y-80397738D02*
X128080200Y-80428214D01*
X128080200Y-80428214D02*
X128049723Y-80458690D01*
X128049723Y-80458690D02*
X127988771Y-80473928D01*
X127988771Y-80473928D02*
X127882104Y-80473928D01*
X127882104Y-80473928D02*
X127821152Y-80458690D01*
X127821152Y-80458690D02*
X127790676Y-80428214D01*
X127790676Y-80428214D02*
X127775438Y-80397738D01*
X127775438Y-80397738D02*
X127775438Y-80336785D01*
X127775438Y-80336785D02*
X127790676Y-80306309D01*
X127790676Y-80306309D02*
X127821152Y-80275833D01*
X127821152Y-80275833D02*
X127882104Y-80260595D01*
X127882104Y-80260595D02*
X127988771Y-80260595D01*
X127988771Y-80260595D02*
X128049723Y-80275833D01*
X128049723Y-80275833D02*
X128080200Y-80306309D01*
X128080200Y-80306309D02*
X128095438Y-80336785D01*
X128095438Y-80336785D02*
X128095438Y-80397738D01*
X128095438Y-79955833D02*
X128095438Y-80138690D01*
X128095438Y-80047262D02*
X127775438Y-80047262D01*
X127775438Y-80047262D02*
X127821152Y-80077738D01*
X127821152Y-80077738D02*
X127851628Y-80108214D01*
X127851628Y-80108214D02*
X127866866Y-80138690D01*
X128095438Y-79651071D02*
X128095438Y-79833928D01*
X128095438Y-79742500D02*
X127775438Y-79742500D01*
X127775438Y-79742500D02*
X127821152Y-79772976D01*
X127821152Y-79772976D02*
X127851628Y-79803452D01*
X127851628Y-79803452D02*
X127866866Y-79833928D01*
D12*
X65717857Y-92881927D02*
X65584524Y-92691451D01*
X65489286Y-92881927D02*
X65489286Y-92481927D01*
X65489286Y-92481927D02*
X65641667Y-92481927D01*
X65641667Y-92481927D02*
X65679762Y-92500975D01*
X65679762Y-92500975D02*
X65698809Y-92520022D01*
X65698809Y-92520022D02*
X65717857Y-92558118D01*
X65717857Y-92558118D02*
X65717857Y-92615260D01*
X65717857Y-92615260D02*
X65698809Y-92653356D01*
X65698809Y-92653356D02*
X65679762Y-92672403D01*
X65679762Y-92672403D02*
X65641667Y-92691451D01*
X65641667Y-92691451D02*
X65489286Y-92691451D01*
X66098809Y-92881927D02*
X65870238Y-92881927D01*
X65984524Y-92881927D02*
X65984524Y-92481927D01*
X65984524Y-92481927D02*
X65946428Y-92539070D01*
X65946428Y-92539070D02*
X65908333Y-92577165D01*
X65908333Y-92577165D02*
X65870238Y-92596213D01*
X66441666Y-92481927D02*
X66365476Y-92481927D01*
X66365476Y-92481927D02*
X66327380Y-92500975D01*
X66327380Y-92500975D02*
X66308333Y-92520022D01*
X66308333Y-92520022D02*
X66270238Y-92577165D01*
X66270238Y-92577165D02*
X66251190Y-92653356D01*
X66251190Y-92653356D02*
X66251190Y-92805737D01*
X66251190Y-92805737D02*
X66270238Y-92843832D01*
X66270238Y-92843832D02*
X66289285Y-92862880D01*
X66289285Y-92862880D02*
X66327380Y-92881927D01*
X66327380Y-92881927D02*
X66403571Y-92881927D01*
X66403571Y-92881927D02*
X66441666Y-92862880D01*
X66441666Y-92862880D02*
X66460714Y-92843832D01*
X66460714Y-92843832D02*
X66479761Y-92805737D01*
X66479761Y-92805737D02*
X66479761Y-92710499D01*
X66479761Y-92710499D02*
X66460714Y-92672403D01*
X66460714Y-92672403D02*
X66441666Y-92653356D01*
X66441666Y-92653356D02*
X66403571Y-92634308D01*
X66403571Y-92634308D02*
X66327380Y-92634308D01*
X66327380Y-92634308D02*
X66289285Y-92653356D01*
X66289285Y-92653356D02*
X66270238Y-92672403D01*
X66270238Y-92672403D02*
X66251190Y-92710499D01*
X45717857Y-85761927D02*
X45584524Y-85571451D01*
X45489286Y-85761927D02*
X45489286Y-85361927D01*
X45489286Y-85361927D02*
X45641667Y-85361927D01*
X45641667Y-85361927D02*
X45679762Y-85380975D01*
X45679762Y-85380975D02*
X45698809Y-85400022D01*
X45698809Y-85400022D02*
X45717857Y-85438118D01*
X45717857Y-85438118D02*
X45717857Y-85495260D01*
X45717857Y-85495260D02*
X45698809Y-85533356D01*
X45698809Y-85533356D02*
X45679762Y-85552403D01*
X45679762Y-85552403D02*
X45641667Y-85571451D01*
X45641667Y-85571451D02*
X45489286Y-85571451D01*
X46098809Y-85761927D02*
X45870238Y-85761927D01*
X45984524Y-85761927D02*
X45984524Y-85361927D01*
X45984524Y-85361927D02*
X45946428Y-85419070D01*
X45946428Y-85419070D02*
X45908333Y-85457165D01*
X45908333Y-85457165D02*
X45870238Y-85476213D01*
X46232142Y-85361927D02*
X46479761Y-85361927D01*
X46479761Y-85361927D02*
X46346428Y-85514308D01*
X46346428Y-85514308D02*
X46403571Y-85514308D01*
X46403571Y-85514308D02*
X46441666Y-85533356D01*
X46441666Y-85533356D02*
X46460714Y-85552403D01*
X46460714Y-85552403D02*
X46479761Y-85590499D01*
X46479761Y-85590499D02*
X46479761Y-85685737D01*
X46479761Y-85685737D02*
X46460714Y-85723832D01*
X46460714Y-85723832D02*
X46441666Y-85742880D01*
X46441666Y-85742880D02*
X46403571Y-85761927D01*
X46403571Y-85761927D02*
X46289285Y-85761927D01*
X46289285Y-85761927D02*
X46251190Y-85742880D01*
X46251190Y-85742880D02*
X46232142Y-85723832D01*
X65717857Y-79761927D02*
X65584524Y-79571451D01*
X65489286Y-79761927D02*
X65489286Y-79361927D01*
X65489286Y-79361927D02*
X65641667Y-79361927D01*
X65641667Y-79361927D02*
X65679762Y-79380975D01*
X65679762Y-79380975D02*
X65698809Y-79400022D01*
X65698809Y-79400022D02*
X65717857Y-79438118D01*
X65717857Y-79438118D02*
X65717857Y-79495260D01*
X65717857Y-79495260D02*
X65698809Y-79533356D01*
X65698809Y-79533356D02*
X65679762Y-79552403D01*
X65679762Y-79552403D02*
X65641667Y-79571451D01*
X65641667Y-79571451D02*
X65489286Y-79571451D01*
X66098809Y-79761927D02*
X65870238Y-79761927D01*
X65984524Y-79761927D02*
X65984524Y-79361927D01*
X65984524Y-79361927D02*
X65946428Y-79419070D01*
X65946428Y-79419070D02*
X65908333Y-79457165D01*
X65908333Y-79457165D02*
X65870238Y-79476213D01*
X66346428Y-79361927D02*
X66384523Y-79361927D01*
X66384523Y-79361927D02*
X66422619Y-79380975D01*
X66422619Y-79380975D02*
X66441666Y-79400022D01*
X66441666Y-79400022D02*
X66460714Y-79438118D01*
X66460714Y-79438118D02*
X66479761Y-79514308D01*
X66479761Y-79514308D02*
X66479761Y-79609546D01*
X66479761Y-79609546D02*
X66460714Y-79685737D01*
X66460714Y-79685737D02*
X66441666Y-79723832D01*
X66441666Y-79723832D02*
X66422619Y-79742880D01*
X66422619Y-79742880D02*
X66384523Y-79761927D01*
X66384523Y-79761927D02*
X66346428Y-79761927D01*
X66346428Y-79761927D02*
X66308333Y-79742880D01*
X66308333Y-79742880D02*
X66289285Y-79723832D01*
X66289285Y-79723832D02*
X66270238Y-79685737D01*
X66270238Y-79685737D02*
X66251190Y-79609546D01*
X66251190Y-79609546D02*
X66251190Y-79514308D01*
X66251190Y-79514308D02*
X66270238Y-79438118D01*
X66270238Y-79438118D02*
X66289285Y-79400022D01*
X66289285Y-79400022D02*
X66308333Y-79380975D01*
X66308333Y-79380975D02*
X66346428Y-79361927D01*
X120143832Y-134816666D02*
X120162880Y-134835714D01*
X120162880Y-134835714D02*
X120181927Y-134892856D01*
X120181927Y-134892856D02*
X120181927Y-134930952D01*
X120181927Y-134930952D02*
X120162880Y-134988095D01*
X120162880Y-134988095D02*
X120124784Y-135026190D01*
X120124784Y-135026190D02*
X120086689Y-135045237D01*
X120086689Y-135045237D02*
X120010499Y-135064285D01*
X120010499Y-135064285D02*
X119953356Y-135064285D01*
X119953356Y-135064285D02*
X119877165Y-135045237D01*
X119877165Y-135045237D02*
X119839070Y-135026190D01*
X119839070Y-135026190D02*
X119800975Y-134988095D01*
X119800975Y-134988095D02*
X119781927Y-134930952D01*
X119781927Y-134930952D02*
X119781927Y-134892856D01*
X119781927Y-134892856D02*
X119800975Y-134835714D01*
X119800975Y-134835714D02*
X119820022Y-134816666D01*
X119781927Y-134683333D02*
X119781927Y-134435714D01*
X119781927Y-134435714D02*
X119934308Y-134569047D01*
X119934308Y-134569047D02*
X119934308Y-134511904D01*
X119934308Y-134511904D02*
X119953356Y-134473809D01*
X119953356Y-134473809D02*
X119972403Y-134454761D01*
X119972403Y-134454761D02*
X120010499Y-134435714D01*
X120010499Y-134435714D02*
X120105737Y-134435714D01*
X120105737Y-134435714D02*
X120143832Y-134454761D01*
X120143832Y-134454761D02*
X120162880Y-134473809D01*
X120162880Y-134473809D02*
X120181927Y-134511904D01*
X120181927Y-134511904D02*
X120181927Y-134626190D01*
X120181927Y-134626190D02*
X120162880Y-134664285D01*
X120162880Y-134664285D02*
X120143832Y-134683333D01*
D10*
X145996666Y-113454819D02*
X145996666Y-114169104D01*
X145996666Y-114169104D02*
X145949047Y-114311961D01*
X145949047Y-114311961D02*
X145853809Y-114407200D01*
X145853809Y-114407200D02*
X145710952Y-114454819D01*
X145710952Y-114454819D02*
X145615714Y-114454819D01*
X146996666Y-114454819D02*
X146425238Y-114454819D01*
X146710952Y-114454819D02*
X146710952Y-113454819D01*
X146710952Y-113454819D02*
X146615714Y-113597676D01*
X146615714Y-113597676D02*
X146520476Y-113692914D01*
X146520476Y-113692914D02*
X146425238Y-113740533D01*
X122715566Y-141496666D02*
X123508900Y-141496666D01*
X123508900Y-141496666D02*
X123602233Y-141450000D01*
X123602233Y-141450000D02*
X123648900Y-141403333D01*
X123648900Y-141403333D02*
X123695566Y-141310000D01*
X123695566Y-141310000D02*
X123695566Y-141123333D01*
X123695566Y-141123333D02*
X123648900Y-141030000D01*
X123648900Y-141030000D02*
X123602233Y-140983333D01*
X123602233Y-140983333D02*
X123508900Y-140936666D01*
X123508900Y-140936666D02*
X122715566Y-140936666D01*
X122808900Y-140516666D02*
X122762233Y-140469999D01*
X122762233Y-140469999D02*
X122715566Y-140376666D01*
X122715566Y-140376666D02*
X122715566Y-140143333D01*
X122715566Y-140143333D02*
X122762233Y-140049999D01*
X122762233Y-140049999D02*
X122808900Y-140003333D01*
X122808900Y-140003333D02*
X122902233Y-139956666D01*
X122902233Y-139956666D02*
X122995566Y-139956666D01*
X122995566Y-139956666D02*
X123135566Y-140003333D01*
X123135566Y-140003333D02*
X123695566Y-140563333D01*
X123695566Y-140563333D02*
X123695566Y-139956666D01*
X151666666Y-189954819D02*
X151333333Y-189478628D01*
X151095238Y-189954819D02*
X151095238Y-188954819D01*
X151095238Y-188954819D02*
X151476190Y-188954819D01*
X151476190Y-188954819D02*
X151571428Y-189002438D01*
X151571428Y-189002438D02*
X151619047Y-189050057D01*
X151619047Y-189050057D02*
X151666666Y-189145295D01*
X151666666Y-189145295D02*
X151666666Y-189288152D01*
X151666666Y-189288152D02*
X151619047Y-189383390D01*
X151619047Y-189383390D02*
X151571428Y-189431009D01*
X151571428Y-189431009D02*
X151476190Y-189478628D01*
X151476190Y-189478628D02*
X151095238Y-189478628D01*
X152095238Y-189431009D02*
X152428571Y-189431009D01*
X152571428Y-189954819D02*
X152095238Y-189954819D01*
X152095238Y-189954819D02*
X152095238Y-188954819D01*
X152095238Y-188954819D02*
X152571428Y-188954819D01*
X153333333Y-189431009D02*
X153000000Y-189431009D01*
X153000000Y-189954819D02*
X153000000Y-188954819D01*
X153000000Y-188954819D02*
X153476190Y-188954819D01*
X154000000Y-188954819D02*
X154000000Y-189192914D01*
X153761905Y-189097676D02*
X154000000Y-189192914D01*
X154000000Y-189192914D02*
X154238095Y-189097676D01*
X153857143Y-189383390D02*
X154000000Y-189192914D01*
X154000000Y-189192914D02*
X154142857Y-189383390D01*
X154761905Y-188954819D02*
X154761905Y-189192914D01*
X154523810Y-189097676D02*
X154761905Y-189192914D01*
X154761905Y-189192914D02*
X155000000Y-189097676D01*
X154619048Y-189383390D02*
X154761905Y-189192914D01*
X154761905Y-189192914D02*
X154904762Y-189383390D01*
D12*
X127643832Y-134816666D02*
X127662880Y-134835714D01*
X127662880Y-134835714D02*
X127681927Y-134892856D01*
X127681927Y-134892856D02*
X127681927Y-134930952D01*
X127681927Y-134930952D02*
X127662880Y-134988095D01*
X127662880Y-134988095D02*
X127624784Y-135026190D01*
X127624784Y-135026190D02*
X127586689Y-135045237D01*
X127586689Y-135045237D02*
X127510499Y-135064285D01*
X127510499Y-135064285D02*
X127453356Y-135064285D01*
X127453356Y-135064285D02*
X127377165Y-135045237D01*
X127377165Y-135045237D02*
X127339070Y-135026190D01*
X127339070Y-135026190D02*
X127300975Y-134988095D01*
X127300975Y-134988095D02*
X127281927Y-134930952D01*
X127281927Y-134930952D02*
X127281927Y-134892856D01*
X127281927Y-134892856D02*
X127300975Y-134835714D01*
X127300975Y-134835714D02*
X127320022Y-134816666D01*
X127415260Y-134473809D02*
X127681927Y-134473809D01*
X127262880Y-134569047D02*
X127548594Y-134664285D01*
X127548594Y-134664285D02*
X127548594Y-134416666D01*
D11*
X66150914Y-89730476D02*
X66135676Y-89760952D01*
X66135676Y-89760952D02*
X66105200Y-89791428D01*
X66105200Y-89791428D02*
X66059485Y-89837142D01*
X66059485Y-89837142D02*
X66044247Y-89867619D01*
X66044247Y-89867619D02*
X66044247Y-89898095D01*
X66120438Y-89882857D02*
X66105200Y-89913333D01*
X66105200Y-89913333D02*
X66074723Y-89943809D01*
X66074723Y-89943809D02*
X66013771Y-89959047D01*
X66013771Y-89959047D02*
X65907104Y-89959047D01*
X65907104Y-89959047D02*
X65846152Y-89943809D01*
X65846152Y-89943809D02*
X65815676Y-89913333D01*
X65815676Y-89913333D02*
X65800438Y-89882857D01*
X65800438Y-89882857D02*
X65800438Y-89821904D01*
X65800438Y-89821904D02*
X65815676Y-89791428D01*
X65815676Y-89791428D02*
X65846152Y-89760952D01*
X65846152Y-89760952D02*
X65907104Y-89745714D01*
X65907104Y-89745714D02*
X66013771Y-89745714D01*
X66013771Y-89745714D02*
X66074723Y-89760952D01*
X66074723Y-89760952D02*
X66105200Y-89791428D01*
X66105200Y-89791428D02*
X66120438Y-89821904D01*
X66120438Y-89821904D02*
X66120438Y-89882857D01*
X65800438Y-89471428D02*
X65800438Y-89532381D01*
X65800438Y-89532381D02*
X65815676Y-89562857D01*
X65815676Y-89562857D02*
X65830914Y-89578095D01*
X65830914Y-89578095D02*
X65876628Y-89608571D01*
X65876628Y-89608571D02*
X65937580Y-89623809D01*
X65937580Y-89623809D02*
X66059485Y-89623809D01*
X66059485Y-89623809D02*
X66089961Y-89608571D01*
X66089961Y-89608571D02*
X66105200Y-89593333D01*
X66105200Y-89593333D02*
X66120438Y-89562857D01*
X66120438Y-89562857D02*
X66120438Y-89501904D01*
X66120438Y-89501904D02*
X66105200Y-89471428D01*
X66105200Y-89471428D02*
X66089961Y-89456190D01*
X66089961Y-89456190D02*
X66059485Y-89440952D01*
X66059485Y-89440952D02*
X65983295Y-89440952D01*
X65983295Y-89440952D02*
X65952819Y-89456190D01*
X65952819Y-89456190D02*
X65937580Y-89471428D01*
X65937580Y-89471428D02*
X65922342Y-89501904D01*
X65922342Y-89501904D02*
X65922342Y-89562857D01*
X65922342Y-89562857D02*
X65937580Y-89593333D01*
X65937580Y-89593333D02*
X65952819Y-89608571D01*
X65952819Y-89608571D02*
X65983295Y-89623809D01*
D10*
X145996666Y-76454819D02*
X145996666Y-77169104D01*
X145996666Y-77169104D02*
X145949047Y-77311961D01*
X145949047Y-77311961D02*
X145853809Y-77407200D01*
X145853809Y-77407200D02*
X145710952Y-77454819D01*
X145710952Y-77454819D02*
X145615714Y-77454819D01*
X146901428Y-76454819D02*
X146710952Y-76454819D01*
X146710952Y-76454819D02*
X146615714Y-76502438D01*
X146615714Y-76502438D02*
X146568095Y-76550057D01*
X146568095Y-76550057D02*
X146472857Y-76692914D01*
X146472857Y-76692914D02*
X146425238Y-76883390D01*
X146425238Y-76883390D02*
X146425238Y-77264342D01*
X146425238Y-77264342D02*
X146472857Y-77359580D01*
X146472857Y-77359580D02*
X146520476Y-77407200D01*
X146520476Y-77407200D02*
X146615714Y-77454819D01*
X146615714Y-77454819D02*
X146806190Y-77454819D01*
X146806190Y-77454819D02*
X146901428Y-77407200D01*
X146901428Y-77407200D02*
X146949047Y-77359580D01*
X146949047Y-77359580D02*
X146996666Y-77264342D01*
X146996666Y-77264342D02*
X146996666Y-77026247D01*
X146996666Y-77026247D02*
X146949047Y-76931009D01*
X146949047Y-76931009D02*
X146901428Y-76883390D01*
X146901428Y-76883390D02*
X146806190Y-76835771D01*
X146806190Y-76835771D02*
X146615714Y-76835771D01*
X146615714Y-76835771D02*
X146520476Y-76883390D01*
X146520476Y-76883390D02*
X146472857Y-76931009D01*
X146472857Y-76931009D02*
X146425238Y-77026247D01*
D11*
X120125914Y-80092976D02*
X120110676Y-80123452D01*
X120110676Y-80123452D02*
X120080200Y-80153928D01*
X120080200Y-80153928D02*
X120034485Y-80199642D01*
X120034485Y-80199642D02*
X120019247Y-80230119D01*
X120019247Y-80230119D02*
X120019247Y-80260595D01*
X120095438Y-80245357D02*
X120080200Y-80275833D01*
X120080200Y-80275833D02*
X120049723Y-80306309D01*
X120049723Y-80306309D02*
X119988771Y-80321547D01*
X119988771Y-80321547D02*
X119882104Y-80321547D01*
X119882104Y-80321547D02*
X119821152Y-80306309D01*
X119821152Y-80306309D02*
X119790676Y-80275833D01*
X119790676Y-80275833D02*
X119775438Y-80245357D01*
X119775438Y-80245357D02*
X119775438Y-80184404D01*
X119775438Y-80184404D02*
X119790676Y-80153928D01*
X119790676Y-80153928D02*
X119821152Y-80123452D01*
X119821152Y-80123452D02*
X119882104Y-80108214D01*
X119882104Y-80108214D02*
X119988771Y-80108214D01*
X119988771Y-80108214D02*
X120049723Y-80123452D01*
X120049723Y-80123452D02*
X120080200Y-80153928D01*
X120080200Y-80153928D02*
X120095438Y-80184404D01*
X120095438Y-80184404D02*
X120095438Y-80245357D01*
X120095438Y-79955833D02*
X120095438Y-79894881D01*
X120095438Y-79894881D02*
X120080200Y-79864404D01*
X120080200Y-79864404D02*
X120064961Y-79849166D01*
X120064961Y-79849166D02*
X120019247Y-79818690D01*
X120019247Y-79818690D02*
X119958295Y-79803452D01*
X119958295Y-79803452D02*
X119836390Y-79803452D01*
X119836390Y-79803452D02*
X119805914Y-79818690D01*
X119805914Y-79818690D02*
X119790676Y-79833928D01*
X119790676Y-79833928D02*
X119775438Y-79864404D01*
X119775438Y-79864404D02*
X119775438Y-79925357D01*
X119775438Y-79925357D02*
X119790676Y-79955833D01*
X119790676Y-79955833D02*
X119805914Y-79971071D01*
X119805914Y-79971071D02*
X119836390Y-79986309D01*
X119836390Y-79986309D02*
X119912580Y-79986309D01*
X119912580Y-79986309D02*
X119943057Y-79971071D01*
X119943057Y-79971071D02*
X119958295Y-79955833D01*
X119958295Y-79955833D02*
X119973533Y-79925357D01*
X119973533Y-79925357D02*
X119973533Y-79864404D01*
X119973533Y-79864404D02*
X119958295Y-79833928D01*
X119958295Y-79833928D02*
X119943057Y-79818690D01*
X119943057Y-79818690D02*
X119912580Y-79803452D01*
D12*
X45717857Y-79761927D02*
X45584524Y-79571451D01*
X45489286Y-79761927D02*
X45489286Y-79361927D01*
X45489286Y-79361927D02*
X45641667Y-79361927D01*
X45641667Y-79361927D02*
X45679762Y-79380975D01*
X45679762Y-79380975D02*
X45698809Y-79400022D01*
X45698809Y-79400022D02*
X45717857Y-79438118D01*
X45717857Y-79438118D02*
X45717857Y-79495260D01*
X45717857Y-79495260D02*
X45698809Y-79533356D01*
X45698809Y-79533356D02*
X45679762Y-79552403D01*
X45679762Y-79552403D02*
X45641667Y-79571451D01*
X45641667Y-79571451D02*
X45489286Y-79571451D01*
X46098809Y-79761927D02*
X45870238Y-79761927D01*
X45984524Y-79761927D02*
X45984524Y-79361927D01*
X45984524Y-79361927D02*
X45946428Y-79419070D01*
X45946428Y-79419070D02*
X45908333Y-79457165D01*
X45908333Y-79457165D02*
X45870238Y-79476213D01*
X46441666Y-79495260D02*
X46441666Y-79761927D01*
X46346428Y-79342880D02*
X46251190Y-79628594D01*
X46251190Y-79628594D02*
X46498809Y-79628594D01*
D10*
X31666666Y-189954819D02*
X31333333Y-189478628D01*
X31095238Y-189954819D02*
X31095238Y-188954819D01*
X31095238Y-188954819D02*
X31476190Y-188954819D01*
X31476190Y-188954819D02*
X31571428Y-189002438D01*
X31571428Y-189002438D02*
X31619047Y-189050057D01*
X31619047Y-189050057D02*
X31666666Y-189145295D01*
X31666666Y-189145295D02*
X31666666Y-189288152D01*
X31666666Y-189288152D02*
X31619047Y-189383390D01*
X31619047Y-189383390D02*
X31571428Y-189431009D01*
X31571428Y-189431009D02*
X31476190Y-189478628D01*
X31476190Y-189478628D02*
X31095238Y-189478628D01*
X32095238Y-189431009D02*
X32428571Y-189431009D01*
X32571428Y-189954819D02*
X32095238Y-189954819D01*
X32095238Y-189954819D02*
X32095238Y-188954819D01*
X32095238Y-188954819D02*
X32571428Y-188954819D01*
X33333333Y-189431009D02*
X33000000Y-189431009D01*
X33000000Y-189954819D02*
X33000000Y-188954819D01*
X33000000Y-188954819D02*
X33476190Y-188954819D01*
X34000000Y-188954819D02*
X34000000Y-189192914D01*
X33761905Y-189097676D02*
X34000000Y-189192914D01*
X34000000Y-189192914D02*
X34238095Y-189097676D01*
X33857143Y-189383390D02*
X34000000Y-189192914D01*
X34000000Y-189192914D02*
X34142857Y-189383390D01*
X34761905Y-188954819D02*
X34761905Y-189192914D01*
X34523810Y-189097676D02*
X34761905Y-189192914D01*
X34761905Y-189192914D02*
X35000000Y-189097676D01*
X34619048Y-189383390D02*
X34761905Y-189192914D01*
X34761905Y-189192914D02*
X34904762Y-189383390D01*
X33854819Y-111209523D02*
X34569104Y-111209523D01*
X34569104Y-111209523D02*
X34711961Y-111257142D01*
X34711961Y-111257142D02*
X34807200Y-111352380D01*
X34807200Y-111352380D02*
X34854819Y-111495237D01*
X34854819Y-111495237D02*
X34854819Y-111590475D01*
X34854819Y-110209523D02*
X34854819Y-110780951D01*
X34854819Y-110495237D02*
X33854819Y-110495237D01*
X33854819Y-110495237D02*
X33997676Y-110590475D01*
X33997676Y-110590475D02*
X34092914Y-110685713D01*
X34092914Y-110685713D02*
X34140533Y-110780951D01*
X33854819Y-109304761D02*
X33854819Y-109780951D01*
X33854819Y-109780951D02*
X34331009Y-109828570D01*
X34331009Y-109828570D02*
X34283390Y-109780951D01*
X34283390Y-109780951D02*
X34235771Y-109685713D01*
X34235771Y-109685713D02*
X34235771Y-109447618D01*
X34235771Y-109447618D02*
X34283390Y-109352380D01*
X34283390Y-109352380D02*
X34331009Y-109304761D01*
X34331009Y-109304761D02*
X34426247Y-109257142D01*
X34426247Y-109257142D02*
X34664342Y-109257142D01*
X34664342Y-109257142D02*
X34759580Y-109304761D01*
X34759580Y-109304761D02*
X34807200Y-109352380D01*
X34807200Y-109352380D02*
X34854819Y-109447618D01*
X34854819Y-109447618D02*
X34854819Y-109685713D01*
X34854819Y-109685713D02*
X34807200Y-109780951D01*
X34807200Y-109780951D02*
X34759580Y-109828570D01*
X65454819Y-55063333D02*
X66169104Y-55063333D01*
X66169104Y-55063333D02*
X66311961Y-55110952D01*
X66311961Y-55110952D02*
X66407200Y-55206190D01*
X66407200Y-55206190D02*
X66454819Y-55349047D01*
X66454819Y-55349047D02*
X66454819Y-55444285D01*
X66454819Y-54539523D02*
X66454819Y-54349047D01*
X66454819Y-54349047D02*
X66407200Y-54253809D01*
X66407200Y-54253809D02*
X66359580Y-54206190D01*
X66359580Y-54206190D02*
X66216723Y-54110952D01*
X66216723Y-54110952D02*
X66026247Y-54063333D01*
X66026247Y-54063333D02*
X65645295Y-54063333D01*
X65645295Y-54063333D02*
X65550057Y-54110952D01*
X65550057Y-54110952D02*
X65502438Y-54158571D01*
X65502438Y-54158571D02*
X65454819Y-54253809D01*
X65454819Y-54253809D02*
X65454819Y-54444285D01*
X65454819Y-54444285D02*
X65502438Y-54539523D01*
X65502438Y-54539523D02*
X65550057Y-54587142D01*
X65550057Y-54587142D02*
X65645295Y-54634761D01*
X65645295Y-54634761D02*
X65883390Y-54634761D01*
X65883390Y-54634761D02*
X65978628Y-54587142D01*
X65978628Y-54587142D02*
X66026247Y-54539523D01*
X66026247Y-54539523D02*
X66073866Y-54444285D01*
X66073866Y-54444285D02*
X66073866Y-54253809D01*
X66073866Y-54253809D02*
X66026247Y-54158571D01*
X66026247Y-54158571D02*
X65978628Y-54110952D01*
X65978628Y-54110952D02*
X65883390Y-54063333D01*
X38447200Y-180183332D02*
X38494819Y-180040475D01*
X38494819Y-180040475D02*
X38494819Y-179802380D01*
X38494819Y-179802380D02*
X38447200Y-179707142D01*
X38447200Y-179707142D02*
X38399580Y-179659523D01*
X38399580Y-179659523D02*
X38304342Y-179611904D01*
X38304342Y-179611904D02*
X38209104Y-179611904D01*
X38209104Y-179611904D02*
X38113866Y-179659523D01*
X38113866Y-179659523D02*
X38066247Y-179707142D01*
X38066247Y-179707142D02*
X38018628Y-179802380D01*
X38018628Y-179802380D02*
X37971009Y-179992856D01*
X37971009Y-179992856D02*
X37923390Y-180088094D01*
X37923390Y-180088094D02*
X37875771Y-180135713D01*
X37875771Y-180135713D02*
X37780533Y-180183332D01*
X37780533Y-180183332D02*
X37685295Y-180183332D01*
X37685295Y-180183332D02*
X37590057Y-180135713D01*
X37590057Y-180135713D02*
X37542438Y-180088094D01*
X37542438Y-180088094D02*
X37494819Y-179992856D01*
X37494819Y-179992856D02*
X37494819Y-179754761D01*
X37494819Y-179754761D02*
X37542438Y-179611904D01*
X37494819Y-179278570D02*
X38494819Y-179040475D01*
X38494819Y-179040475D02*
X37780533Y-178849999D01*
X37780533Y-178849999D02*
X38494819Y-178659523D01*
X38494819Y-178659523D02*
X37494819Y-178421428D01*
X38494819Y-177516666D02*
X38494819Y-178088094D01*
X38494819Y-177802380D02*
X37494819Y-177802380D01*
X37494819Y-177802380D02*
X37637676Y-177897618D01*
X37637676Y-177897618D02*
X37732914Y-177992856D01*
X37732914Y-177992856D02*
X37780533Y-178088094D01*
X145996666Y-103454819D02*
X145996666Y-104169104D01*
X145996666Y-104169104D02*
X145949047Y-104311961D01*
X145949047Y-104311961D02*
X145853809Y-104407200D01*
X145853809Y-104407200D02*
X145710952Y-104454819D01*
X145710952Y-104454819D02*
X145615714Y-104454819D01*
X146377619Y-103454819D02*
X146996666Y-103454819D01*
X146996666Y-103454819D02*
X146663333Y-103835771D01*
X146663333Y-103835771D02*
X146806190Y-103835771D01*
X146806190Y-103835771D02*
X146901428Y-103883390D01*
X146901428Y-103883390D02*
X146949047Y-103931009D01*
X146949047Y-103931009D02*
X146996666Y-104026247D01*
X146996666Y-104026247D02*
X146996666Y-104264342D01*
X146996666Y-104264342D02*
X146949047Y-104359580D01*
X146949047Y-104359580D02*
X146901428Y-104407200D01*
X146901428Y-104407200D02*
X146806190Y-104454819D01*
X146806190Y-104454819D02*
X146520476Y-104454819D01*
X146520476Y-104454819D02*
X146425238Y-104407200D01*
X146425238Y-104407200D02*
X146377619Y-104359580D01*
D12*
X75717857Y-92881927D02*
X75584524Y-92691451D01*
X75489286Y-92881927D02*
X75489286Y-92481927D01*
X75489286Y-92481927D02*
X75641667Y-92481927D01*
X75641667Y-92481927D02*
X75679762Y-92500975D01*
X75679762Y-92500975D02*
X75698809Y-92520022D01*
X75698809Y-92520022D02*
X75717857Y-92558118D01*
X75717857Y-92558118D02*
X75717857Y-92615260D01*
X75717857Y-92615260D02*
X75698809Y-92653356D01*
X75698809Y-92653356D02*
X75679762Y-92672403D01*
X75679762Y-92672403D02*
X75641667Y-92691451D01*
X75641667Y-92691451D02*
X75489286Y-92691451D01*
X76098809Y-92881927D02*
X75870238Y-92881927D01*
X75984524Y-92881927D02*
X75984524Y-92481927D01*
X75984524Y-92481927D02*
X75946428Y-92539070D01*
X75946428Y-92539070D02*
X75908333Y-92577165D01*
X75908333Y-92577165D02*
X75870238Y-92596213D01*
X76460714Y-92481927D02*
X76270238Y-92481927D01*
X76270238Y-92481927D02*
X76251190Y-92672403D01*
X76251190Y-92672403D02*
X76270238Y-92653356D01*
X76270238Y-92653356D02*
X76308333Y-92634308D01*
X76308333Y-92634308D02*
X76403571Y-92634308D01*
X76403571Y-92634308D02*
X76441666Y-92653356D01*
X76441666Y-92653356D02*
X76460714Y-92672403D01*
X76460714Y-92672403D02*
X76479761Y-92710499D01*
X76479761Y-92710499D02*
X76479761Y-92805737D01*
X76479761Y-92805737D02*
X76460714Y-92843832D01*
X76460714Y-92843832D02*
X76441666Y-92862880D01*
X76441666Y-92862880D02*
X76403571Y-92881927D01*
X76403571Y-92881927D02*
X76308333Y-92881927D01*
X76308333Y-92881927D02*
X76270238Y-92862880D01*
X76270238Y-92862880D02*
X76251190Y-92843832D01*
D11*
X76150914Y-82610476D02*
X76135676Y-82640952D01*
X76135676Y-82640952D02*
X76105200Y-82671428D01*
X76105200Y-82671428D02*
X76059485Y-82717142D01*
X76059485Y-82717142D02*
X76044247Y-82747619D01*
X76044247Y-82747619D02*
X76044247Y-82778095D01*
X76120438Y-82762857D02*
X76105200Y-82793333D01*
X76105200Y-82793333D02*
X76074723Y-82823809D01*
X76074723Y-82823809D02*
X76013771Y-82839047D01*
X76013771Y-82839047D02*
X75907104Y-82839047D01*
X75907104Y-82839047D02*
X75846152Y-82823809D01*
X75846152Y-82823809D02*
X75815676Y-82793333D01*
X75815676Y-82793333D02*
X75800438Y-82762857D01*
X75800438Y-82762857D02*
X75800438Y-82701904D01*
X75800438Y-82701904D02*
X75815676Y-82671428D01*
X75815676Y-82671428D02*
X75846152Y-82640952D01*
X75846152Y-82640952D02*
X75907104Y-82625714D01*
X75907104Y-82625714D02*
X76013771Y-82625714D01*
X76013771Y-82625714D02*
X76074723Y-82640952D01*
X76074723Y-82640952D02*
X76105200Y-82671428D01*
X76105200Y-82671428D02*
X76120438Y-82701904D01*
X76120438Y-82701904D02*
X76120438Y-82762857D01*
X76120438Y-82320952D02*
X76120438Y-82503809D01*
X76120438Y-82412381D02*
X75800438Y-82412381D01*
X75800438Y-82412381D02*
X75846152Y-82442857D01*
X75846152Y-82442857D02*
X75876628Y-82473333D01*
X75876628Y-82473333D02*
X75891866Y-82503809D01*
D10*
X145996666Y-98454819D02*
X145996666Y-99169104D01*
X145996666Y-99169104D02*
X145949047Y-99311961D01*
X145949047Y-99311961D02*
X145853809Y-99407200D01*
X145853809Y-99407200D02*
X145710952Y-99454819D01*
X145710952Y-99454819D02*
X145615714Y-99454819D01*
X146901428Y-98788152D02*
X146901428Y-99454819D01*
X146663333Y-98407200D02*
X146425238Y-99121485D01*
X146425238Y-99121485D02*
X147044285Y-99121485D01*
X67833333Y-115359580D02*
X67785714Y-115407200D01*
X67785714Y-115407200D02*
X67642857Y-115454819D01*
X67642857Y-115454819D02*
X67547619Y-115454819D01*
X67547619Y-115454819D02*
X67404762Y-115407200D01*
X67404762Y-115407200D02*
X67309524Y-115311961D01*
X67309524Y-115311961D02*
X67261905Y-115216723D01*
X67261905Y-115216723D02*
X67214286Y-115026247D01*
X67214286Y-115026247D02*
X67214286Y-114883390D01*
X67214286Y-114883390D02*
X67261905Y-114692914D01*
X67261905Y-114692914D02*
X67309524Y-114597676D01*
X67309524Y-114597676D02*
X67404762Y-114502438D01*
X67404762Y-114502438D02*
X67547619Y-114454819D01*
X67547619Y-114454819D02*
X67642857Y-114454819D01*
X67642857Y-114454819D02*
X67785714Y-114502438D01*
X67785714Y-114502438D02*
X67833333Y-114550057D01*
X68690476Y-114454819D02*
X68500000Y-114454819D01*
X68500000Y-114454819D02*
X68404762Y-114502438D01*
X68404762Y-114502438D02*
X68357143Y-114550057D01*
X68357143Y-114550057D02*
X68261905Y-114692914D01*
X68261905Y-114692914D02*
X68214286Y-114883390D01*
X68214286Y-114883390D02*
X68214286Y-115264342D01*
X68214286Y-115264342D02*
X68261905Y-115359580D01*
X68261905Y-115359580D02*
X68309524Y-115407200D01*
X68309524Y-115407200D02*
X68404762Y-115454819D01*
X68404762Y-115454819D02*
X68595238Y-115454819D01*
X68595238Y-115454819D02*
X68690476Y-115407200D01*
X68690476Y-115407200D02*
X68738095Y-115359580D01*
X68738095Y-115359580D02*
X68785714Y-115264342D01*
X68785714Y-115264342D02*
X68785714Y-115026247D01*
X68785714Y-115026247D02*
X68738095Y-114931009D01*
X68738095Y-114931009D02*
X68690476Y-114883390D01*
X68690476Y-114883390D02*
X68595238Y-114835771D01*
X68595238Y-114835771D02*
X68404762Y-114835771D01*
X68404762Y-114835771D02*
X68309524Y-114883390D01*
X68309524Y-114883390D02*
X68261905Y-114931009D01*
X68261905Y-114931009D02*
X68214286Y-115026247D01*
D12*
X55717857Y-85761927D02*
X55584524Y-85571451D01*
X55489286Y-85761927D02*
X55489286Y-85361927D01*
X55489286Y-85361927D02*
X55641667Y-85361927D01*
X55641667Y-85361927D02*
X55679762Y-85380975D01*
X55679762Y-85380975D02*
X55698809Y-85400022D01*
X55698809Y-85400022D02*
X55717857Y-85438118D01*
X55717857Y-85438118D02*
X55717857Y-85495260D01*
X55717857Y-85495260D02*
X55698809Y-85533356D01*
X55698809Y-85533356D02*
X55679762Y-85552403D01*
X55679762Y-85552403D02*
X55641667Y-85571451D01*
X55641667Y-85571451D02*
X55489286Y-85571451D01*
X56098809Y-85761927D02*
X55870238Y-85761927D01*
X55984524Y-85761927D02*
X55984524Y-85361927D01*
X55984524Y-85361927D02*
X55946428Y-85419070D01*
X55946428Y-85419070D02*
X55908333Y-85457165D01*
X55908333Y-85457165D02*
X55870238Y-85476213D01*
X56479761Y-85761927D02*
X56251190Y-85761927D01*
X56365476Y-85761927D02*
X56365476Y-85361927D01*
X56365476Y-85361927D02*
X56327380Y-85419070D01*
X56327380Y-85419070D02*
X56289285Y-85457165D01*
X56289285Y-85457165D02*
X56251190Y-85476213D01*
D10*
X134666666Y-48454819D02*
X134333333Y-47978628D01*
X134095238Y-48454819D02*
X134095238Y-47454819D01*
X134095238Y-47454819D02*
X134476190Y-47454819D01*
X134476190Y-47454819D02*
X134571428Y-47502438D01*
X134571428Y-47502438D02*
X134619047Y-47550057D01*
X134619047Y-47550057D02*
X134666666Y-47645295D01*
X134666666Y-47645295D02*
X134666666Y-47788152D01*
X134666666Y-47788152D02*
X134619047Y-47883390D01*
X134619047Y-47883390D02*
X134571428Y-47931009D01*
X134571428Y-47931009D02*
X134476190Y-47978628D01*
X134476190Y-47978628D02*
X134095238Y-47978628D01*
X135095238Y-47931009D02*
X135428571Y-47931009D01*
X135571428Y-48454819D02*
X135095238Y-48454819D01*
X135095238Y-48454819D02*
X135095238Y-47454819D01*
X135095238Y-47454819D02*
X135571428Y-47454819D01*
X136333333Y-47931009D02*
X136000000Y-47931009D01*
X136000000Y-48454819D02*
X136000000Y-47454819D01*
X136000000Y-47454819D02*
X136476190Y-47454819D01*
X137000000Y-47454819D02*
X137000000Y-47692914D01*
X136761905Y-47597676D02*
X137000000Y-47692914D01*
X137000000Y-47692914D02*
X137238095Y-47597676D01*
X136857143Y-47883390D02*
X137000000Y-47692914D01*
X137000000Y-47692914D02*
X137142857Y-47883390D01*
X137761905Y-47454819D02*
X137761905Y-47692914D01*
X137523810Y-47597676D02*
X137761905Y-47692914D01*
X137761905Y-47692914D02*
X138000000Y-47597676D01*
X137619048Y-47883390D02*
X137761905Y-47692914D01*
X137761905Y-47692914D02*
X137904762Y-47883390D01*
D12*
X75908333Y-85761927D02*
X75775000Y-85571451D01*
X75679762Y-85761927D02*
X75679762Y-85361927D01*
X75679762Y-85361927D02*
X75832143Y-85361927D01*
X75832143Y-85361927D02*
X75870238Y-85380975D01*
X75870238Y-85380975D02*
X75889285Y-85400022D01*
X75889285Y-85400022D02*
X75908333Y-85438118D01*
X75908333Y-85438118D02*
X75908333Y-85495260D01*
X75908333Y-85495260D02*
X75889285Y-85533356D01*
X75889285Y-85533356D02*
X75870238Y-85552403D01*
X75870238Y-85552403D02*
X75832143Y-85571451D01*
X75832143Y-85571451D02*
X75679762Y-85571451D01*
X76136904Y-85533356D02*
X76098809Y-85514308D01*
X76098809Y-85514308D02*
X76079762Y-85495260D01*
X76079762Y-85495260D02*
X76060714Y-85457165D01*
X76060714Y-85457165D02*
X76060714Y-85438118D01*
X76060714Y-85438118D02*
X76079762Y-85400022D01*
X76079762Y-85400022D02*
X76098809Y-85380975D01*
X76098809Y-85380975D02*
X76136904Y-85361927D01*
X76136904Y-85361927D02*
X76213095Y-85361927D01*
X76213095Y-85361927D02*
X76251190Y-85380975D01*
X76251190Y-85380975D02*
X76270238Y-85400022D01*
X76270238Y-85400022D02*
X76289285Y-85438118D01*
X76289285Y-85438118D02*
X76289285Y-85457165D01*
X76289285Y-85457165D02*
X76270238Y-85495260D01*
X76270238Y-85495260D02*
X76251190Y-85514308D01*
X76251190Y-85514308D02*
X76213095Y-85533356D01*
X76213095Y-85533356D02*
X76136904Y-85533356D01*
X76136904Y-85533356D02*
X76098809Y-85552403D01*
X76098809Y-85552403D02*
X76079762Y-85571451D01*
X76079762Y-85571451D02*
X76060714Y-85609546D01*
X76060714Y-85609546D02*
X76060714Y-85685737D01*
X76060714Y-85685737D02*
X76079762Y-85723832D01*
X76079762Y-85723832D02*
X76098809Y-85742880D01*
X76098809Y-85742880D02*
X76136904Y-85761927D01*
X76136904Y-85761927D02*
X76213095Y-85761927D01*
X76213095Y-85761927D02*
X76251190Y-85742880D01*
X76251190Y-85742880D02*
X76270238Y-85723832D01*
X76270238Y-85723832D02*
X76289285Y-85685737D01*
X76289285Y-85685737D02*
X76289285Y-85609546D01*
X76289285Y-85609546D02*
X76270238Y-85571451D01*
X76270238Y-85571451D02*
X76251190Y-85552403D01*
X76251190Y-85552403D02*
X76213095Y-85533356D01*
D11*
X106175914Y-82182857D02*
X106160676Y-82213333D01*
X106160676Y-82213333D02*
X106130200Y-82243809D01*
X106130200Y-82243809D02*
X106084485Y-82289523D01*
X106084485Y-82289523D02*
X106069247Y-82320000D01*
X106069247Y-82320000D02*
X106069247Y-82350476D01*
X106145438Y-82335238D02*
X106130200Y-82365714D01*
X106130200Y-82365714D02*
X106099723Y-82396190D01*
X106099723Y-82396190D02*
X106038771Y-82411428D01*
X106038771Y-82411428D02*
X105932104Y-82411428D01*
X105932104Y-82411428D02*
X105871152Y-82396190D01*
X105871152Y-82396190D02*
X105840676Y-82365714D01*
X105840676Y-82365714D02*
X105825438Y-82335238D01*
X105825438Y-82335238D02*
X105825438Y-82274285D01*
X105825438Y-82274285D02*
X105840676Y-82243809D01*
X105840676Y-82243809D02*
X105871152Y-82213333D01*
X105871152Y-82213333D02*
X105932104Y-82198095D01*
X105932104Y-82198095D02*
X106038771Y-82198095D01*
X106038771Y-82198095D02*
X106099723Y-82213333D01*
X106099723Y-82213333D02*
X106130200Y-82243809D01*
X106130200Y-82243809D02*
X106145438Y-82274285D01*
X106145438Y-82274285D02*
X106145438Y-82335238D01*
X106145438Y-81893333D02*
X106145438Y-82076190D01*
X106145438Y-81984762D02*
X105825438Y-81984762D01*
X105825438Y-81984762D02*
X105871152Y-82015238D01*
X105871152Y-82015238D02*
X105901628Y-82045714D01*
X105901628Y-82045714D02*
X105916866Y-82076190D01*
X105855914Y-81771428D02*
X105840676Y-81756190D01*
X105840676Y-81756190D02*
X105825438Y-81725714D01*
X105825438Y-81725714D02*
X105825438Y-81649523D01*
X105825438Y-81649523D02*
X105840676Y-81619047D01*
X105840676Y-81619047D02*
X105855914Y-81603809D01*
X105855914Y-81603809D02*
X105886390Y-81588571D01*
X105886390Y-81588571D02*
X105916866Y-81588571D01*
X105916866Y-81588571D02*
X105962580Y-81603809D01*
X105962580Y-81603809D02*
X106145438Y-81786666D01*
X106145438Y-81786666D02*
X106145438Y-81588571D01*
D10*
X146186666Y-81454819D02*
X146186666Y-82169104D01*
X146186666Y-82169104D02*
X146139047Y-82311961D01*
X146139047Y-82311961D02*
X146043809Y-82407200D01*
X146043809Y-82407200D02*
X145900952Y-82454819D01*
X145900952Y-82454819D02*
X145805714Y-82454819D01*
X147139047Y-81454819D02*
X146662857Y-81454819D01*
X146662857Y-81454819D02*
X146615238Y-81931009D01*
X146615238Y-81931009D02*
X146662857Y-81883390D01*
X146662857Y-81883390D02*
X146758095Y-81835771D01*
X146758095Y-81835771D02*
X146996190Y-81835771D01*
X146996190Y-81835771D02*
X147091428Y-81883390D01*
X147091428Y-81883390D02*
X147139047Y-81931009D01*
X147139047Y-81931009D02*
X147186666Y-82026247D01*
X147186666Y-82026247D02*
X147186666Y-82264342D01*
X147186666Y-82264342D02*
X147139047Y-82359580D01*
X147139047Y-82359580D02*
X147091428Y-82407200D01*
X147091428Y-82407200D02*
X146996190Y-82454819D01*
X146996190Y-82454819D02*
X146758095Y-82454819D01*
X146758095Y-82454819D02*
X146662857Y-82407200D01*
X146662857Y-82407200D02*
X146615238Y-82359580D01*
D12*
X138181927Y-88066666D02*
X137991451Y-88199999D01*
X138181927Y-88295237D02*
X137781927Y-88295237D01*
X137781927Y-88295237D02*
X137781927Y-88142856D01*
X137781927Y-88142856D02*
X137800975Y-88104761D01*
X137800975Y-88104761D02*
X137820022Y-88085714D01*
X137820022Y-88085714D02*
X137858118Y-88066666D01*
X137858118Y-88066666D02*
X137915260Y-88066666D01*
X137915260Y-88066666D02*
X137953356Y-88085714D01*
X137953356Y-88085714D02*
X137972403Y-88104761D01*
X137972403Y-88104761D02*
X137991451Y-88142856D01*
X137991451Y-88142856D02*
X137991451Y-88295237D01*
X138181927Y-87685714D02*
X138181927Y-87914285D01*
X138181927Y-87799999D02*
X137781927Y-87799999D01*
X137781927Y-87799999D02*
X137839070Y-87838095D01*
X137839070Y-87838095D02*
X137877165Y-87876190D01*
X137877165Y-87876190D02*
X137896213Y-87914285D01*
D10*
X141650476Y-178224819D02*
X141650476Y-178939104D01*
X141650476Y-178939104D02*
X141602857Y-179081961D01*
X141602857Y-179081961D02*
X141507619Y-179177200D01*
X141507619Y-179177200D02*
X141364762Y-179224819D01*
X141364762Y-179224819D02*
X141269524Y-179224819D01*
X142650476Y-179224819D02*
X142079048Y-179224819D01*
X142364762Y-179224819D02*
X142364762Y-178224819D01*
X142364762Y-178224819D02*
X142269524Y-178367676D01*
X142269524Y-178367676D02*
X142174286Y-178462914D01*
X142174286Y-178462914D02*
X142079048Y-178510533D01*
X143221905Y-178653390D02*
X143126667Y-178605771D01*
X143126667Y-178605771D02*
X143079048Y-178558152D01*
X143079048Y-178558152D02*
X143031429Y-178462914D01*
X143031429Y-178462914D02*
X143031429Y-178415295D01*
X143031429Y-178415295D02*
X143079048Y-178320057D01*
X143079048Y-178320057D02*
X143126667Y-178272438D01*
X143126667Y-178272438D02*
X143221905Y-178224819D01*
X143221905Y-178224819D02*
X143412381Y-178224819D01*
X143412381Y-178224819D02*
X143507619Y-178272438D01*
X143507619Y-178272438D02*
X143555238Y-178320057D01*
X143555238Y-178320057D02*
X143602857Y-178415295D01*
X143602857Y-178415295D02*
X143602857Y-178462914D01*
X143602857Y-178462914D02*
X143555238Y-178558152D01*
X143555238Y-178558152D02*
X143507619Y-178605771D01*
X143507619Y-178605771D02*
X143412381Y-178653390D01*
X143412381Y-178653390D02*
X143221905Y-178653390D01*
X143221905Y-178653390D02*
X143126667Y-178701009D01*
X143126667Y-178701009D02*
X143079048Y-178748628D01*
X143079048Y-178748628D02*
X143031429Y-178843866D01*
X143031429Y-178843866D02*
X143031429Y-179034342D01*
X143031429Y-179034342D02*
X143079048Y-179129580D01*
X143079048Y-179129580D02*
X143126667Y-179177200D01*
X143126667Y-179177200D02*
X143221905Y-179224819D01*
X143221905Y-179224819D02*
X143412381Y-179224819D01*
X143412381Y-179224819D02*
X143507619Y-179177200D01*
X143507619Y-179177200D02*
X143555238Y-179129580D01*
X143555238Y-179129580D02*
X143602857Y-179034342D01*
X143602857Y-179034342D02*
X143602857Y-178843866D01*
X143602857Y-178843866D02*
X143555238Y-178748628D01*
X143555238Y-178748628D02*
X143507619Y-178701009D01*
X143507619Y-178701009D02*
X143412381Y-178653390D01*
X145996666Y-108454819D02*
X145996666Y-109169104D01*
X145996666Y-109169104D02*
X145949047Y-109311961D01*
X145949047Y-109311961D02*
X145853809Y-109407200D01*
X145853809Y-109407200D02*
X145710952Y-109454819D01*
X145710952Y-109454819D02*
X145615714Y-109454819D01*
X146425238Y-108550057D02*
X146472857Y-108502438D01*
X146472857Y-108502438D02*
X146568095Y-108454819D01*
X146568095Y-108454819D02*
X146806190Y-108454819D01*
X146806190Y-108454819D02*
X146901428Y-108502438D01*
X146901428Y-108502438D02*
X146949047Y-108550057D01*
X146949047Y-108550057D02*
X146996666Y-108645295D01*
X146996666Y-108645295D02*
X146996666Y-108740533D01*
X146996666Y-108740533D02*
X146949047Y-108883390D01*
X146949047Y-108883390D02*
X146377619Y-109454819D01*
X146377619Y-109454819D02*
X146996666Y-109454819D01*
D12*
X136181927Y-88066666D02*
X135991451Y-88199999D01*
X136181927Y-88295237D02*
X135781927Y-88295237D01*
X135781927Y-88295237D02*
X135781927Y-88142856D01*
X135781927Y-88142856D02*
X135800975Y-88104761D01*
X135800975Y-88104761D02*
X135820022Y-88085714D01*
X135820022Y-88085714D02*
X135858118Y-88066666D01*
X135858118Y-88066666D02*
X135915260Y-88066666D01*
X135915260Y-88066666D02*
X135953356Y-88085714D01*
X135953356Y-88085714D02*
X135972403Y-88104761D01*
X135972403Y-88104761D02*
X135991451Y-88142856D01*
X135991451Y-88142856D02*
X135991451Y-88295237D01*
X135915260Y-87723809D02*
X136181927Y-87723809D01*
X135762880Y-87819047D02*
X136048594Y-87914285D01*
X136048594Y-87914285D02*
X136048594Y-87666666D01*
D11*
X46150914Y-89730476D02*
X46135676Y-89760952D01*
X46135676Y-89760952D02*
X46105200Y-89791428D01*
X46105200Y-89791428D02*
X46059485Y-89837142D01*
X46059485Y-89837142D02*
X46044247Y-89867619D01*
X46044247Y-89867619D02*
X46044247Y-89898095D01*
X46120438Y-89882857D02*
X46105200Y-89913333D01*
X46105200Y-89913333D02*
X46074723Y-89943809D01*
X46074723Y-89943809D02*
X46013771Y-89959047D01*
X46013771Y-89959047D02*
X45907104Y-89959047D01*
X45907104Y-89959047D02*
X45846152Y-89943809D01*
X45846152Y-89943809D02*
X45815676Y-89913333D01*
X45815676Y-89913333D02*
X45800438Y-89882857D01*
X45800438Y-89882857D02*
X45800438Y-89821904D01*
X45800438Y-89821904D02*
X45815676Y-89791428D01*
X45815676Y-89791428D02*
X45846152Y-89760952D01*
X45846152Y-89760952D02*
X45907104Y-89745714D01*
X45907104Y-89745714D02*
X46013771Y-89745714D01*
X46013771Y-89745714D02*
X46074723Y-89760952D01*
X46074723Y-89760952D02*
X46105200Y-89791428D01*
X46105200Y-89791428D02*
X46120438Y-89821904D01*
X46120438Y-89821904D02*
X46120438Y-89882857D01*
X45937580Y-89562857D02*
X45922342Y-89593333D01*
X45922342Y-89593333D02*
X45907104Y-89608571D01*
X45907104Y-89608571D02*
X45876628Y-89623809D01*
X45876628Y-89623809D02*
X45861390Y-89623809D01*
X45861390Y-89623809D02*
X45830914Y-89608571D01*
X45830914Y-89608571D02*
X45815676Y-89593333D01*
X45815676Y-89593333D02*
X45800438Y-89562857D01*
X45800438Y-89562857D02*
X45800438Y-89501904D01*
X45800438Y-89501904D02*
X45815676Y-89471428D01*
X45815676Y-89471428D02*
X45830914Y-89456190D01*
X45830914Y-89456190D02*
X45861390Y-89440952D01*
X45861390Y-89440952D02*
X45876628Y-89440952D01*
X45876628Y-89440952D02*
X45907104Y-89456190D01*
X45907104Y-89456190D02*
X45922342Y-89471428D01*
X45922342Y-89471428D02*
X45937580Y-89501904D01*
X45937580Y-89501904D02*
X45937580Y-89562857D01*
X45937580Y-89562857D02*
X45952819Y-89593333D01*
X45952819Y-89593333D02*
X45968057Y-89608571D01*
X45968057Y-89608571D02*
X45998533Y-89623809D01*
X45998533Y-89623809D02*
X46059485Y-89623809D01*
X46059485Y-89623809D02*
X46089961Y-89608571D01*
X46089961Y-89608571D02*
X46105200Y-89593333D01*
X46105200Y-89593333D02*
X46120438Y-89562857D01*
X46120438Y-89562857D02*
X46120438Y-89501904D01*
X46120438Y-89501904D02*
X46105200Y-89471428D01*
X46105200Y-89471428D02*
X46089961Y-89456190D01*
X46089961Y-89456190D02*
X46059485Y-89440952D01*
X46059485Y-89440952D02*
X45998533Y-89440952D01*
X45998533Y-89440952D02*
X45968057Y-89456190D01*
X45968057Y-89456190D02*
X45952819Y-89471428D01*
X45952819Y-89471428D02*
X45937580Y-89501904D01*
D12*
X125143832Y-134816666D02*
X125162880Y-134835714D01*
X125162880Y-134835714D02*
X125181927Y-134892856D01*
X125181927Y-134892856D02*
X125181927Y-134930952D01*
X125181927Y-134930952D02*
X125162880Y-134988095D01*
X125162880Y-134988095D02*
X125124784Y-135026190D01*
X125124784Y-135026190D02*
X125086689Y-135045237D01*
X125086689Y-135045237D02*
X125010499Y-135064285D01*
X125010499Y-135064285D02*
X124953356Y-135064285D01*
X124953356Y-135064285D02*
X124877165Y-135045237D01*
X124877165Y-135045237D02*
X124839070Y-135026190D01*
X124839070Y-135026190D02*
X124800975Y-134988095D01*
X124800975Y-134988095D02*
X124781927Y-134930952D01*
X124781927Y-134930952D02*
X124781927Y-134892856D01*
X124781927Y-134892856D02*
X124800975Y-134835714D01*
X124800975Y-134835714D02*
X124820022Y-134816666D01*
X125181927Y-134435714D02*
X125181927Y-134664285D01*
X125181927Y-134549999D02*
X124781927Y-134549999D01*
X124781927Y-134549999D02*
X124839070Y-134588095D01*
X124839070Y-134588095D02*
X124877165Y-134626190D01*
X124877165Y-134626190D02*
X124896213Y-134664285D01*
X45717857Y-92881927D02*
X45584524Y-92691451D01*
X45489286Y-92881927D02*
X45489286Y-92481927D01*
X45489286Y-92481927D02*
X45641667Y-92481927D01*
X45641667Y-92481927D02*
X45679762Y-92500975D01*
X45679762Y-92500975D02*
X45698809Y-92520022D01*
X45698809Y-92520022D02*
X45717857Y-92558118D01*
X45717857Y-92558118D02*
X45717857Y-92615260D01*
X45717857Y-92615260D02*
X45698809Y-92653356D01*
X45698809Y-92653356D02*
X45679762Y-92672403D01*
X45679762Y-92672403D02*
X45641667Y-92691451D01*
X45641667Y-92691451D02*
X45489286Y-92691451D01*
X46098809Y-92881927D02*
X45870238Y-92881927D01*
X45984524Y-92881927D02*
X45984524Y-92481927D01*
X45984524Y-92481927D02*
X45946428Y-92539070D01*
X45946428Y-92539070D02*
X45908333Y-92577165D01*
X45908333Y-92577165D02*
X45870238Y-92596213D01*
X46327380Y-92653356D02*
X46289285Y-92634308D01*
X46289285Y-92634308D02*
X46270238Y-92615260D01*
X46270238Y-92615260D02*
X46251190Y-92577165D01*
X46251190Y-92577165D02*
X46251190Y-92558118D01*
X46251190Y-92558118D02*
X46270238Y-92520022D01*
X46270238Y-92520022D02*
X46289285Y-92500975D01*
X46289285Y-92500975D02*
X46327380Y-92481927D01*
X46327380Y-92481927D02*
X46403571Y-92481927D01*
X46403571Y-92481927D02*
X46441666Y-92500975D01*
X46441666Y-92500975D02*
X46460714Y-92520022D01*
X46460714Y-92520022D02*
X46479761Y-92558118D01*
X46479761Y-92558118D02*
X46479761Y-92577165D01*
X46479761Y-92577165D02*
X46460714Y-92615260D01*
X46460714Y-92615260D02*
X46441666Y-92634308D01*
X46441666Y-92634308D02*
X46403571Y-92653356D01*
X46403571Y-92653356D02*
X46327380Y-92653356D01*
X46327380Y-92653356D02*
X46289285Y-92672403D01*
X46289285Y-92672403D02*
X46270238Y-92691451D01*
X46270238Y-92691451D02*
X46251190Y-92729546D01*
X46251190Y-92729546D02*
X46251190Y-92805737D01*
X46251190Y-92805737D02*
X46270238Y-92843832D01*
X46270238Y-92843832D02*
X46289285Y-92862880D01*
X46289285Y-92862880D02*
X46327380Y-92881927D01*
X46327380Y-92881927D02*
X46403571Y-92881927D01*
X46403571Y-92881927D02*
X46441666Y-92862880D01*
X46441666Y-92862880D02*
X46460714Y-92843832D01*
X46460714Y-92843832D02*
X46479761Y-92805737D01*
X46479761Y-92805737D02*
X46479761Y-92729546D01*
X46479761Y-92729546D02*
X46460714Y-92691451D01*
X46460714Y-92691451D02*
X46441666Y-92672403D01*
X46441666Y-92672403D02*
X46403571Y-92653356D01*
D10*
X98261905Y-79954819D02*
X98261905Y-78954819D01*
X98261905Y-78954819D02*
X98500000Y-78954819D01*
X98500000Y-78954819D02*
X98642857Y-79002438D01*
X98642857Y-79002438D02*
X98738095Y-79097676D01*
X98738095Y-79097676D02*
X98785714Y-79192914D01*
X98785714Y-79192914D02*
X98833333Y-79383390D01*
X98833333Y-79383390D02*
X98833333Y-79526247D01*
X98833333Y-79526247D02*
X98785714Y-79716723D01*
X98785714Y-79716723D02*
X98738095Y-79811961D01*
X98738095Y-79811961D02*
X98642857Y-79907200D01*
X98642857Y-79907200D02*
X98500000Y-79954819D01*
X98500000Y-79954819D02*
X98261905Y-79954819D01*
X99214286Y-79050057D02*
X99261905Y-79002438D01*
X99261905Y-79002438D02*
X99357143Y-78954819D01*
X99357143Y-78954819D02*
X99595238Y-78954819D01*
X99595238Y-78954819D02*
X99690476Y-79002438D01*
X99690476Y-79002438D02*
X99738095Y-79050057D01*
X99738095Y-79050057D02*
X99785714Y-79145295D01*
X99785714Y-79145295D02*
X99785714Y-79240533D01*
X99785714Y-79240533D02*
X99738095Y-79383390D01*
X99738095Y-79383390D02*
X99166667Y-79954819D01*
X99166667Y-79954819D02*
X99785714Y-79954819D01*
D12*
X136931927Y-71316666D02*
X136741451Y-71449999D01*
X136931927Y-71545237D02*
X136531927Y-71545237D01*
X136531927Y-71545237D02*
X136531927Y-71392856D01*
X136531927Y-71392856D02*
X136550975Y-71354761D01*
X136550975Y-71354761D02*
X136570022Y-71335714D01*
X136570022Y-71335714D02*
X136608118Y-71316666D01*
X136608118Y-71316666D02*
X136665260Y-71316666D01*
X136665260Y-71316666D02*
X136703356Y-71335714D01*
X136703356Y-71335714D02*
X136722403Y-71354761D01*
X136722403Y-71354761D02*
X136741451Y-71392856D01*
X136741451Y-71392856D02*
X136741451Y-71545237D01*
X136531927Y-70973809D02*
X136531927Y-71049999D01*
X136531927Y-71049999D02*
X136550975Y-71088095D01*
X136550975Y-71088095D02*
X136570022Y-71107142D01*
X136570022Y-71107142D02*
X136627165Y-71145237D01*
X136627165Y-71145237D02*
X136703356Y-71164285D01*
X136703356Y-71164285D02*
X136855737Y-71164285D01*
X136855737Y-71164285D02*
X136893832Y-71145237D01*
X136893832Y-71145237D02*
X136912880Y-71126190D01*
X136912880Y-71126190D02*
X136931927Y-71088095D01*
X136931927Y-71088095D02*
X136931927Y-71011904D01*
X136931927Y-71011904D02*
X136912880Y-70973809D01*
X136912880Y-70973809D02*
X136893832Y-70954761D01*
X136893832Y-70954761D02*
X136855737Y-70935714D01*
X136855737Y-70935714D02*
X136760499Y-70935714D01*
X136760499Y-70935714D02*
X136722403Y-70954761D01*
X136722403Y-70954761D02*
X136703356Y-70973809D01*
X136703356Y-70973809D02*
X136684308Y-71011904D01*
X136684308Y-71011904D02*
X136684308Y-71088095D01*
X136684308Y-71088095D02*
X136703356Y-71126190D01*
X136703356Y-71126190D02*
X136722403Y-71145237D01*
X136722403Y-71145237D02*
X136760499Y-71164285D01*
D10*
X77833333Y-115454819D02*
X77357143Y-115454819D01*
X77357143Y-115454819D02*
X77357143Y-114454819D01*
X78690476Y-115454819D02*
X78119048Y-115454819D01*
X78404762Y-115454819D02*
X78404762Y-114454819D01*
X78404762Y-114454819D02*
X78309524Y-114597676D01*
X78309524Y-114597676D02*
X78214286Y-114692914D01*
X78214286Y-114692914D02*
X78119048Y-114740533D01*
X97454819Y-59349523D02*
X98169104Y-59349523D01*
X98169104Y-59349523D02*
X98311961Y-59397142D01*
X98311961Y-59397142D02*
X98407200Y-59492380D01*
X98407200Y-59492380D02*
X98454819Y-59635237D01*
X98454819Y-59635237D02*
X98454819Y-59730475D01*
X98454819Y-58349523D02*
X98454819Y-58920951D01*
X98454819Y-58635237D02*
X97454819Y-58635237D01*
X97454819Y-58635237D02*
X97597676Y-58730475D01*
X97597676Y-58730475D02*
X97692914Y-58825713D01*
X97692914Y-58825713D02*
X97740533Y-58920951D01*
X97454819Y-57492380D02*
X97454819Y-57682856D01*
X97454819Y-57682856D02*
X97502438Y-57778094D01*
X97502438Y-57778094D02*
X97550057Y-57825713D01*
X97550057Y-57825713D02*
X97692914Y-57920951D01*
X97692914Y-57920951D02*
X97883390Y-57968570D01*
X97883390Y-57968570D02*
X98264342Y-57968570D01*
X98264342Y-57968570D02*
X98359580Y-57920951D01*
X98359580Y-57920951D02*
X98407200Y-57873332D01*
X98407200Y-57873332D02*
X98454819Y-57778094D01*
X98454819Y-57778094D02*
X98454819Y-57587618D01*
X98454819Y-57587618D02*
X98407200Y-57492380D01*
X98407200Y-57492380D02*
X98359580Y-57444761D01*
X98359580Y-57444761D02*
X98264342Y-57397142D01*
X98264342Y-57397142D02*
X98026247Y-57397142D01*
X98026247Y-57397142D02*
X97931009Y-57444761D01*
X97931009Y-57444761D02*
X97883390Y-57492380D01*
X97883390Y-57492380D02*
X97835771Y-57587618D01*
X97835771Y-57587618D02*
X97835771Y-57778094D01*
X97835771Y-57778094D02*
X97883390Y-57873332D01*
X97883390Y-57873332D02*
X97931009Y-57920951D01*
X97931009Y-57920951D02*
X98026247Y-57968570D01*
D12*
X35717857Y-92881927D02*
X35584524Y-92691451D01*
X35489286Y-92881927D02*
X35489286Y-92481927D01*
X35489286Y-92481927D02*
X35641667Y-92481927D01*
X35641667Y-92481927D02*
X35679762Y-92500975D01*
X35679762Y-92500975D02*
X35698809Y-92520022D01*
X35698809Y-92520022D02*
X35717857Y-92558118D01*
X35717857Y-92558118D02*
X35717857Y-92615260D01*
X35717857Y-92615260D02*
X35698809Y-92653356D01*
X35698809Y-92653356D02*
X35679762Y-92672403D01*
X35679762Y-92672403D02*
X35641667Y-92691451D01*
X35641667Y-92691451D02*
X35489286Y-92691451D01*
X35870238Y-92520022D02*
X35889286Y-92500975D01*
X35889286Y-92500975D02*
X35927381Y-92481927D01*
X35927381Y-92481927D02*
X36022619Y-92481927D01*
X36022619Y-92481927D02*
X36060714Y-92500975D01*
X36060714Y-92500975D02*
X36079762Y-92520022D01*
X36079762Y-92520022D02*
X36098809Y-92558118D01*
X36098809Y-92558118D02*
X36098809Y-92596213D01*
X36098809Y-92596213D02*
X36079762Y-92653356D01*
X36079762Y-92653356D02*
X35851190Y-92881927D01*
X35851190Y-92881927D02*
X36098809Y-92881927D01*
X36232142Y-92481927D02*
X36479761Y-92481927D01*
X36479761Y-92481927D02*
X36346428Y-92634308D01*
X36346428Y-92634308D02*
X36403571Y-92634308D01*
X36403571Y-92634308D02*
X36441666Y-92653356D01*
X36441666Y-92653356D02*
X36460714Y-92672403D01*
X36460714Y-92672403D02*
X36479761Y-92710499D01*
X36479761Y-92710499D02*
X36479761Y-92805737D01*
X36479761Y-92805737D02*
X36460714Y-92843832D01*
X36460714Y-92843832D02*
X36441666Y-92862880D01*
X36441666Y-92862880D02*
X36403571Y-92881927D01*
X36403571Y-92881927D02*
X36289285Y-92881927D01*
X36289285Y-92881927D02*
X36251190Y-92862880D01*
X36251190Y-92862880D02*
X36232142Y-92843832D01*
D10*
X45454819Y-55539523D02*
X46169104Y-55539523D01*
X46169104Y-55539523D02*
X46311961Y-55587142D01*
X46311961Y-55587142D02*
X46407200Y-55682380D01*
X46407200Y-55682380D02*
X46454819Y-55825237D01*
X46454819Y-55825237D02*
X46454819Y-55920475D01*
X46454819Y-54539523D02*
X46454819Y-55110951D01*
X46454819Y-54825237D02*
X45454819Y-54825237D01*
X45454819Y-54825237D02*
X45597676Y-54920475D01*
X45597676Y-54920475D02*
X45692914Y-55015713D01*
X45692914Y-55015713D02*
X45740533Y-55110951D01*
X46454819Y-53587142D02*
X46454819Y-54158570D01*
X46454819Y-53872856D02*
X45454819Y-53872856D01*
X45454819Y-53872856D02*
X45597676Y-53968094D01*
X45597676Y-53968094D02*
X45692914Y-54063332D01*
X45692914Y-54063332D02*
X45740533Y-54158570D01*
D12*
X105742857Y-86181927D02*
X105609524Y-85991451D01*
X105514286Y-86181927D02*
X105514286Y-85781927D01*
X105514286Y-85781927D02*
X105666667Y-85781927D01*
X105666667Y-85781927D02*
X105704762Y-85800975D01*
X105704762Y-85800975D02*
X105723809Y-85820022D01*
X105723809Y-85820022D02*
X105742857Y-85858118D01*
X105742857Y-85858118D02*
X105742857Y-85915260D01*
X105742857Y-85915260D02*
X105723809Y-85953356D01*
X105723809Y-85953356D02*
X105704762Y-85972403D01*
X105704762Y-85972403D02*
X105666667Y-85991451D01*
X105666667Y-85991451D02*
X105514286Y-85991451D01*
X105895238Y-85820022D02*
X105914286Y-85800975D01*
X105914286Y-85800975D02*
X105952381Y-85781927D01*
X105952381Y-85781927D02*
X106047619Y-85781927D01*
X106047619Y-85781927D02*
X106085714Y-85800975D01*
X106085714Y-85800975D02*
X106104762Y-85820022D01*
X106104762Y-85820022D02*
X106123809Y-85858118D01*
X106123809Y-85858118D02*
X106123809Y-85896213D01*
X106123809Y-85896213D02*
X106104762Y-85953356D01*
X106104762Y-85953356D02*
X105876190Y-86181927D01*
X105876190Y-86181927D02*
X106123809Y-86181927D01*
X106276190Y-85820022D02*
X106295238Y-85800975D01*
X106295238Y-85800975D02*
X106333333Y-85781927D01*
X106333333Y-85781927D02*
X106428571Y-85781927D01*
X106428571Y-85781927D02*
X106466666Y-85800975D01*
X106466666Y-85800975D02*
X106485714Y-85820022D01*
X106485714Y-85820022D02*
X106504761Y-85858118D01*
X106504761Y-85858118D02*
X106504761Y-85896213D01*
X106504761Y-85896213D02*
X106485714Y-85953356D01*
X106485714Y-85953356D02*
X106257142Y-86181927D01*
X106257142Y-86181927D02*
X106504761Y-86181927D01*
D10*
X31666666Y-48454819D02*
X31333333Y-47978628D01*
X31095238Y-48454819D02*
X31095238Y-47454819D01*
X31095238Y-47454819D02*
X31476190Y-47454819D01*
X31476190Y-47454819D02*
X31571428Y-47502438D01*
X31571428Y-47502438D02*
X31619047Y-47550057D01*
X31619047Y-47550057D02*
X31666666Y-47645295D01*
X31666666Y-47645295D02*
X31666666Y-47788152D01*
X31666666Y-47788152D02*
X31619047Y-47883390D01*
X31619047Y-47883390D02*
X31571428Y-47931009D01*
X31571428Y-47931009D02*
X31476190Y-47978628D01*
X31476190Y-47978628D02*
X31095238Y-47978628D01*
X32095238Y-47931009D02*
X32428571Y-47931009D01*
X32571428Y-48454819D02*
X32095238Y-48454819D01*
X32095238Y-48454819D02*
X32095238Y-47454819D01*
X32095238Y-47454819D02*
X32571428Y-47454819D01*
X33333333Y-47931009D02*
X33000000Y-47931009D01*
X33000000Y-48454819D02*
X33000000Y-47454819D01*
X33000000Y-47454819D02*
X33476190Y-47454819D01*
X34000000Y-47454819D02*
X34000000Y-47692914D01*
X33761905Y-47597676D02*
X34000000Y-47692914D01*
X34000000Y-47692914D02*
X34238095Y-47597676D01*
X33857143Y-47883390D02*
X34000000Y-47692914D01*
X34000000Y-47692914D02*
X34142857Y-47883390D01*
X34761905Y-47454819D02*
X34761905Y-47692914D01*
X34523810Y-47597676D02*
X34761905Y-47692914D01*
X34761905Y-47692914D02*
X35000000Y-47597676D01*
X34619048Y-47883390D02*
X34761905Y-47692914D01*
X34761905Y-47692914D02*
X34904762Y-47883390D01*
D12*
X55717857Y-92881927D02*
X55584524Y-92691451D01*
X55489286Y-92881927D02*
X55489286Y-92481927D01*
X55489286Y-92481927D02*
X55641667Y-92481927D01*
X55641667Y-92481927D02*
X55679762Y-92500975D01*
X55679762Y-92500975D02*
X55698809Y-92520022D01*
X55698809Y-92520022D02*
X55717857Y-92558118D01*
X55717857Y-92558118D02*
X55717857Y-92615260D01*
X55717857Y-92615260D02*
X55698809Y-92653356D01*
X55698809Y-92653356D02*
X55679762Y-92672403D01*
X55679762Y-92672403D02*
X55641667Y-92691451D01*
X55641667Y-92691451D02*
X55489286Y-92691451D01*
X56098809Y-92881927D02*
X55870238Y-92881927D01*
X55984524Y-92881927D02*
X55984524Y-92481927D01*
X55984524Y-92481927D02*
X55946428Y-92539070D01*
X55946428Y-92539070D02*
X55908333Y-92577165D01*
X55908333Y-92577165D02*
X55870238Y-92596213D01*
X56232142Y-92481927D02*
X56498809Y-92481927D01*
X56498809Y-92481927D02*
X56327380Y-92881927D01*
D13*
X116214285Y-108433609D02*
X116357142Y-108481228D01*
X116357142Y-108481228D02*
X116404761Y-108528847D01*
X116404761Y-108528847D02*
X116452380Y-108624085D01*
X116452380Y-108624085D02*
X116452380Y-108766942D01*
X116452380Y-108766942D02*
X116404761Y-108862180D01*
X116404761Y-108862180D02*
X116357142Y-108909800D01*
X116357142Y-108909800D02*
X116261904Y-108957419D01*
X116261904Y-108957419D02*
X115880952Y-108957419D01*
X115880952Y-108957419D02*
X115880952Y-107957419D01*
X115880952Y-107957419D02*
X116214285Y-107957419D01*
X116214285Y-107957419D02*
X116309523Y-108005038D01*
X116309523Y-108005038D02*
X116357142Y-108052657D01*
X116357142Y-108052657D02*
X116404761Y-108147895D01*
X116404761Y-108147895D02*
X116404761Y-108243133D01*
X116404761Y-108243133D02*
X116357142Y-108338371D01*
X116357142Y-108338371D02*
X116309523Y-108385990D01*
X116309523Y-108385990D02*
X116214285Y-108433609D01*
X116214285Y-108433609D02*
X115880952Y-108433609D01*
X116738095Y-107957419D02*
X117309523Y-107957419D01*
X117023809Y-108957419D02*
X117023809Y-107957419D01*
X118166666Y-108957419D02*
X117595238Y-108957419D01*
X117880952Y-108957419D02*
X117880952Y-107957419D01*
X117880952Y-107957419D02*
X117785714Y-108100276D01*
X117785714Y-108100276D02*
X117690476Y-108195514D01*
X117690476Y-108195514D02*
X117595238Y-108243133D01*
D10*
X114166667Y-171113200D02*
X114309524Y-171160819D01*
X114309524Y-171160819D02*
X114547619Y-171160819D01*
X114547619Y-171160819D02*
X114642857Y-171113200D01*
X114642857Y-171113200D02*
X114690476Y-171065580D01*
X114690476Y-171065580D02*
X114738095Y-170970342D01*
X114738095Y-170970342D02*
X114738095Y-170875104D01*
X114738095Y-170875104D02*
X114690476Y-170779866D01*
X114690476Y-170779866D02*
X114642857Y-170732247D01*
X114642857Y-170732247D02*
X114547619Y-170684628D01*
X114547619Y-170684628D02*
X114357143Y-170637009D01*
X114357143Y-170637009D02*
X114261905Y-170589390D01*
X114261905Y-170589390D02*
X114214286Y-170541771D01*
X114214286Y-170541771D02*
X114166667Y-170446533D01*
X114166667Y-170446533D02*
X114166667Y-170351295D01*
X114166667Y-170351295D02*
X114214286Y-170256057D01*
X114214286Y-170256057D02*
X114261905Y-170208438D01*
X114261905Y-170208438D02*
X114357143Y-170160819D01*
X114357143Y-170160819D02*
X114595238Y-170160819D01*
X114595238Y-170160819D02*
X114738095Y-170208438D01*
X115071429Y-170160819D02*
X115309524Y-171160819D01*
X115309524Y-171160819D02*
X115500000Y-170446533D01*
X115500000Y-170446533D02*
X115690476Y-171160819D01*
X115690476Y-171160819D02*
X115928572Y-170160819D01*
X116785714Y-170160819D02*
X116309524Y-170160819D01*
X116309524Y-170160819D02*
X116261905Y-170637009D01*
X116261905Y-170637009D02*
X116309524Y-170589390D01*
X116309524Y-170589390D02*
X116404762Y-170541771D01*
X116404762Y-170541771D02*
X116642857Y-170541771D01*
X116642857Y-170541771D02*
X116738095Y-170589390D01*
X116738095Y-170589390D02*
X116785714Y-170637009D01*
X116785714Y-170637009D02*
X116833333Y-170732247D01*
X116833333Y-170732247D02*
X116833333Y-170970342D01*
X116833333Y-170970342D02*
X116785714Y-171065580D01*
X116785714Y-171065580D02*
X116738095Y-171113200D01*
X116738095Y-171113200D02*
X116642857Y-171160819D01*
X116642857Y-171160819D02*
X116404762Y-171160819D01*
X116404762Y-171160819D02*
X116309524Y-171113200D01*
X116309524Y-171113200D02*
X116261905Y-171065580D01*
X76166667Y-171113200D02*
X76309524Y-171160819D01*
X76309524Y-171160819D02*
X76547619Y-171160819D01*
X76547619Y-171160819D02*
X76642857Y-171113200D01*
X76642857Y-171113200D02*
X76690476Y-171065580D01*
X76690476Y-171065580D02*
X76738095Y-170970342D01*
X76738095Y-170970342D02*
X76738095Y-170875104D01*
X76738095Y-170875104D02*
X76690476Y-170779866D01*
X76690476Y-170779866D02*
X76642857Y-170732247D01*
X76642857Y-170732247D02*
X76547619Y-170684628D01*
X76547619Y-170684628D02*
X76357143Y-170637009D01*
X76357143Y-170637009D02*
X76261905Y-170589390D01*
X76261905Y-170589390D02*
X76214286Y-170541771D01*
X76214286Y-170541771D02*
X76166667Y-170446533D01*
X76166667Y-170446533D02*
X76166667Y-170351295D01*
X76166667Y-170351295D02*
X76214286Y-170256057D01*
X76214286Y-170256057D02*
X76261905Y-170208438D01*
X76261905Y-170208438D02*
X76357143Y-170160819D01*
X76357143Y-170160819D02*
X76595238Y-170160819D01*
X76595238Y-170160819D02*
X76738095Y-170208438D01*
X77071429Y-170160819D02*
X77309524Y-171160819D01*
X77309524Y-171160819D02*
X77500000Y-170446533D01*
X77500000Y-170446533D02*
X77690476Y-171160819D01*
X77690476Y-171160819D02*
X77928572Y-170160819D01*
X78214286Y-170160819D02*
X78833333Y-170160819D01*
X78833333Y-170160819D02*
X78500000Y-170541771D01*
X78500000Y-170541771D02*
X78642857Y-170541771D01*
X78642857Y-170541771D02*
X78738095Y-170589390D01*
X78738095Y-170589390D02*
X78785714Y-170637009D01*
X78785714Y-170637009D02*
X78833333Y-170732247D01*
X78833333Y-170732247D02*
X78833333Y-170970342D01*
X78833333Y-170970342D02*
X78785714Y-171065580D01*
X78785714Y-171065580D02*
X78738095Y-171113200D01*
X78738095Y-171113200D02*
X78642857Y-171160819D01*
X78642857Y-171160819D02*
X78357143Y-171160819D01*
X78357143Y-171160819D02*
X78261905Y-171113200D01*
X78261905Y-171113200D02*
X78214286Y-171065580D01*
X57166667Y-171113200D02*
X57309524Y-171160819D01*
X57309524Y-171160819D02*
X57547619Y-171160819D01*
X57547619Y-171160819D02*
X57642857Y-171113200D01*
X57642857Y-171113200D02*
X57690476Y-171065580D01*
X57690476Y-171065580D02*
X57738095Y-170970342D01*
X57738095Y-170970342D02*
X57738095Y-170875104D01*
X57738095Y-170875104D02*
X57690476Y-170779866D01*
X57690476Y-170779866D02*
X57642857Y-170732247D01*
X57642857Y-170732247D02*
X57547619Y-170684628D01*
X57547619Y-170684628D02*
X57357143Y-170637009D01*
X57357143Y-170637009D02*
X57261905Y-170589390D01*
X57261905Y-170589390D02*
X57214286Y-170541771D01*
X57214286Y-170541771D02*
X57166667Y-170446533D01*
X57166667Y-170446533D02*
X57166667Y-170351295D01*
X57166667Y-170351295D02*
X57214286Y-170256057D01*
X57214286Y-170256057D02*
X57261905Y-170208438D01*
X57261905Y-170208438D02*
X57357143Y-170160819D01*
X57357143Y-170160819D02*
X57595238Y-170160819D01*
X57595238Y-170160819D02*
X57738095Y-170208438D01*
X58071429Y-170160819D02*
X58309524Y-171160819D01*
X58309524Y-171160819D02*
X58500000Y-170446533D01*
X58500000Y-170446533D02*
X58690476Y-171160819D01*
X58690476Y-171160819D02*
X58928572Y-170160819D01*
X59261905Y-170256057D02*
X59309524Y-170208438D01*
X59309524Y-170208438D02*
X59404762Y-170160819D01*
X59404762Y-170160819D02*
X59642857Y-170160819D01*
X59642857Y-170160819D02*
X59738095Y-170208438D01*
X59738095Y-170208438D02*
X59785714Y-170256057D01*
X59785714Y-170256057D02*
X59833333Y-170351295D01*
X59833333Y-170351295D02*
X59833333Y-170446533D01*
X59833333Y-170446533D02*
X59785714Y-170589390D01*
X59785714Y-170589390D02*
X59214286Y-171160819D01*
X59214286Y-171160819D02*
X59833333Y-171160819D01*
X75454819Y-55063333D02*
X76169104Y-55063333D01*
X76169104Y-55063333D02*
X76311961Y-55110952D01*
X76311961Y-55110952D02*
X76407200Y-55206190D01*
X76407200Y-55206190D02*
X76454819Y-55349047D01*
X76454819Y-55349047D02*
X76454819Y-55444285D01*
X75883390Y-54444285D02*
X75835771Y-54539523D01*
X75835771Y-54539523D02*
X75788152Y-54587142D01*
X75788152Y-54587142D02*
X75692914Y-54634761D01*
X75692914Y-54634761D02*
X75645295Y-54634761D01*
X75645295Y-54634761D02*
X75550057Y-54587142D01*
X75550057Y-54587142D02*
X75502438Y-54539523D01*
X75502438Y-54539523D02*
X75454819Y-54444285D01*
X75454819Y-54444285D02*
X75454819Y-54253809D01*
X75454819Y-54253809D02*
X75502438Y-54158571D01*
X75502438Y-54158571D02*
X75550057Y-54110952D01*
X75550057Y-54110952D02*
X75645295Y-54063333D01*
X75645295Y-54063333D02*
X75692914Y-54063333D01*
X75692914Y-54063333D02*
X75788152Y-54110952D01*
X75788152Y-54110952D02*
X75835771Y-54158571D01*
X75835771Y-54158571D02*
X75883390Y-54253809D01*
X75883390Y-54253809D02*
X75883390Y-54444285D01*
X75883390Y-54444285D02*
X75931009Y-54539523D01*
X75931009Y-54539523D02*
X75978628Y-54587142D01*
X75978628Y-54587142D02*
X76073866Y-54634761D01*
X76073866Y-54634761D02*
X76264342Y-54634761D01*
X76264342Y-54634761D02*
X76359580Y-54587142D01*
X76359580Y-54587142D02*
X76407200Y-54539523D01*
X76407200Y-54539523D02*
X76454819Y-54444285D01*
X76454819Y-54444285D02*
X76454819Y-54253809D01*
X76454819Y-54253809D02*
X76407200Y-54158571D01*
X76407200Y-54158571D02*
X76359580Y-54110952D01*
X76359580Y-54110952D02*
X76264342Y-54063333D01*
X76264342Y-54063333D02*
X76073866Y-54063333D01*
X76073866Y-54063333D02*
X75978628Y-54110952D01*
X75978628Y-54110952D02*
X75931009Y-54158571D01*
X75931009Y-54158571D02*
X75883390Y-54253809D01*
X121190476Y-48604819D02*
X121190476Y-49319104D01*
X121190476Y-49319104D02*
X121142857Y-49461961D01*
X121142857Y-49461961D02*
X121047619Y-49557200D01*
X121047619Y-49557200D02*
X120904762Y-49604819D01*
X120904762Y-49604819D02*
X120809524Y-49604819D01*
X122190476Y-49604819D02*
X121619048Y-49604819D01*
X121904762Y-49604819D02*
X121904762Y-48604819D01*
X121904762Y-48604819D02*
X121809524Y-48747676D01*
X121809524Y-48747676D02*
X121714286Y-48842914D01*
X121714286Y-48842914D02*
X121619048Y-48890533D01*
X122571429Y-48700057D02*
X122619048Y-48652438D01*
X122619048Y-48652438D02*
X122714286Y-48604819D01*
X122714286Y-48604819D02*
X122952381Y-48604819D01*
X122952381Y-48604819D02*
X123047619Y-48652438D01*
X123047619Y-48652438D02*
X123095238Y-48700057D01*
X123095238Y-48700057D02*
X123142857Y-48795295D01*
X123142857Y-48795295D02*
X123142857Y-48890533D01*
X123142857Y-48890533D02*
X123095238Y-49033390D01*
X123095238Y-49033390D02*
X122523810Y-49604819D01*
X122523810Y-49604819D02*
X123142857Y-49604819D01*
D12*
X119692857Y-84244427D02*
X119559524Y-84053951D01*
X119464286Y-84244427D02*
X119464286Y-83844427D01*
X119464286Y-83844427D02*
X119616667Y-83844427D01*
X119616667Y-83844427D02*
X119654762Y-83863475D01*
X119654762Y-83863475D02*
X119673809Y-83882522D01*
X119673809Y-83882522D02*
X119692857Y-83920618D01*
X119692857Y-83920618D02*
X119692857Y-83977760D01*
X119692857Y-83977760D02*
X119673809Y-84015856D01*
X119673809Y-84015856D02*
X119654762Y-84034903D01*
X119654762Y-84034903D02*
X119616667Y-84053951D01*
X119616667Y-84053951D02*
X119464286Y-84053951D01*
X120073809Y-84244427D02*
X119845238Y-84244427D01*
X119959524Y-84244427D02*
X119959524Y-83844427D01*
X119959524Y-83844427D02*
X119921428Y-83901570D01*
X119921428Y-83901570D02*
X119883333Y-83939665D01*
X119883333Y-83939665D02*
X119845238Y-83958713D01*
X120264285Y-84244427D02*
X120340476Y-84244427D01*
X120340476Y-84244427D02*
X120378571Y-84225380D01*
X120378571Y-84225380D02*
X120397619Y-84206332D01*
X120397619Y-84206332D02*
X120435714Y-84149189D01*
X120435714Y-84149189D02*
X120454761Y-84072999D01*
X120454761Y-84072999D02*
X120454761Y-83920618D01*
X120454761Y-83920618D02*
X120435714Y-83882522D01*
X120435714Y-83882522D02*
X120416666Y-83863475D01*
X120416666Y-83863475D02*
X120378571Y-83844427D01*
X120378571Y-83844427D02*
X120302380Y-83844427D01*
X120302380Y-83844427D02*
X120264285Y-83863475D01*
X120264285Y-83863475D02*
X120245238Y-83882522D01*
X120245238Y-83882522D02*
X120226190Y-83920618D01*
X120226190Y-83920618D02*
X120226190Y-84015856D01*
X120226190Y-84015856D02*
X120245238Y-84053951D01*
X120245238Y-84053951D02*
X120264285Y-84072999D01*
X120264285Y-84072999D02*
X120302380Y-84092046D01*
X120302380Y-84092046D02*
X120378571Y-84092046D01*
X120378571Y-84092046D02*
X120416666Y-84072999D01*
X120416666Y-84072999D02*
X120435714Y-84053951D01*
X120435714Y-84053951D02*
X120454761Y-84015856D01*
D10*
X145996666Y-71454819D02*
X145996666Y-72169104D01*
X145996666Y-72169104D02*
X145949047Y-72311961D01*
X145949047Y-72311961D02*
X145853809Y-72407200D01*
X145853809Y-72407200D02*
X145710952Y-72454819D01*
X145710952Y-72454819D02*
X145615714Y-72454819D01*
X146377619Y-71454819D02*
X147044285Y-71454819D01*
X147044285Y-71454819D02*
X146615714Y-72454819D01*
D11*
X56150914Y-89730476D02*
X56135676Y-89760952D01*
X56135676Y-89760952D02*
X56105200Y-89791428D01*
X56105200Y-89791428D02*
X56059485Y-89837142D01*
X56059485Y-89837142D02*
X56044247Y-89867619D01*
X56044247Y-89867619D02*
X56044247Y-89898095D01*
X56120438Y-89882857D02*
X56105200Y-89913333D01*
X56105200Y-89913333D02*
X56074723Y-89943809D01*
X56074723Y-89943809D02*
X56013771Y-89959047D01*
X56013771Y-89959047D02*
X55907104Y-89959047D01*
X55907104Y-89959047D02*
X55846152Y-89943809D01*
X55846152Y-89943809D02*
X55815676Y-89913333D01*
X55815676Y-89913333D02*
X55800438Y-89882857D01*
X55800438Y-89882857D02*
X55800438Y-89821904D01*
X55800438Y-89821904D02*
X55815676Y-89791428D01*
X55815676Y-89791428D02*
X55846152Y-89760952D01*
X55846152Y-89760952D02*
X55907104Y-89745714D01*
X55907104Y-89745714D02*
X56013771Y-89745714D01*
X56013771Y-89745714D02*
X56074723Y-89760952D01*
X56074723Y-89760952D02*
X56105200Y-89791428D01*
X56105200Y-89791428D02*
X56120438Y-89821904D01*
X56120438Y-89821904D02*
X56120438Y-89882857D01*
X55800438Y-89639047D02*
X55800438Y-89425714D01*
X55800438Y-89425714D02*
X56120438Y-89562857D01*
D12*
X125492857Y-148411927D02*
X125359524Y-148221451D01*
X125264286Y-148411927D02*
X125264286Y-148011927D01*
X125264286Y-148011927D02*
X125416667Y-148011927D01*
X125416667Y-148011927D02*
X125454762Y-148030975D01*
X125454762Y-148030975D02*
X125473809Y-148050022D01*
X125473809Y-148050022D02*
X125492857Y-148088118D01*
X125492857Y-148088118D02*
X125492857Y-148145260D01*
X125492857Y-148145260D02*
X125473809Y-148183356D01*
X125473809Y-148183356D02*
X125454762Y-148202403D01*
X125454762Y-148202403D02*
X125416667Y-148221451D01*
X125416667Y-148221451D02*
X125264286Y-148221451D01*
X125645238Y-148050022D02*
X125664286Y-148030975D01*
X125664286Y-148030975D02*
X125702381Y-148011927D01*
X125702381Y-148011927D02*
X125797619Y-148011927D01*
X125797619Y-148011927D02*
X125835714Y-148030975D01*
X125835714Y-148030975D02*
X125854762Y-148050022D01*
X125854762Y-148050022D02*
X125873809Y-148088118D01*
X125873809Y-148088118D02*
X125873809Y-148126213D01*
X125873809Y-148126213D02*
X125854762Y-148183356D01*
X125854762Y-148183356D02*
X125626190Y-148411927D01*
X125626190Y-148411927D02*
X125873809Y-148411927D01*
X126254761Y-148411927D02*
X126026190Y-148411927D01*
X126140476Y-148411927D02*
X126140476Y-148011927D01*
X126140476Y-148011927D02*
X126102380Y-148069070D01*
X126102380Y-148069070D02*
X126064285Y-148107165D01*
X126064285Y-148107165D02*
X126026190Y-148126213D01*
D10*
X55454819Y-55539523D02*
X56169104Y-55539523D01*
X56169104Y-55539523D02*
X56311961Y-55587142D01*
X56311961Y-55587142D02*
X56407200Y-55682380D01*
X56407200Y-55682380D02*
X56454819Y-55825237D01*
X56454819Y-55825237D02*
X56454819Y-55920475D01*
X56454819Y-54539523D02*
X56454819Y-55110951D01*
X56454819Y-54825237D02*
X55454819Y-54825237D01*
X55454819Y-54825237D02*
X55597676Y-54920475D01*
X55597676Y-54920475D02*
X55692914Y-55015713D01*
X55692914Y-55015713D02*
X55740533Y-55110951D01*
X55454819Y-53920475D02*
X55454819Y-53825237D01*
X55454819Y-53825237D02*
X55502438Y-53729999D01*
X55502438Y-53729999D02*
X55550057Y-53682380D01*
X55550057Y-53682380D02*
X55645295Y-53634761D01*
X55645295Y-53634761D02*
X55835771Y-53587142D01*
X55835771Y-53587142D02*
X56073866Y-53587142D01*
X56073866Y-53587142D02*
X56264342Y-53634761D01*
X56264342Y-53634761D02*
X56359580Y-53682380D01*
X56359580Y-53682380D02*
X56407200Y-53729999D01*
X56407200Y-53729999D02*
X56454819Y-53825237D01*
X56454819Y-53825237D02*
X56454819Y-53920475D01*
X56454819Y-53920475D02*
X56407200Y-54015713D01*
X56407200Y-54015713D02*
X56359580Y-54063332D01*
X56359580Y-54063332D02*
X56264342Y-54110951D01*
X56264342Y-54110951D02*
X56073866Y-54158570D01*
X56073866Y-54158570D02*
X55835771Y-54158570D01*
X55835771Y-54158570D02*
X55645295Y-54110951D01*
X55645295Y-54110951D02*
X55550057Y-54063332D01*
X55550057Y-54063332D02*
X55502438Y-54015713D01*
X55502438Y-54015713D02*
X55454819Y-53920475D01*
D11*
X46150914Y-82610476D02*
X46135676Y-82640952D01*
X46135676Y-82640952D02*
X46105200Y-82671428D01*
X46105200Y-82671428D02*
X46059485Y-82717142D01*
X46059485Y-82717142D02*
X46044247Y-82747619D01*
X46044247Y-82747619D02*
X46044247Y-82778095D01*
X46120438Y-82762857D02*
X46105200Y-82793333D01*
X46105200Y-82793333D02*
X46074723Y-82823809D01*
X46074723Y-82823809D02*
X46013771Y-82839047D01*
X46013771Y-82839047D02*
X45907104Y-82839047D01*
X45907104Y-82839047D02*
X45846152Y-82823809D01*
X45846152Y-82823809D02*
X45815676Y-82793333D01*
X45815676Y-82793333D02*
X45800438Y-82762857D01*
X45800438Y-82762857D02*
X45800438Y-82701904D01*
X45800438Y-82701904D02*
X45815676Y-82671428D01*
X45815676Y-82671428D02*
X45846152Y-82640952D01*
X45846152Y-82640952D02*
X45907104Y-82625714D01*
X45907104Y-82625714D02*
X46013771Y-82625714D01*
X46013771Y-82625714D02*
X46074723Y-82640952D01*
X46074723Y-82640952D02*
X46105200Y-82671428D01*
X46105200Y-82671428D02*
X46120438Y-82701904D01*
X46120438Y-82701904D02*
X46120438Y-82762857D01*
X45907104Y-82351428D02*
X46120438Y-82351428D01*
X45785200Y-82427619D02*
X46013771Y-82503809D01*
X46013771Y-82503809D02*
X46013771Y-82305714D01*
D13*
%TO.C,C5*%
X63700000Y-102700000D02*
X70300000Y-102700000D01*
X63700000Y-108300000D02*
X63700000Y-102700000D01*
X64700000Y-109300000D02*
X63700000Y-108300000D01*
X64700000Y-109300000D02*
X69300000Y-109300000D01*
X65355000Y-108389838D02*
X65985000Y-108389838D01*
X65670000Y-108704838D02*
X65670000Y-108074838D01*
X69300000Y-109300000D02*
X70300000Y-108300000D01*
X70300000Y-108300000D02*
X70300000Y-102700000D01*
X70150000Y-106000000D02*
G75*
G02*
X63850000Y-106000000I-3150000J0D01*
G01*
X63850000Y-106000000D02*
G75*
G02*
X70150000Y-106000000I3150000J0D01*
G01*
%TO.C,U3*%
X72550000Y-104050000D02*
X77450000Y-104050000D01*
X72550000Y-106975000D02*
X72550000Y-104050000D01*
X73525000Y-107950000D02*
X72550000Y-106975000D01*
X77450000Y-104050000D02*
X77450000Y-107950000D01*
X77450000Y-107950000D02*
X73525000Y-107950000D01*
%TO.C,Q13*%
X34525000Y-89050000D02*
X37425000Y-89050000D01*
X34525000Y-90025000D02*
X34525000Y-89050000D01*
X34850000Y-90350000D02*
X34525000Y-90025000D01*
X37425000Y-89050000D02*
X37425000Y-90350000D01*
X37425000Y-90350000D02*
X34850000Y-90350000D01*
%TO.C,R9*%
X65175000Y-85167500D02*
X66775000Y-85167500D01*
X65175000Y-85992500D02*
X65175000Y-85167500D01*
X66775000Y-85167500D02*
X66775000Y-85992500D01*
X66775000Y-85992500D02*
X65175000Y-85992500D01*
%TO.C,D1*%
X78800000Y-103700000D02*
X78800000Y-108300000D01*
X78800000Y-103700000D02*
X81800000Y-103700000D01*
X79500920Y-106649440D02*
X81101120Y-106649440D01*
X80301020Y-105498820D02*
X80301020Y-104500600D01*
X80301020Y-106649440D02*
X79500920Y-105498820D01*
X80301020Y-106649440D02*
X80301020Y-107551140D01*
X80301020Y-106649440D02*
X81050320Y-105498820D01*
X81050320Y-105498820D02*
X79500920Y-105498820D01*
X81800000Y-103700000D02*
X81800000Y-108300000D01*
X81800000Y-108300000D02*
X78800000Y-108300000D01*
%TO.C,R5*%
X134337500Y-70450000D02*
X135162500Y-70450000D01*
X134337500Y-72050000D02*
X134337500Y-70450000D01*
X135162500Y-70450000D02*
X135162500Y-72050000D01*
X135162500Y-72050000D02*
X134337500Y-72050000D01*
%TO.C,Q5*%
X74525000Y-89050000D02*
X77425000Y-89050000D01*
X74525000Y-90025000D02*
X74525000Y-89050000D01*
X74850000Y-90350000D02*
X74525000Y-90025000D01*
X77425000Y-89050000D02*
X77425000Y-90350000D01*
X77425000Y-90350000D02*
X74850000Y-90350000D01*
%TO.C,Q10*%
X122500000Y-79412500D02*
X125400000Y-79412500D01*
X122500000Y-80387500D02*
X122500000Y-79412500D01*
X122825000Y-80712500D02*
X122500000Y-80387500D01*
X125400000Y-79412500D02*
X125400000Y-80712500D01*
X125400000Y-80712500D02*
X122825000Y-80712500D01*
%TO.C,Q2*%
X64525000Y-81930000D02*
X67425000Y-81930000D01*
X64525000Y-82905000D02*
X64525000Y-81930000D01*
X64850000Y-83230000D02*
X64525000Y-82905000D01*
X67425000Y-81930000D02*
X67425000Y-83230000D01*
X67425000Y-83230000D02*
X64850000Y-83230000D01*
%TO.C,Q14*%
X114550000Y-79412500D02*
X117450000Y-79412500D01*
X114550000Y-80387500D02*
X114550000Y-79412500D01*
X114875000Y-80712500D02*
X114550000Y-80387500D01*
X117450000Y-79412500D02*
X117450000Y-80712500D01*
X117450000Y-80712500D02*
X114875000Y-80712500D01*
%TO.C,R3*%
X133587500Y-87200000D02*
X134412500Y-87200000D01*
X133587500Y-88800000D02*
X133587500Y-87200000D01*
X134412500Y-87200000D02*
X134412500Y-88800000D01*
X134412500Y-88800000D02*
X133587500Y-88800000D01*
%TO.C,R20*%
X124950000Y-148337500D02*
X126550000Y-148337500D01*
X124950000Y-149162500D02*
X124950000Y-148337500D01*
X126550000Y-148337500D02*
X126550000Y-149162500D01*
X126550000Y-149162500D02*
X124950000Y-149162500D01*
%TO.C,R2*%
X139587500Y-87200000D02*
X140412500Y-87200000D01*
X139587500Y-88800000D02*
X139587500Y-87200000D01*
X140412500Y-87200000D02*
X140412500Y-88800000D01*
X140412500Y-88800000D02*
X139587500Y-88800000D01*
%TO.C,J17*%
X34730000Y-56000000D02*
X36635000Y-56000000D01*
X34730000Y-61080000D02*
X34730000Y-56000000D01*
X36635000Y-56000000D02*
X37270000Y-56635000D01*
X37270000Y-56635000D02*
X37270000Y-61080000D01*
X37270000Y-61080000D02*
X34730000Y-61080000D01*
%TO.C,R7*%
X75175000Y-79167500D02*
X76775000Y-79167500D01*
X75175000Y-79992500D02*
X75175000Y-79167500D01*
X76775000Y-79167500D02*
X76775000Y-79992500D01*
X76775000Y-79992500D02*
X75175000Y-79992500D01*
%TO.C,R12*%
X55175000Y-79167500D02*
X56775000Y-79167500D01*
X55175000Y-79992500D02*
X55175000Y-79167500D01*
X56775000Y-79167500D02*
X56775000Y-79992500D01*
X56775000Y-79992500D02*
X55175000Y-79992500D01*
%TO.C,Q3*%
X54525000Y-81930000D02*
X57425000Y-81930000D01*
X54525000Y-82905000D02*
X54525000Y-81930000D01*
X54850000Y-83230000D02*
X54525000Y-82905000D01*
X57425000Y-81930000D02*
X57425000Y-83230000D01*
X57425000Y-83230000D02*
X54850000Y-83230000D01*
%TO.C,C2*%
X122100000Y-133950000D02*
X122900000Y-133950000D01*
X122100000Y-135550000D02*
X122100000Y-133950000D01*
X122900000Y-133950000D02*
X122900000Y-135550000D01*
X122900000Y-135550000D02*
X122100000Y-135550000D01*
%TO.C,SW4*%
X90150000Y-172230000D02*
X102850000Y-172230000D01*
X90150000Y-184930000D02*
X90150000Y-172230000D01*
X102850000Y-172230000D02*
X102850000Y-184930000D01*
X102850000Y-184930000D02*
X90150000Y-184930000D01*
D14*
%TO.C,J13*%
X140880000Y-48687500D02*
X158620000Y-48687500D01*
X140880000Y-62987500D02*
X140880000Y-48687500D01*
X141880000Y-63987500D02*
X140880000Y-62987500D01*
X158620000Y-48687500D02*
X158620000Y-63987500D01*
X158620000Y-63987500D02*
X141880000Y-63987500D01*
D13*
%TO.C,Q11*%
X126500000Y-79412500D02*
X129400000Y-79412500D01*
X126500000Y-80387500D02*
X126500000Y-79412500D01*
X126825000Y-80712500D02*
X126500000Y-80387500D01*
X129400000Y-79412500D02*
X129400000Y-80712500D01*
X129400000Y-80712500D02*
X126825000Y-80712500D01*
%TO.C,R16*%
X65175000Y-92287500D02*
X66775000Y-92287500D01*
X65175000Y-93112500D02*
X65175000Y-92287500D01*
X66775000Y-92287500D02*
X66775000Y-93112500D01*
X66775000Y-93112500D02*
X65175000Y-93112500D01*
%TO.C,R13*%
X45175000Y-85167500D02*
X46775000Y-85167500D01*
X45175000Y-85992500D02*
X45175000Y-85167500D01*
X46775000Y-85167500D02*
X46775000Y-85992500D01*
X46775000Y-85992500D02*
X45175000Y-85992500D01*
%TO.C,R10*%
X65175000Y-79167500D02*
X66775000Y-79167500D01*
X65175000Y-79992500D02*
X65175000Y-79167500D01*
X66775000Y-79167500D02*
X66775000Y-79992500D01*
X66775000Y-79992500D02*
X65175000Y-79992500D01*
%TO.C,C3*%
X119600000Y-133950000D02*
X120400000Y-133950000D01*
X119600000Y-135550000D02*
X119600000Y-133950000D01*
X120400000Y-133950000D02*
X120400000Y-135550000D01*
X120400000Y-135550000D02*
X119600000Y-135550000D01*
%TO.C,J1*%
X141250000Y-113365000D02*
X141885000Y-112730000D01*
X141250000Y-115270000D02*
X141250000Y-113365000D01*
X141885000Y-112730000D02*
X151410000Y-112730000D01*
X151410000Y-112730000D02*
X151410000Y-115270000D01*
X151410000Y-115270000D02*
X141250000Y-115270000D01*
%TO.C,U2*%
X118300000Y-138800000D02*
X127225000Y-138800000D01*
X118300000Y-142700000D02*
X118300000Y-138800000D01*
X127225000Y-138800000D02*
X128200000Y-139775000D01*
X128200000Y-139775000D02*
X128200000Y-142700000D01*
X128200000Y-142700000D02*
X118300000Y-142700000D01*
%TO.C,C4*%
X127100000Y-133950000D02*
X127900000Y-133950000D01*
X127100000Y-135550000D02*
X127100000Y-133950000D01*
X127900000Y-133950000D02*
X127900000Y-135550000D01*
X127900000Y-135550000D02*
X127100000Y-135550000D01*
%TO.C,Q6*%
X64525000Y-89050000D02*
X67425000Y-89050000D01*
X64525000Y-90025000D02*
X64525000Y-89050000D01*
X64850000Y-90350000D02*
X64525000Y-90025000D01*
X67425000Y-89050000D02*
X67425000Y-90350000D01*
X67425000Y-90350000D02*
X64850000Y-90350000D01*
%TO.C,J6*%
X141250000Y-76365000D02*
X141885000Y-75730000D01*
X141250000Y-78270000D02*
X141250000Y-76365000D01*
X141885000Y-75730000D02*
X151410000Y-75730000D01*
X151410000Y-75730000D02*
X151410000Y-78270000D01*
X151410000Y-78270000D02*
X141250000Y-78270000D01*
%TO.C,Q9*%
X118500000Y-79412500D02*
X121400000Y-79412500D01*
X118500000Y-80387500D02*
X118500000Y-79412500D01*
X118825000Y-80712500D02*
X118500000Y-80387500D01*
X121400000Y-79412500D02*
X121400000Y-80712500D01*
X121400000Y-80712500D02*
X118825000Y-80712500D01*
%TO.C,R14*%
X45175000Y-79167500D02*
X46775000Y-79167500D01*
X45175000Y-79992500D02*
X45175000Y-79167500D01*
X46775000Y-79167500D02*
X46775000Y-79992500D01*
X46775000Y-79992500D02*
X45175000Y-79992500D01*
%TO.C,J15*%
X21650000Y-102650000D02*
X35850000Y-102650000D01*
X21650000Y-118150000D02*
X21650000Y-102650000D01*
X21650000Y-118150000D02*
X35850000Y-118150000D01*
X39850000Y-114150000D02*
X39850000Y-106650000D01*
X35850000Y-102650000D02*
G75*
G02*
X39850000Y-106650000I0J-4000000D01*
G01*
X39850000Y-114150000D02*
G75*
G02*
X35850000Y-118150000I-4000000J0D01*
G01*
%TO.C,J9*%
X64730000Y-48380000D02*
X66635000Y-48380000D01*
X64730000Y-61080000D02*
X64730000Y-48380000D01*
X66635000Y-48380000D02*
X67270000Y-49015000D01*
X67270000Y-49015000D02*
X67270000Y-61080000D01*
X67270000Y-61080000D02*
X64730000Y-61080000D01*
%TO.C,SW1*%
X31840000Y-172050000D02*
X31840000Y-185450000D01*
X31840000Y-185450000D02*
X44240000Y-185450000D01*
X39540000Y-176160000D02*
X39540000Y-181340000D01*
X44240000Y-172050000D02*
X31840000Y-172050000D01*
X44240000Y-185450000D02*
X44240000Y-172050000D01*
X41040000Y-178750000D02*
G75*
G02*
X35040000Y-178750000I-3000000J0D01*
G01*
X35040000Y-178750000D02*
G75*
G02*
X41040000Y-178750000I3000000J0D01*
G01*
X42540000Y-178750000D02*
G75*
G02*
X33540000Y-178750000I-4500000J0D01*
G01*
X33540000Y-178750000D02*
G75*
G02*
X42540000Y-178750000I4500000J0D01*
G01*
%TO.C,J3*%
X141250000Y-103365000D02*
X141885000Y-102730000D01*
X141250000Y-105270000D02*
X141250000Y-103365000D01*
X141885000Y-102730000D02*
X151410000Y-102730000D01*
X151410000Y-102730000D02*
X151410000Y-105270000D01*
X151410000Y-105270000D02*
X141250000Y-105270000D01*
%TO.C,R15*%
X75175000Y-92287500D02*
X76775000Y-92287500D01*
X75175000Y-93112500D02*
X75175000Y-92287500D01*
X76775000Y-92287500D02*
X76775000Y-93112500D01*
X76775000Y-93112500D02*
X75175000Y-93112500D01*
%TO.C,Q1*%
X74525000Y-81930000D02*
X77425000Y-81930000D01*
X74525000Y-82905000D02*
X74525000Y-81930000D01*
X74850000Y-83230000D02*
X74525000Y-82905000D01*
X77425000Y-81930000D02*
X77425000Y-83230000D01*
X77425000Y-83230000D02*
X74850000Y-83230000D01*
%TO.C,J4*%
X141250000Y-98365000D02*
X141885000Y-97730000D01*
X141250000Y-100270000D02*
X141250000Y-98365000D01*
X141885000Y-97730000D02*
X151410000Y-97730000D01*
X151410000Y-97730000D02*
X151410000Y-100270000D01*
X151410000Y-100270000D02*
X141250000Y-100270000D01*
%TO.C,C6*%
X64700000Y-118300000D02*
X64700000Y-111700000D01*
X70300000Y-111700000D02*
X64700000Y-111700000D01*
X70300000Y-118300000D02*
X64700000Y-118300000D01*
X70389838Y-116645000D02*
X70389838Y-116015000D01*
X70704838Y-116330000D02*
X70074838Y-116330000D01*
X71300000Y-112700000D02*
X70300000Y-111700000D01*
X71300000Y-117300000D02*
X70300000Y-118300000D01*
X71300000Y-117300000D02*
X71300000Y-112700000D01*
X71150000Y-115000000D02*
G75*
G02*
X64850000Y-115000000I-3150000J0D01*
G01*
X64850000Y-115000000D02*
G75*
G02*
X71150000Y-115000000I3150000J0D01*
G01*
%TO.C,R11*%
X55175000Y-85167500D02*
X56775000Y-85167500D01*
X55175000Y-85992500D02*
X55175000Y-85167500D01*
X56775000Y-85167500D02*
X56775000Y-85992500D01*
X56775000Y-85992500D02*
X55175000Y-85992500D01*
%TO.C,R8*%
X75175000Y-85167500D02*
X76775000Y-85167500D01*
X75175000Y-85992500D02*
X75175000Y-85167500D01*
X76775000Y-85167500D02*
X76775000Y-85992500D01*
X76775000Y-85992500D02*
X75175000Y-85992500D01*
%TO.C,Q12*%
X104550000Y-81350000D02*
X107450000Y-81350000D01*
X104550000Y-82325000D02*
X104550000Y-81350000D01*
X104875000Y-82650000D02*
X104550000Y-82325000D01*
X107450000Y-81350000D02*
X107450000Y-82650000D01*
X107450000Y-82650000D02*
X104875000Y-82650000D01*
%TO.C,J5*%
X141440000Y-81365000D02*
X142075000Y-80730000D01*
X141440000Y-83270000D02*
X141440000Y-81365000D01*
X142075000Y-80730000D02*
X151600000Y-80730000D01*
X151600000Y-80730000D02*
X151600000Y-83270000D01*
X151600000Y-83270000D02*
X141440000Y-83270000D01*
%TO.C,R1*%
X137587500Y-87200000D02*
X138412500Y-87200000D01*
X137587500Y-88800000D02*
X137587500Y-87200000D01*
X138412500Y-87200000D02*
X138412500Y-88800000D01*
X138412500Y-88800000D02*
X137587500Y-88800000D01*
%TO.C,J18*%
X136110000Y-176230000D02*
X148810000Y-176230000D01*
X136110000Y-180040000D02*
X136110000Y-176230000D01*
X137380000Y-181310000D02*
X136110000Y-180040000D01*
X148810000Y-176230000D02*
X148810000Y-181310000D01*
X148810000Y-181310000D02*
X137380000Y-181310000D01*
%TO.C,J2*%
X141250000Y-108365000D02*
X141885000Y-107730000D01*
X141250000Y-110270000D02*
X141250000Y-108365000D01*
X141885000Y-107730000D02*
X151410000Y-107730000D01*
X151410000Y-107730000D02*
X151410000Y-110270000D01*
X151410000Y-110270000D02*
X141250000Y-110270000D01*
%TO.C,R4*%
X135587500Y-87200000D02*
X136412500Y-87200000D01*
X135587500Y-88800000D02*
X135587500Y-87200000D01*
X136412500Y-87200000D02*
X136412500Y-88800000D01*
X136412500Y-88800000D02*
X135587500Y-88800000D01*
%TO.C,Q8*%
X44525000Y-89050000D02*
X47425000Y-89050000D01*
X44525000Y-90025000D02*
X44525000Y-89050000D01*
X44850000Y-90350000D02*
X44525000Y-90025000D01*
X47425000Y-89050000D02*
X47425000Y-90350000D01*
X47425000Y-90350000D02*
X44850000Y-90350000D01*
%TO.C,C1*%
X124600000Y-133950000D02*
X125400000Y-133950000D01*
X124600000Y-135550000D02*
X124600000Y-133950000D01*
X125400000Y-133950000D02*
X125400000Y-135550000D01*
X125400000Y-135550000D02*
X124600000Y-135550000D01*
%TO.C,R18*%
X45175000Y-92287500D02*
X46775000Y-92287500D01*
X45175000Y-93112500D02*
X45175000Y-92287500D01*
X46775000Y-92287500D02*
X46775000Y-93112500D01*
X46775000Y-93112500D02*
X45175000Y-93112500D01*
%TO.C,D2*%
X96700000Y-83500000D02*
X96700000Y-80500000D01*
X98350560Y-81200920D02*
X98350560Y-82801120D01*
X98350560Y-82001020D02*
X97448860Y-82001020D01*
X98350560Y-82001020D02*
X99501180Y-81200920D01*
X98350560Y-82001020D02*
X99501180Y-82750320D01*
X99501180Y-82001020D02*
X100499400Y-82001020D01*
X99501180Y-82750320D02*
X99501180Y-81200920D01*
X101300000Y-80500000D02*
X96700000Y-80500000D01*
X101300000Y-80500000D02*
X101300000Y-83500000D01*
X101300000Y-83500000D02*
X96700000Y-83500000D01*
%TO.C,R6*%
X136337500Y-70450000D02*
X137162500Y-70450000D01*
X136337500Y-72050000D02*
X136337500Y-70450000D01*
X137162500Y-70450000D02*
X137162500Y-72050000D01*
X137162500Y-72050000D02*
X136337500Y-72050000D01*
%TO.C,L1*%
X74350000Y-111350000D02*
X74350000Y-113600000D01*
X74350000Y-111350000D02*
X81650000Y-111350000D01*
X74350000Y-118650000D02*
X74350000Y-116400000D01*
X81650000Y-111350000D02*
X81650000Y-113600000D01*
X81650000Y-118650000D02*
X74350000Y-118650000D01*
X81650000Y-118650000D02*
X81650000Y-116400000D01*
X75710000Y-112710000D02*
G75*
G02*
X80290000Y-112710000I2290000J-2290000D01*
G01*
X80290000Y-117290000D02*
G75*
G02*
X75710000Y-117290000I-2290000J2290000D01*
G01*
%TO.C,J16*%
X96730000Y-56000000D02*
X98635000Y-56000000D01*
X96730000Y-61080000D02*
X96730000Y-56000000D01*
X98635000Y-56000000D02*
X99270000Y-56635000D01*
X99270000Y-56635000D02*
X99270000Y-61080000D01*
X99270000Y-61080000D02*
X96730000Y-61080000D01*
%TO.C,R23*%
X35175000Y-92287500D02*
X36775000Y-92287500D01*
X35175000Y-93112500D02*
X35175000Y-92287500D01*
X36775000Y-92287500D02*
X36775000Y-93112500D01*
X36775000Y-93112500D02*
X35175000Y-93112500D01*
%TO.C,J11*%
X44730000Y-48380000D02*
X46635000Y-48380000D01*
X44730000Y-61080000D02*
X44730000Y-48380000D01*
X46635000Y-48380000D02*
X47270000Y-49015000D01*
X47270000Y-49015000D02*
X47270000Y-61080000D01*
X47270000Y-61080000D02*
X44730000Y-61080000D01*
%TO.C,R22*%
X105200000Y-85587500D02*
X106800000Y-85587500D01*
X105200000Y-86412500D02*
X105200000Y-85587500D01*
X106800000Y-85587500D02*
X106800000Y-86412500D01*
X106800000Y-86412500D02*
X105200000Y-86412500D01*
%TO.C,R17*%
X55175000Y-92287500D02*
X56775000Y-92287500D01*
X55175000Y-93112500D02*
X55175000Y-92287500D01*
X56775000Y-92287500D02*
X56775000Y-93112500D01*
X56775000Y-93112500D02*
X55175000Y-93112500D01*
%TO.C,BT1*%
X101780000Y-103000000D02*
X104950000Y-103000000D01*
X101780000Y-114000000D02*
X101780000Y-103000000D01*
X104950000Y-114000000D02*
X101780000Y-114000000D01*
X104950000Y-103000000D02*
G75*
G02*
X104950000Y-114000000I12330000J-5500000D01*
G01*
%TO.C,SW5*%
X109150000Y-172230000D02*
X121850000Y-172230000D01*
X109150000Y-184930000D02*
X109150000Y-172230000D01*
X121850000Y-172230000D02*
X121850000Y-184930000D01*
X121850000Y-184930000D02*
X109150000Y-184930000D01*
%TO.C,SW3*%
X71150000Y-172230000D02*
X83850000Y-172230000D01*
X71150000Y-184930000D02*
X71150000Y-172230000D01*
X83850000Y-172230000D02*
X83850000Y-184930000D01*
X83850000Y-184930000D02*
X71150000Y-184930000D01*
%TO.C,SW2*%
X52150000Y-172230000D02*
X64850000Y-172230000D01*
X52150000Y-184930000D02*
X52150000Y-172230000D01*
X64850000Y-172230000D02*
X64850000Y-184930000D01*
X64850000Y-184930000D02*
X52150000Y-184930000D01*
%TO.C,J8*%
X74730000Y-48380000D02*
X76635000Y-48380000D01*
X74730000Y-61080000D02*
X74730000Y-48380000D01*
X76635000Y-48380000D02*
X77270000Y-49015000D01*
X77270000Y-49015000D02*
X77270000Y-61080000D01*
X77270000Y-61080000D02*
X74730000Y-61080000D01*
%TO.C,J12*%
X116350000Y-46150000D02*
X117050000Y-46150000D01*
X116350000Y-48150000D02*
X127650000Y-48150000D01*
X117050000Y-44100000D02*
X117050000Y-46150000D01*
X117050000Y-44100000D02*
X126950000Y-44100000D01*
X117580000Y-38100000D02*
X117580000Y-44100000D01*
X117580000Y-38100000D02*
X126420000Y-38100000D01*
X126420000Y-38100000D02*
X126420000Y-44100000D01*
X126950000Y-44100000D02*
X126950000Y-46100000D01*
X126950000Y-46150000D02*
X127650000Y-46150000D01*
X116350000Y-48150000D02*
G75*
G02*
X116350000Y-46150000I0J1000000D01*
G01*
X127650000Y-46150000D02*
G75*
G02*
X127650000Y-48150000I0J-1000000D01*
G01*
%TO.C,R19*%
X119150000Y-83650000D02*
X120750000Y-83650000D01*
X119150000Y-84475000D02*
X119150000Y-83650000D01*
X120750000Y-83650000D02*
X120750000Y-84475000D01*
X120750000Y-84475000D02*
X119150000Y-84475000D01*
%TO.C,J7*%
X141250000Y-71365000D02*
X141885000Y-70730000D01*
X141250000Y-73270000D02*
X141250000Y-71365000D01*
X141885000Y-70730000D02*
X151410000Y-70730000D01*
X151410000Y-70730000D02*
X151410000Y-73270000D01*
X151410000Y-73270000D02*
X141250000Y-73270000D01*
%TO.C,Q7*%
X54525000Y-89050000D02*
X57425000Y-89050000D01*
X54525000Y-90025000D02*
X54525000Y-89050000D01*
X54850000Y-90350000D02*
X54525000Y-90025000D01*
X57425000Y-89050000D02*
X57425000Y-90350000D01*
X57425000Y-90350000D02*
X54850000Y-90350000D01*
%TO.C,R21*%
X124950000Y-146737500D02*
X126550000Y-146737500D01*
X124950000Y-147562500D02*
X124950000Y-146737500D01*
X126550000Y-146737500D02*
X126550000Y-147562500D01*
X126550000Y-147562500D02*
X124950000Y-147562500D01*
%TO.C,J10*%
X54730000Y-48380000D02*
X56635000Y-48380000D01*
X54730000Y-61080000D02*
X54730000Y-48380000D01*
X56635000Y-48380000D02*
X57270000Y-49015000D01*
X57270000Y-49015000D02*
X57270000Y-61080000D01*
X57270000Y-61080000D02*
X54730000Y-61080000D01*
%TO.C,Q4*%
X44525000Y-81930000D02*
X47425000Y-81930000D01*
X44525000Y-82905000D02*
X44525000Y-81930000D01*
X44850000Y-83230000D02*
X44525000Y-82905000D01*
X47425000Y-81930000D02*
X47425000Y-83230000D01*
X47425000Y-83230000D02*
X44850000Y-83230000D01*
%TD*%
M02*
