%TF.GenerationSoftware,KiCad,Pcbnew,8.0.1-8.0.1-0~ubuntu20.04.1*%
%TF.CreationDate,2024-06-12T16:02:46+01:00*%
%TF.ProjectId,sensd,73656e73-642e-46b6-9963-61645f706362,rev?*%
%TF.SameCoordinates,Original*%
%TF.FileFunction,Drillmap*%
%TF.FilePolarity,Positive*%
%FSLAX45Y45*%
G04 Gerber Fmt 4.5, Leading zero omitted, Abs format (unit mm)*
G04 Created by KiCad (PCBNEW 8.0.1-8.0.1-0~ubuntu20.04.1) date 2024-06-12 16:02:46*
%MOMM*%
%LPD*%
G01*
G04 APERTURE LIST*
%ADD10C,0.050000*%
%ADD11C,0.200000*%
%ADD12C,0.170000*%
%ADD13C,0.320000*%
%ADD14C,0.400000*%
G04 APERTURE END LIST*
D10*
X15300000Y-4400000D02*
G75*
G02*
X15700000Y-4800000I0J-400000D01*
G01*
X15700000Y-18950000D02*
G75*
G02*
X15300000Y-19350000I-400000J0D01*
G01*
X2900000Y-4800000D02*
X2900000Y-18950000D01*
X15700000Y-18950000D02*
X15700000Y-4800000D01*
X3300000Y-19350000D02*
X15300000Y-19350000D01*
X3300000Y-19350000D02*
G75*
G02*
X2900000Y-18950000I0J400000D01*
G01*
X2900000Y-4800000D02*
G75*
G02*
X3300000Y-4400000I400000J0D01*
G01*
X15300000Y-4400000D02*
X3300000Y-4400000D01*
D11*
D12*
X5257000Y-17773000D02*
X5427000Y-17943000D01*
X5427000Y-17773000D02*
X5257000Y-17943000D01*
X6273000Y-17773000D02*
X6443000Y-17943000D01*
X6443000Y-17773000D02*
X6273000Y-17943000D01*
X7157000Y-17773000D02*
X7327000Y-17943000D01*
X7327000Y-17773000D02*
X7157000Y-17943000D01*
X8173000Y-17773000D02*
X8343000Y-17943000D01*
X8343000Y-17773000D02*
X8173000Y-17943000D01*
X9057000Y-17773000D02*
X9227000Y-17943000D01*
X9227000Y-17773000D02*
X9057000Y-17943000D01*
X10073000Y-17773000D02*
X10243000Y-17943000D01*
X10243000Y-17773000D02*
X10073000Y-17943000D01*
X10957000Y-17773000D02*
X11127000Y-17943000D01*
X11127000Y-17773000D02*
X10957000Y-17943000D01*
X11973000Y-17773000D02*
X12143000Y-17943000D01*
X12143000Y-17773000D02*
X11973000Y-17943000D01*
D13*
X3460000Y-4800000D02*
G75*
G02*
X3140000Y-4800000I-160000J0D01*
G01*
X3140000Y-4800000D02*
G75*
G02*
X3460000Y-4800000I160000J0D01*
G01*
X3460000Y-18950000D02*
G75*
G02*
X3140000Y-18950000I-160000J0D01*
G01*
X3140000Y-18950000D02*
G75*
G02*
X3460000Y-18950000I160000J0D01*
G01*
X4160000Y-16050000D02*
G75*
G02*
X3840000Y-16050000I-160000J0D01*
G01*
X3840000Y-16050000D02*
G75*
G02*
X4160000Y-16050000I160000J0D01*
G01*
X9160000Y-16050000D02*
G75*
G02*
X8840000Y-16050000I-160000J0D01*
G01*
X8840000Y-16050000D02*
G75*
G02*
X9160000Y-16050000I160000J0D01*
G01*
X13760000Y-4800000D02*
G75*
G02*
X13440000Y-4800000I-160000J0D01*
G01*
X13440000Y-4800000D02*
G75*
G02*
X13760000Y-4800000I160000J0D01*
G01*
X15260000Y-5062250D02*
G75*
G02*
X14940000Y-5062250I-160000J0D01*
G01*
X14940000Y-5062250D02*
G75*
G02*
X15260000Y-5062250I160000J0D01*
G01*
X15260000Y-6205250D02*
G75*
G02*
X14940000Y-6205250I-160000J0D01*
G01*
X14940000Y-6205250D02*
G75*
G02*
X15260000Y-6205250I160000J0D01*
G01*
X15460000Y-18950000D02*
G75*
G02*
X15140000Y-18950000I-160000J0D01*
G01*
X15140000Y-18950000D02*
G75*
G02*
X15460000Y-18950000I160000J0D01*
G01*
D14*
X5850000Y-17658000D02*
X5850000Y-18058000D01*
X5650000Y-17858000D02*
X6050000Y-17858000D01*
X7750000Y-17658000D02*
X7750000Y-18058000D01*
X7550000Y-17858000D02*
X7950000Y-17858000D01*
X9650000Y-17658000D02*
X9650000Y-18058000D01*
X9450000Y-17858000D02*
X9850000Y-17858000D01*
X11550000Y-17658000D02*
X11550000Y-18058000D01*
X11350000Y-17858000D02*
X11750000Y-17858000D01*
D11*
X3158277Y-19663984D02*
X3158277Y-19463984D01*
X3158277Y-19463984D02*
X3205896Y-19463984D01*
X3205896Y-19463984D02*
X3234467Y-19473508D01*
X3234467Y-19473508D02*
X3253515Y-19492555D01*
X3253515Y-19492555D02*
X3263039Y-19511603D01*
X3263039Y-19511603D02*
X3272562Y-19549698D01*
X3272562Y-19549698D02*
X3272562Y-19578270D01*
X3272562Y-19578270D02*
X3263039Y-19616365D01*
X3263039Y-19616365D02*
X3253515Y-19635412D01*
X3253515Y-19635412D02*
X3234467Y-19654460D01*
X3234467Y-19654460D02*
X3205896Y-19663984D01*
X3205896Y-19663984D02*
X3158277Y-19663984D01*
X3358277Y-19663984D02*
X3358277Y-19530650D01*
X3358277Y-19568746D02*
X3367801Y-19549698D01*
X3367801Y-19549698D02*
X3377324Y-19540174D01*
X3377324Y-19540174D02*
X3396372Y-19530650D01*
X3396372Y-19530650D02*
X3415420Y-19530650D01*
X3482086Y-19663984D02*
X3482086Y-19530650D01*
X3482086Y-19463984D02*
X3472562Y-19473508D01*
X3472562Y-19473508D02*
X3482086Y-19483031D01*
X3482086Y-19483031D02*
X3491610Y-19473508D01*
X3491610Y-19473508D02*
X3482086Y-19463984D01*
X3482086Y-19463984D02*
X3482086Y-19483031D01*
X3605896Y-19663984D02*
X3586848Y-19654460D01*
X3586848Y-19654460D02*
X3577324Y-19635412D01*
X3577324Y-19635412D02*
X3577324Y-19463984D01*
X3710658Y-19663984D02*
X3691610Y-19654460D01*
X3691610Y-19654460D02*
X3682086Y-19635412D01*
X3682086Y-19635412D02*
X3682086Y-19463984D01*
X3939229Y-19663984D02*
X3939229Y-19463984D01*
X3939229Y-19463984D02*
X4005896Y-19606841D01*
X4005896Y-19606841D02*
X4072562Y-19463984D01*
X4072562Y-19463984D02*
X4072562Y-19663984D01*
X4253515Y-19663984D02*
X4253515Y-19559222D01*
X4253515Y-19559222D02*
X4243991Y-19540174D01*
X4243991Y-19540174D02*
X4224944Y-19530650D01*
X4224944Y-19530650D02*
X4186848Y-19530650D01*
X4186848Y-19530650D02*
X4167801Y-19540174D01*
X4253515Y-19654460D02*
X4234467Y-19663984D01*
X4234467Y-19663984D02*
X4186848Y-19663984D01*
X4186848Y-19663984D02*
X4167801Y-19654460D01*
X4167801Y-19654460D02*
X4158277Y-19635412D01*
X4158277Y-19635412D02*
X4158277Y-19616365D01*
X4158277Y-19616365D02*
X4167801Y-19597317D01*
X4167801Y-19597317D02*
X4186848Y-19587793D01*
X4186848Y-19587793D02*
X4234467Y-19587793D01*
X4234467Y-19587793D02*
X4253515Y-19578270D01*
X4348753Y-19530650D02*
X4348753Y-19730650D01*
X4348753Y-19540174D02*
X4367801Y-19530650D01*
X4367801Y-19530650D02*
X4405896Y-19530650D01*
X4405896Y-19530650D02*
X4424944Y-19540174D01*
X4424944Y-19540174D02*
X4434467Y-19549698D01*
X4434467Y-19549698D02*
X4443991Y-19568746D01*
X4443991Y-19568746D02*
X4443991Y-19625889D01*
X4443991Y-19625889D02*
X4434467Y-19644936D01*
X4434467Y-19644936D02*
X4424944Y-19654460D01*
X4424944Y-19654460D02*
X4405896Y-19663984D01*
X4405896Y-19663984D02*
X4367801Y-19663984D01*
X4367801Y-19663984D02*
X4348753Y-19654460D01*
X4529705Y-19644936D02*
X4539229Y-19654460D01*
X4539229Y-19654460D02*
X4529705Y-19663984D01*
X4529705Y-19663984D02*
X4520182Y-19654460D01*
X4520182Y-19654460D02*
X4529705Y-19644936D01*
X4529705Y-19644936D02*
X4529705Y-19663984D01*
X4529705Y-19540174D02*
X4539229Y-19549698D01*
X4539229Y-19549698D02*
X4529705Y-19559222D01*
X4529705Y-19559222D02*
X4520182Y-19549698D01*
X4520182Y-19549698D02*
X4529705Y-19540174D01*
X4529705Y-19540174D02*
X4529705Y-19559222D01*
D12*
X2727500Y-19907500D02*
X2897500Y-20077500D01*
X2897500Y-19907500D02*
X2727500Y-20077500D01*
D11*
X3263039Y-20083984D02*
X3148753Y-20083984D01*
X3205896Y-20083984D02*
X3205896Y-19883984D01*
X3205896Y-19883984D02*
X3186848Y-19912555D01*
X3186848Y-19912555D02*
X3167801Y-19931603D01*
X3167801Y-19931603D02*
X3148753Y-19941127D01*
X3348753Y-20064936D02*
X3358277Y-20074460D01*
X3358277Y-20074460D02*
X3348753Y-20083984D01*
X3348753Y-20083984D02*
X3339229Y-20074460D01*
X3339229Y-20074460D02*
X3348753Y-20064936D01*
X3348753Y-20064936D02*
X3348753Y-20083984D01*
X3424943Y-19883984D02*
X3558277Y-19883984D01*
X3558277Y-19883984D02*
X3472562Y-20083984D01*
X3672562Y-19883984D02*
X3691610Y-19883984D01*
X3691610Y-19883984D02*
X3710658Y-19893508D01*
X3710658Y-19893508D02*
X3720182Y-19903031D01*
X3720182Y-19903031D02*
X3729705Y-19922079D01*
X3729705Y-19922079D02*
X3739229Y-19960174D01*
X3739229Y-19960174D02*
X3739229Y-20007793D01*
X3739229Y-20007793D02*
X3729705Y-20045889D01*
X3729705Y-20045889D02*
X3720182Y-20064936D01*
X3720182Y-20064936D02*
X3710658Y-20074460D01*
X3710658Y-20074460D02*
X3691610Y-20083984D01*
X3691610Y-20083984D02*
X3672562Y-20083984D01*
X3672562Y-20083984D02*
X3653515Y-20074460D01*
X3653515Y-20074460D02*
X3643991Y-20064936D01*
X3643991Y-20064936D02*
X3634467Y-20045889D01*
X3634467Y-20045889D02*
X3624943Y-20007793D01*
X3624943Y-20007793D02*
X3624943Y-19960174D01*
X3624943Y-19960174D02*
X3634467Y-19922079D01*
X3634467Y-19922079D02*
X3643991Y-19903031D01*
X3643991Y-19903031D02*
X3653515Y-19893508D01*
X3653515Y-19893508D02*
X3672562Y-19883984D01*
X3863039Y-19883984D02*
X3882086Y-19883984D01*
X3882086Y-19883984D02*
X3901134Y-19893508D01*
X3901134Y-19893508D02*
X3910658Y-19903031D01*
X3910658Y-19903031D02*
X3920182Y-19922079D01*
X3920182Y-19922079D02*
X3929705Y-19960174D01*
X3929705Y-19960174D02*
X3929705Y-20007793D01*
X3929705Y-20007793D02*
X3920182Y-20045889D01*
X3920182Y-20045889D02*
X3910658Y-20064936D01*
X3910658Y-20064936D02*
X3901134Y-20074460D01*
X3901134Y-20074460D02*
X3882086Y-20083984D01*
X3882086Y-20083984D02*
X3863039Y-20083984D01*
X3863039Y-20083984D02*
X3843991Y-20074460D01*
X3843991Y-20074460D02*
X3834467Y-20064936D01*
X3834467Y-20064936D02*
X3824943Y-20045889D01*
X3824943Y-20045889D02*
X3815420Y-20007793D01*
X3815420Y-20007793D02*
X3815420Y-19960174D01*
X3815420Y-19960174D02*
X3824943Y-19922079D01*
X3824943Y-19922079D02*
X3834467Y-19903031D01*
X3834467Y-19903031D02*
X3843991Y-19893508D01*
X3843991Y-19893508D02*
X3863039Y-19883984D01*
X4015420Y-20083984D02*
X4015420Y-19950650D01*
X4015420Y-19969698D02*
X4024943Y-19960174D01*
X4024943Y-19960174D02*
X4043991Y-19950650D01*
X4043991Y-19950650D02*
X4072563Y-19950650D01*
X4072563Y-19950650D02*
X4091610Y-19960174D01*
X4091610Y-19960174D02*
X4101134Y-19979222D01*
X4101134Y-19979222D02*
X4101134Y-20083984D01*
X4101134Y-19979222D02*
X4110658Y-19960174D01*
X4110658Y-19960174D02*
X4129705Y-19950650D01*
X4129705Y-19950650D02*
X4158277Y-19950650D01*
X4158277Y-19950650D02*
X4177324Y-19960174D01*
X4177324Y-19960174D02*
X4186848Y-19979222D01*
X4186848Y-19979222D02*
X4186848Y-20083984D01*
X4282086Y-20083984D02*
X4282086Y-19950650D01*
X4282086Y-19969698D02*
X4291610Y-19960174D01*
X4291610Y-19960174D02*
X4310658Y-19950650D01*
X4310658Y-19950650D02*
X4339229Y-19950650D01*
X4339229Y-19950650D02*
X4358277Y-19960174D01*
X4358277Y-19960174D02*
X4367801Y-19979222D01*
X4367801Y-19979222D02*
X4367801Y-20083984D01*
X4367801Y-19979222D02*
X4377325Y-19960174D01*
X4377325Y-19960174D02*
X4396372Y-19950650D01*
X4396372Y-19950650D02*
X4424944Y-19950650D01*
X4424944Y-19950650D02*
X4443991Y-19960174D01*
X4443991Y-19960174D02*
X4453515Y-19979222D01*
X4453515Y-19979222D02*
X4453515Y-20083984D01*
X4843991Y-19874460D02*
X4672563Y-20131603D01*
X5101134Y-19883984D02*
X5120182Y-19883984D01*
X5120182Y-19883984D02*
X5139229Y-19893508D01*
X5139229Y-19893508D02*
X5148753Y-19903031D01*
X5148753Y-19903031D02*
X5158277Y-19922079D01*
X5158277Y-19922079D02*
X5167801Y-19960174D01*
X5167801Y-19960174D02*
X5167801Y-20007793D01*
X5167801Y-20007793D02*
X5158277Y-20045889D01*
X5158277Y-20045889D02*
X5148753Y-20064936D01*
X5148753Y-20064936D02*
X5139229Y-20074460D01*
X5139229Y-20074460D02*
X5120182Y-20083984D01*
X5120182Y-20083984D02*
X5101134Y-20083984D01*
X5101134Y-20083984D02*
X5082087Y-20074460D01*
X5082087Y-20074460D02*
X5072563Y-20064936D01*
X5072563Y-20064936D02*
X5063039Y-20045889D01*
X5063039Y-20045889D02*
X5053515Y-20007793D01*
X5053515Y-20007793D02*
X5053515Y-19960174D01*
X5053515Y-19960174D02*
X5063039Y-19922079D01*
X5063039Y-19922079D02*
X5072563Y-19903031D01*
X5072563Y-19903031D02*
X5082087Y-19893508D01*
X5082087Y-19893508D02*
X5101134Y-19883984D01*
X5253515Y-20064936D02*
X5263039Y-20074460D01*
X5263039Y-20074460D02*
X5253515Y-20083984D01*
X5253515Y-20083984D02*
X5243991Y-20074460D01*
X5243991Y-20074460D02*
X5253515Y-20064936D01*
X5253515Y-20064936D02*
X5253515Y-20083984D01*
X5386848Y-19883984D02*
X5405896Y-19883984D01*
X5405896Y-19883984D02*
X5424944Y-19893508D01*
X5424944Y-19893508D02*
X5434468Y-19903031D01*
X5434468Y-19903031D02*
X5443991Y-19922079D01*
X5443991Y-19922079D02*
X5453515Y-19960174D01*
X5453515Y-19960174D02*
X5453515Y-20007793D01*
X5453515Y-20007793D02*
X5443991Y-20045889D01*
X5443991Y-20045889D02*
X5434468Y-20064936D01*
X5434468Y-20064936D02*
X5424944Y-20074460D01*
X5424944Y-20074460D02*
X5405896Y-20083984D01*
X5405896Y-20083984D02*
X5386848Y-20083984D01*
X5386848Y-20083984D02*
X5367801Y-20074460D01*
X5367801Y-20074460D02*
X5358277Y-20064936D01*
X5358277Y-20064936D02*
X5348753Y-20045889D01*
X5348753Y-20045889D02*
X5339229Y-20007793D01*
X5339229Y-20007793D02*
X5339229Y-19960174D01*
X5339229Y-19960174D02*
X5348753Y-19922079D01*
X5348753Y-19922079D02*
X5358277Y-19903031D01*
X5358277Y-19903031D02*
X5367801Y-19893508D01*
X5367801Y-19893508D02*
X5386848Y-19883984D01*
X5624944Y-19883984D02*
X5586848Y-19883984D01*
X5586848Y-19883984D02*
X5567801Y-19893508D01*
X5567801Y-19893508D02*
X5558277Y-19903031D01*
X5558277Y-19903031D02*
X5539229Y-19931603D01*
X5539229Y-19931603D02*
X5529706Y-19969698D01*
X5529706Y-19969698D02*
X5529706Y-20045889D01*
X5529706Y-20045889D02*
X5539229Y-20064936D01*
X5539229Y-20064936D02*
X5548753Y-20074460D01*
X5548753Y-20074460D02*
X5567801Y-20083984D01*
X5567801Y-20083984D02*
X5605896Y-20083984D01*
X5605896Y-20083984D02*
X5624944Y-20074460D01*
X5624944Y-20074460D02*
X5634467Y-20064936D01*
X5634467Y-20064936D02*
X5643991Y-20045889D01*
X5643991Y-20045889D02*
X5643991Y-19998270D01*
X5643991Y-19998270D02*
X5634467Y-19979222D01*
X5634467Y-19979222D02*
X5624944Y-19969698D01*
X5624944Y-19969698D02*
X5605896Y-19960174D01*
X5605896Y-19960174D02*
X5567801Y-19960174D01*
X5567801Y-19960174D02*
X5548753Y-19969698D01*
X5548753Y-19969698D02*
X5539229Y-19979222D01*
X5539229Y-19979222D02*
X5529706Y-19998270D01*
X5815420Y-19883984D02*
X5777325Y-19883984D01*
X5777325Y-19883984D02*
X5758277Y-19893508D01*
X5758277Y-19893508D02*
X5748753Y-19903031D01*
X5748753Y-19903031D02*
X5729706Y-19931603D01*
X5729706Y-19931603D02*
X5720182Y-19969698D01*
X5720182Y-19969698D02*
X5720182Y-20045889D01*
X5720182Y-20045889D02*
X5729706Y-20064936D01*
X5729706Y-20064936D02*
X5739229Y-20074460D01*
X5739229Y-20074460D02*
X5758277Y-20083984D01*
X5758277Y-20083984D02*
X5796372Y-20083984D01*
X5796372Y-20083984D02*
X5815420Y-20074460D01*
X5815420Y-20074460D02*
X5824944Y-20064936D01*
X5824944Y-20064936D02*
X5834467Y-20045889D01*
X5834467Y-20045889D02*
X5834467Y-19998270D01*
X5834467Y-19998270D02*
X5824944Y-19979222D01*
X5824944Y-19979222D02*
X5815420Y-19969698D01*
X5815420Y-19969698D02*
X5796372Y-19960174D01*
X5796372Y-19960174D02*
X5758277Y-19960174D01*
X5758277Y-19960174D02*
X5739229Y-19969698D01*
X5739229Y-19969698D02*
X5729706Y-19979222D01*
X5729706Y-19979222D02*
X5720182Y-19998270D01*
X5929706Y-20083984D02*
X5967801Y-20083984D01*
X5967801Y-20083984D02*
X5986848Y-20074460D01*
X5986848Y-20074460D02*
X5996372Y-20064936D01*
X5996372Y-20064936D02*
X6015420Y-20036365D01*
X6015420Y-20036365D02*
X6024944Y-19998270D01*
X6024944Y-19998270D02*
X6024944Y-19922079D01*
X6024944Y-19922079D02*
X6015420Y-19903031D01*
X6015420Y-19903031D02*
X6005896Y-19893508D01*
X6005896Y-19893508D02*
X5986848Y-19883984D01*
X5986848Y-19883984D02*
X5948753Y-19883984D01*
X5948753Y-19883984D02*
X5929706Y-19893508D01*
X5929706Y-19893508D02*
X5920182Y-19903031D01*
X5920182Y-19903031D02*
X5910658Y-19922079D01*
X5910658Y-19922079D02*
X5910658Y-19969698D01*
X5910658Y-19969698D02*
X5920182Y-19988746D01*
X5920182Y-19988746D02*
X5929706Y-19998270D01*
X5929706Y-19998270D02*
X5948753Y-20007793D01*
X5948753Y-20007793D02*
X5986848Y-20007793D01*
X5986848Y-20007793D02*
X6005896Y-19998270D01*
X6005896Y-19998270D02*
X6015420Y-19988746D01*
X6015420Y-19988746D02*
X6024944Y-19969698D01*
X6101134Y-19883984D02*
X6101134Y-19922079D01*
X6177325Y-19883984D02*
X6177325Y-19922079D01*
X6472563Y-20160174D02*
X6463039Y-20150650D01*
X6463039Y-20150650D02*
X6443991Y-20122079D01*
X6443991Y-20122079D02*
X6434468Y-20103031D01*
X6434468Y-20103031D02*
X6424944Y-20074460D01*
X6424944Y-20074460D02*
X6415420Y-20026841D01*
X6415420Y-20026841D02*
X6415420Y-19988746D01*
X6415420Y-19988746D02*
X6424944Y-19941127D01*
X6424944Y-19941127D02*
X6434468Y-19912555D01*
X6434468Y-19912555D02*
X6443991Y-19893508D01*
X6443991Y-19893508D02*
X6463039Y-19864936D01*
X6463039Y-19864936D02*
X6472563Y-19855412D01*
X6577325Y-19969698D02*
X6558277Y-19960174D01*
X6558277Y-19960174D02*
X6548753Y-19950650D01*
X6548753Y-19950650D02*
X6539229Y-19931603D01*
X6539229Y-19931603D02*
X6539229Y-19922079D01*
X6539229Y-19922079D02*
X6548753Y-19903031D01*
X6548753Y-19903031D02*
X6558277Y-19893508D01*
X6558277Y-19893508D02*
X6577325Y-19883984D01*
X6577325Y-19883984D02*
X6615420Y-19883984D01*
X6615420Y-19883984D02*
X6634468Y-19893508D01*
X6634468Y-19893508D02*
X6643991Y-19903031D01*
X6643991Y-19903031D02*
X6653515Y-19922079D01*
X6653515Y-19922079D02*
X6653515Y-19931603D01*
X6653515Y-19931603D02*
X6643991Y-19950650D01*
X6643991Y-19950650D02*
X6634468Y-19960174D01*
X6634468Y-19960174D02*
X6615420Y-19969698D01*
X6615420Y-19969698D02*
X6577325Y-19969698D01*
X6577325Y-19969698D02*
X6558277Y-19979222D01*
X6558277Y-19979222D02*
X6548753Y-19988746D01*
X6548753Y-19988746D02*
X6539229Y-20007793D01*
X6539229Y-20007793D02*
X6539229Y-20045889D01*
X6539229Y-20045889D02*
X6548753Y-20064936D01*
X6548753Y-20064936D02*
X6558277Y-20074460D01*
X6558277Y-20074460D02*
X6577325Y-20083984D01*
X6577325Y-20083984D02*
X6615420Y-20083984D01*
X6615420Y-20083984D02*
X6634468Y-20074460D01*
X6634468Y-20074460D02*
X6643991Y-20064936D01*
X6643991Y-20064936D02*
X6653515Y-20045889D01*
X6653515Y-20045889D02*
X6653515Y-20007793D01*
X6653515Y-20007793D02*
X6643991Y-19988746D01*
X6643991Y-19988746D02*
X6634468Y-19979222D01*
X6634468Y-19979222D02*
X6615420Y-19969698D01*
X6891610Y-20083984D02*
X6891610Y-19883984D01*
X6977325Y-20083984D02*
X6977325Y-19979222D01*
X6977325Y-19979222D02*
X6967801Y-19960174D01*
X6967801Y-19960174D02*
X6948753Y-19950650D01*
X6948753Y-19950650D02*
X6920182Y-19950650D01*
X6920182Y-19950650D02*
X6901134Y-19960174D01*
X6901134Y-19960174D02*
X6891610Y-19969698D01*
X7101134Y-20083984D02*
X7082087Y-20074460D01*
X7082087Y-20074460D02*
X7072563Y-20064936D01*
X7072563Y-20064936D02*
X7063039Y-20045889D01*
X7063039Y-20045889D02*
X7063039Y-19988746D01*
X7063039Y-19988746D02*
X7072563Y-19969698D01*
X7072563Y-19969698D02*
X7082087Y-19960174D01*
X7082087Y-19960174D02*
X7101134Y-19950650D01*
X7101134Y-19950650D02*
X7129706Y-19950650D01*
X7129706Y-19950650D02*
X7148753Y-19960174D01*
X7148753Y-19960174D02*
X7158277Y-19969698D01*
X7158277Y-19969698D02*
X7167801Y-19988746D01*
X7167801Y-19988746D02*
X7167801Y-20045889D01*
X7167801Y-20045889D02*
X7158277Y-20064936D01*
X7158277Y-20064936D02*
X7148753Y-20074460D01*
X7148753Y-20074460D02*
X7129706Y-20083984D01*
X7129706Y-20083984D02*
X7101134Y-20083984D01*
X7282087Y-20083984D02*
X7263039Y-20074460D01*
X7263039Y-20074460D02*
X7253515Y-20055412D01*
X7253515Y-20055412D02*
X7253515Y-19883984D01*
X7434468Y-20074460D02*
X7415420Y-20083984D01*
X7415420Y-20083984D02*
X7377325Y-20083984D01*
X7377325Y-20083984D02*
X7358277Y-20074460D01*
X7358277Y-20074460D02*
X7348753Y-20055412D01*
X7348753Y-20055412D02*
X7348753Y-19979222D01*
X7348753Y-19979222D02*
X7358277Y-19960174D01*
X7358277Y-19960174D02*
X7377325Y-19950650D01*
X7377325Y-19950650D02*
X7415420Y-19950650D01*
X7415420Y-19950650D02*
X7434468Y-19960174D01*
X7434468Y-19960174D02*
X7443991Y-19979222D01*
X7443991Y-19979222D02*
X7443991Y-19998270D01*
X7443991Y-19998270D02*
X7348753Y-20017317D01*
X7520182Y-20074460D02*
X7539230Y-20083984D01*
X7539230Y-20083984D02*
X7577325Y-20083984D01*
X7577325Y-20083984D02*
X7596372Y-20074460D01*
X7596372Y-20074460D02*
X7605896Y-20055412D01*
X7605896Y-20055412D02*
X7605896Y-20045889D01*
X7605896Y-20045889D02*
X7596372Y-20026841D01*
X7596372Y-20026841D02*
X7577325Y-20017317D01*
X7577325Y-20017317D02*
X7548753Y-20017317D01*
X7548753Y-20017317D02*
X7529706Y-20007793D01*
X7529706Y-20007793D02*
X7520182Y-19988746D01*
X7520182Y-19988746D02*
X7520182Y-19979222D01*
X7520182Y-19979222D02*
X7529706Y-19960174D01*
X7529706Y-19960174D02*
X7548753Y-19950650D01*
X7548753Y-19950650D02*
X7577325Y-19950650D01*
X7577325Y-19950650D02*
X7596372Y-19960174D01*
X7672563Y-20160174D02*
X7682087Y-20150650D01*
X7682087Y-20150650D02*
X7701134Y-20122079D01*
X7701134Y-20122079D02*
X7710658Y-20103031D01*
X7710658Y-20103031D02*
X7720182Y-20074460D01*
X7720182Y-20074460D02*
X7729706Y-20026841D01*
X7729706Y-20026841D02*
X7729706Y-19988746D01*
X7729706Y-19988746D02*
X7720182Y-19941127D01*
X7720182Y-19941127D02*
X7710658Y-19912555D01*
X7710658Y-19912555D02*
X7701134Y-19893508D01*
X7701134Y-19893508D02*
X7682087Y-19864936D01*
X7682087Y-19864936D02*
X7672563Y-19855412D01*
X8034468Y-20160174D02*
X8024944Y-20150650D01*
X8024944Y-20150650D02*
X8005896Y-20122079D01*
X8005896Y-20122079D02*
X7996372Y-20103031D01*
X7996372Y-20103031D02*
X7986849Y-20074460D01*
X7986849Y-20074460D02*
X7977325Y-20026841D01*
X7977325Y-20026841D02*
X7977325Y-19988746D01*
X7977325Y-19988746D02*
X7986849Y-19941127D01*
X7986849Y-19941127D02*
X7996372Y-19912555D01*
X7996372Y-19912555D02*
X8005896Y-19893508D01*
X8005896Y-19893508D02*
X8024944Y-19864936D01*
X8024944Y-19864936D02*
X8034468Y-19855412D01*
X8110658Y-19950650D02*
X8110658Y-20083984D01*
X8110658Y-19969698D02*
X8120182Y-19960174D01*
X8120182Y-19960174D02*
X8139230Y-19950650D01*
X8139230Y-19950650D02*
X8167801Y-19950650D01*
X8167801Y-19950650D02*
X8186849Y-19960174D01*
X8186849Y-19960174D02*
X8196372Y-19979222D01*
X8196372Y-19979222D02*
X8196372Y-20083984D01*
X8320182Y-20083984D02*
X8301134Y-20074460D01*
X8301134Y-20074460D02*
X8291611Y-20064936D01*
X8291611Y-20064936D02*
X8282087Y-20045889D01*
X8282087Y-20045889D02*
X8282087Y-19988746D01*
X8282087Y-19988746D02*
X8291611Y-19969698D01*
X8291611Y-19969698D02*
X8301134Y-19960174D01*
X8301134Y-19960174D02*
X8320182Y-19950650D01*
X8320182Y-19950650D02*
X8348753Y-19950650D01*
X8348753Y-19950650D02*
X8367801Y-19960174D01*
X8367801Y-19960174D02*
X8377325Y-19969698D01*
X8377325Y-19969698D02*
X8386849Y-19988746D01*
X8386849Y-19988746D02*
X8386849Y-20045889D01*
X8386849Y-20045889D02*
X8377325Y-20064936D01*
X8377325Y-20064936D02*
X8367801Y-20074460D01*
X8367801Y-20074460D02*
X8348753Y-20083984D01*
X8348753Y-20083984D02*
X8320182Y-20083984D01*
X8443992Y-19950650D02*
X8520182Y-19950650D01*
X8472563Y-19883984D02*
X8472563Y-20055412D01*
X8472563Y-20055412D02*
X8482087Y-20074460D01*
X8482087Y-20074460D02*
X8501134Y-20083984D01*
X8501134Y-20083984D02*
X8520182Y-20083984D01*
X8739230Y-19950650D02*
X8739230Y-20150650D01*
X8739230Y-19960174D02*
X8758277Y-19950650D01*
X8758277Y-19950650D02*
X8796373Y-19950650D01*
X8796373Y-19950650D02*
X8815420Y-19960174D01*
X8815420Y-19960174D02*
X8824944Y-19969698D01*
X8824944Y-19969698D02*
X8834468Y-19988746D01*
X8834468Y-19988746D02*
X8834468Y-20045889D01*
X8834468Y-20045889D02*
X8824944Y-20064936D01*
X8824944Y-20064936D02*
X8815420Y-20074460D01*
X8815420Y-20074460D02*
X8796373Y-20083984D01*
X8796373Y-20083984D02*
X8758277Y-20083984D01*
X8758277Y-20083984D02*
X8739230Y-20074460D01*
X8948754Y-20083984D02*
X8929706Y-20074460D01*
X8929706Y-20074460D02*
X8920182Y-20055412D01*
X8920182Y-20055412D02*
X8920182Y-19883984D01*
X9110658Y-20083984D02*
X9110658Y-19979222D01*
X9110658Y-19979222D02*
X9101135Y-19960174D01*
X9101135Y-19960174D02*
X9082087Y-19950650D01*
X9082087Y-19950650D02*
X9043992Y-19950650D01*
X9043992Y-19950650D02*
X9024944Y-19960174D01*
X9110658Y-20074460D02*
X9091611Y-20083984D01*
X9091611Y-20083984D02*
X9043992Y-20083984D01*
X9043992Y-20083984D02*
X9024944Y-20074460D01*
X9024944Y-20074460D02*
X9015420Y-20055412D01*
X9015420Y-20055412D02*
X9015420Y-20036365D01*
X9015420Y-20036365D02*
X9024944Y-20017317D01*
X9024944Y-20017317D02*
X9043992Y-20007793D01*
X9043992Y-20007793D02*
X9091611Y-20007793D01*
X9091611Y-20007793D02*
X9110658Y-19998270D01*
X9177325Y-19950650D02*
X9253515Y-19950650D01*
X9205896Y-19883984D02*
X9205896Y-20055412D01*
X9205896Y-20055412D02*
X9215420Y-20074460D01*
X9215420Y-20074460D02*
X9234468Y-20083984D01*
X9234468Y-20083984D02*
X9253515Y-20083984D01*
X9396373Y-20074460D02*
X9377325Y-20083984D01*
X9377325Y-20083984D02*
X9339230Y-20083984D01*
X9339230Y-20083984D02*
X9320182Y-20074460D01*
X9320182Y-20074460D02*
X9310658Y-20055412D01*
X9310658Y-20055412D02*
X9310658Y-19979222D01*
X9310658Y-19979222D02*
X9320182Y-19960174D01*
X9320182Y-19960174D02*
X9339230Y-19950650D01*
X9339230Y-19950650D02*
X9377325Y-19950650D01*
X9377325Y-19950650D02*
X9396373Y-19960174D01*
X9396373Y-19960174D02*
X9405896Y-19979222D01*
X9405896Y-19979222D02*
X9405896Y-19998270D01*
X9405896Y-19998270D02*
X9310658Y-20017317D01*
X9577325Y-20083984D02*
X9577325Y-19883984D01*
X9577325Y-20074460D02*
X9558277Y-20083984D01*
X9558277Y-20083984D02*
X9520182Y-20083984D01*
X9520182Y-20083984D02*
X9501135Y-20074460D01*
X9501135Y-20074460D02*
X9491611Y-20064936D01*
X9491611Y-20064936D02*
X9482087Y-20045889D01*
X9482087Y-20045889D02*
X9482087Y-19988746D01*
X9482087Y-19988746D02*
X9491611Y-19969698D01*
X9491611Y-19969698D02*
X9501135Y-19960174D01*
X9501135Y-19960174D02*
X9520182Y-19950650D01*
X9520182Y-19950650D02*
X9558277Y-19950650D01*
X9558277Y-19950650D02*
X9577325Y-19960174D01*
X9653516Y-20160174D02*
X9663039Y-20150650D01*
X9663039Y-20150650D02*
X9682087Y-20122079D01*
X9682087Y-20122079D02*
X9691611Y-20103031D01*
X9691611Y-20103031D02*
X9701135Y-20074460D01*
X9701135Y-20074460D02*
X9710658Y-20026841D01*
X9710658Y-20026841D02*
X9710658Y-19988746D01*
X9710658Y-19988746D02*
X9701135Y-19941127D01*
X9701135Y-19941127D02*
X9691611Y-19912555D01*
X9691611Y-19912555D02*
X9682087Y-19893508D01*
X9682087Y-19893508D02*
X9663039Y-19864936D01*
X9663039Y-19864936D02*
X9653516Y-19855412D01*
X2897500Y-20282500D02*
G75*
G02*
X2697500Y-20282500I-100000J0D01*
G01*
X2697500Y-20282500D02*
G75*
G02*
X2897500Y-20282500I100000J0D01*
G01*
X3139229Y-20173984D02*
X3263039Y-20173984D01*
X3263039Y-20173984D02*
X3196372Y-20250174D01*
X3196372Y-20250174D02*
X3224943Y-20250174D01*
X3224943Y-20250174D02*
X3243991Y-20259698D01*
X3243991Y-20259698D02*
X3253515Y-20269222D01*
X3253515Y-20269222D02*
X3263039Y-20288270D01*
X3263039Y-20288270D02*
X3263039Y-20335889D01*
X3263039Y-20335889D02*
X3253515Y-20354936D01*
X3253515Y-20354936D02*
X3243991Y-20364460D01*
X3243991Y-20364460D02*
X3224943Y-20373984D01*
X3224943Y-20373984D02*
X3167801Y-20373984D01*
X3167801Y-20373984D02*
X3148753Y-20364460D01*
X3148753Y-20364460D02*
X3139229Y-20354936D01*
X3348753Y-20354936D02*
X3358277Y-20364460D01*
X3358277Y-20364460D02*
X3348753Y-20373984D01*
X3348753Y-20373984D02*
X3339229Y-20364460D01*
X3339229Y-20364460D02*
X3348753Y-20354936D01*
X3348753Y-20354936D02*
X3348753Y-20373984D01*
X3434467Y-20193031D02*
X3443991Y-20183508D01*
X3443991Y-20183508D02*
X3463039Y-20173984D01*
X3463039Y-20173984D02*
X3510658Y-20173984D01*
X3510658Y-20173984D02*
X3529705Y-20183508D01*
X3529705Y-20183508D02*
X3539229Y-20193031D01*
X3539229Y-20193031D02*
X3548753Y-20212079D01*
X3548753Y-20212079D02*
X3548753Y-20231127D01*
X3548753Y-20231127D02*
X3539229Y-20259698D01*
X3539229Y-20259698D02*
X3424943Y-20373984D01*
X3424943Y-20373984D02*
X3548753Y-20373984D01*
X3672562Y-20173984D02*
X3691610Y-20173984D01*
X3691610Y-20173984D02*
X3710658Y-20183508D01*
X3710658Y-20183508D02*
X3720182Y-20193031D01*
X3720182Y-20193031D02*
X3729705Y-20212079D01*
X3729705Y-20212079D02*
X3739229Y-20250174D01*
X3739229Y-20250174D02*
X3739229Y-20297793D01*
X3739229Y-20297793D02*
X3729705Y-20335889D01*
X3729705Y-20335889D02*
X3720182Y-20354936D01*
X3720182Y-20354936D02*
X3710658Y-20364460D01*
X3710658Y-20364460D02*
X3691610Y-20373984D01*
X3691610Y-20373984D02*
X3672562Y-20373984D01*
X3672562Y-20373984D02*
X3653515Y-20364460D01*
X3653515Y-20364460D02*
X3643991Y-20354936D01*
X3643991Y-20354936D02*
X3634467Y-20335889D01*
X3634467Y-20335889D02*
X3624943Y-20297793D01*
X3624943Y-20297793D02*
X3624943Y-20250174D01*
X3624943Y-20250174D02*
X3634467Y-20212079D01*
X3634467Y-20212079D02*
X3643991Y-20193031D01*
X3643991Y-20193031D02*
X3653515Y-20183508D01*
X3653515Y-20183508D02*
X3672562Y-20173984D01*
X3863039Y-20173984D02*
X3882086Y-20173984D01*
X3882086Y-20173984D02*
X3901134Y-20183508D01*
X3901134Y-20183508D02*
X3910658Y-20193031D01*
X3910658Y-20193031D02*
X3920182Y-20212079D01*
X3920182Y-20212079D02*
X3929705Y-20250174D01*
X3929705Y-20250174D02*
X3929705Y-20297793D01*
X3929705Y-20297793D02*
X3920182Y-20335889D01*
X3920182Y-20335889D02*
X3910658Y-20354936D01*
X3910658Y-20354936D02*
X3901134Y-20364460D01*
X3901134Y-20364460D02*
X3882086Y-20373984D01*
X3882086Y-20373984D02*
X3863039Y-20373984D01*
X3863039Y-20373984D02*
X3843991Y-20364460D01*
X3843991Y-20364460D02*
X3834467Y-20354936D01*
X3834467Y-20354936D02*
X3824943Y-20335889D01*
X3824943Y-20335889D02*
X3815420Y-20297793D01*
X3815420Y-20297793D02*
X3815420Y-20250174D01*
X3815420Y-20250174D02*
X3824943Y-20212079D01*
X3824943Y-20212079D02*
X3834467Y-20193031D01*
X3834467Y-20193031D02*
X3843991Y-20183508D01*
X3843991Y-20183508D02*
X3863039Y-20173984D01*
X4015420Y-20373984D02*
X4015420Y-20240650D01*
X4015420Y-20259698D02*
X4024943Y-20250174D01*
X4024943Y-20250174D02*
X4043991Y-20240650D01*
X4043991Y-20240650D02*
X4072563Y-20240650D01*
X4072563Y-20240650D02*
X4091610Y-20250174D01*
X4091610Y-20250174D02*
X4101134Y-20269222D01*
X4101134Y-20269222D02*
X4101134Y-20373984D01*
X4101134Y-20269222D02*
X4110658Y-20250174D01*
X4110658Y-20250174D02*
X4129705Y-20240650D01*
X4129705Y-20240650D02*
X4158277Y-20240650D01*
X4158277Y-20240650D02*
X4177324Y-20250174D01*
X4177324Y-20250174D02*
X4186848Y-20269222D01*
X4186848Y-20269222D02*
X4186848Y-20373984D01*
X4282086Y-20373984D02*
X4282086Y-20240650D01*
X4282086Y-20259698D02*
X4291610Y-20250174D01*
X4291610Y-20250174D02*
X4310658Y-20240650D01*
X4310658Y-20240650D02*
X4339229Y-20240650D01*
X4339229Y-20240650D02*
X4358277Y-20250174D01*
X4358277Y-20250174D02*
X4367801Y-20269222D01*
X4367801Y-20269222D02*
X4367801Y-20373984D01*
X4367801Y-20269222D02*
X4377325Y-20250174D01*
X4377325Y-20250174D02*
X4396372Y-20240650D01*
X4396372Y-20240650D02*
X4424944Y-20240650D01*
X4424944Y-20240650D02*
X4443991Y-20250174D01*
X4443991Y-20250174D02*
X4453515Y-20269222D01*
X4453515Y-20269222D02*
X4453515Y-20373984D01*
X4843991Y-20164460D02*
X4672563Y-20421603D01*
X5101134Y-20173984D02*
X5120182Y-20173984D01*
X5120182Y-20173984D02*
X5139229Y-20183508D01*
X5139229Y-20183508D02*
X5148753Y-20193031D01*
X5148753Y-20193031D02*
X5158277Y-20212079D01*
X5158277Y-20212079D02*
X5167801Y-20250174D01*
X5167801Y-20250174D02*
X5167801Y-20297793D01*
X5167801Y-20297793D02*
X5158277Y-20335889D01*
X5158277Y-20335889D02*
X5148753Y-20354936D01*
X5148753Y-20354936D02*
X5139229Y-20364460D01*
X5139229Y-20364460D02*
X5120182Y-20373984D01*
X5120182Y-20373984D02*
X5101134Y-20373984D01*
X5101134Y-20373984D02*
X5082087Y-20364460D01*
X5082087Y-20364460D02*
X5072563Y-20354936D01*
X5072563Y-20354936D02*
X5063039Y-20335889D01*
X5063039Y-20335889D02*
X5053515Y-20297793D01*
X5053515Y-20297793D02*
X5053515Y-20250174D01*
X5053515Y-20250174D02*
X5063039Y-20212079D01*
X5063039Y-20212079D02*
X5072563Y-20193031D01*
X5072563Y-20193031D02*
X5082087Y-20183508D01*
X5082087Y-20183508D02*
X5101134Y-20173984D01*
X5253515Y-20354936D02*
X5263039Y-20364460D01*
X5263039Y-20364460D02*
X5253515Y-20373984D01*
X5253515Y-20373984D02*
X5243991Y-20364460D01*
X5243991Y-20364460D02*
X5253515Y-20354936D01*
X5253515Y-20354936D02*
X5253515Y-20373984D01*
X5453515Y-20373984D02*
X5339229Y-20373984D01*
X5396372Y-20373984D02*
X5396372Y-20173984D01*
X5396372Y-20173984D02*
X5377325Y-20202555D01*
X5377325Y-20202555D02*
X5358277Y-20221603D01*
X5358277Y-20221603D02*
X5339229Y-20231127D01*
X5529706Y-20193031D02*
X5539229Y-20183508D01*
X5539229Y-20183508D02*
X5558277Y-20173984D01*
X5558277Y-20173984D02*
X5605896Y-20173984D01*
X5605896Y-20173984D02*
X5624944Y-20183508D01*
X5624944Y-20183508D02*
X5634467Y-20193031D01*
X5634467Y-20193031D02*
X5643991Y-20212079D01*
X5643991Y-20212079D02*
X5643991Y-20231127D01*
X5643991Y-20231127D02*
X5634467Y-20259698D01*
X5634467Y-20259698D02*
X5520182Y-20373984D01*
X5520182Y-20373984D02*
X5643991Y-20373984D01*
X5815420Y-20173984D02*
X5777325Y-20173984D01*
X5777325Y-20173984D02*
X5758277Y-20183508D01*
X5758277Y-20183508D02*
X5748753Y-20193031D01*
X5748753Y-20193031D02*
X5729706Y-20221603D01*
X5729706Y-20221603D02*
X5720182Y-20259698D01*
X5720182Y-20259698D02*
X5720182Y-20335889D01*
X5720182Y-20335889D02*
X5729706Y-20354936D01*
X5729706Y-20354936D02*
X5739229Y-20364460D01*
X5739229Y-20364460D02*
X5758277Y-20373984D01*
X5758277Y-20373984D02*
X5796372Y-20373984D01*
X5796372Y-20373984D02*
X5815420Y-20364460D01*
X5815420Y-20364460D02*
X5824944Y-20354936D01*
X5824944Y-20354936D02*
X5834467Y-20335889D01*
X5834467Y-20335889D02*
X5834467Y-20288270D01*
X5834467Y-20288270D02*
X5824944Y-20269222D01*
X5824944Y-20269222D02*
X5815420Y-20259698D01*
X5815420Y-20259698D02*
X5796372Y-20250174D01*
X5796372Y-20250174D02*
X5758277Y-20250174D01*
X5758277Y-20250174D02*
X5739229Y-20259698D01*
X5739229Y-20259698D02*
X5729706Y-20269222D01*
X5729706Y-20269222D02*
X5720182Y-20288270D01*
X5958277Y-20173984D02*
X5977325Y-20173984D01*
X5977325Y-20173984D02*
X5996372Y-20183508D01*
X5996372Y-20183508D02*
X6005896Y-20193031D01*
X6005896Y-20193031D02*
X6015420Y-20212079D01*
X6015420Y-20212079D02*
X6024944Y-20250174D01*
X6024944Y-20250174D02*
X6024944Y-20297793D01*
X6024944Y-20297793D02*
X6015420Y-20335889D01*
X6015420Y-20335889D02*
X6005896Y-20354936D01*
X6005896Y-20354936D02*
X5996372Y-20364460D01*
X5996372Y-20364460D02*
X5977325Y-20373984D01*
X5977325Y-20373984D02*
X5958277Y-20373984D01*
X5958277Y-20373984D02*
X5939229Y-20364460D01*
X5939229Y-20364460D02*
X5929706Y-20354936D01*
X5929706Y-20354936D02*
X5920182Y-20335889D01*
X5920182Y-20335889D02*
X5910658Y-20297793D01*
X5910658Y-20297793D02*
X5910658Y-20250174D01*
X5910658Y-20250174D02*
X5920182Y-20212079D01*
X5920182Y-20212079D02*
X5929706Y-20193031D01*
X5929706Y-20193031D02*
X5939229Y-20183508D01*
X5939229Y-20183508D02*
X5958277Y-20173984D01*
X6101134Y-20173984D02*
X6101134Y-20212079D01*
X6177325Y-20173984D02*
X6177325Y-20212079D01*
X6472563Y-20450174D02*
X6463039Y-20440650D01*
X6463039Y-20440650D02*
X6443991Y-20412079D01*
X6443991Y-20412079D02*
X6434468Y-20393031D01*
X6434468Y-20393031D02*
X6424944Y-20364460D01*
X6424944Y-20364460D02*
X6415420Y-20316841D01*
X6415420Y-20316841D02*
X6415420Y-20278746D01*
X6415420Y-20278746D02*
X6424944Y-20231127D01*
X6424944Y-20231127D02*
X6434468Y-20202555D01*
X6434468Y-20202555D02*
X6443991Y-20183508D01*
X6443991Y-20183508D02*
X6463039Y-20154936D01*
X6463039Y-20154936D02*
X6472563Y-20145412D01*
X6577325Y-20259698D02*
X6558277Y-20250174D01*
X6558277Y-20250174D02*
X6548753Y-20240650D01*
X6548753Y-20240650D02*
X6539229Y-20221603D01*
X6539229Y-20221603D02*
X6539229Y-20212079D01*
X6539229Y-20212079D02*
X6548753Y-20193031D01*
X6548753Y-20193031D02*
X6558277Y-20183508D01*
X6558277Y-20183508D02*
X6577325Y-20173984D01*
X6577325Y-20173984D02*
X6615420Y-20173984D01*
X6615420Y-20173984D02*
X6634468Y-20183508D01*
X6634468Y-20183508D02*
X6643991Y-20193031D01*
X6643991Y-20193031D02*
X6653515Y-20212079D01*
X6653515Y-20212079D02*
X6653515Y-20221603D01*
X6653515Y-20221603D02*
X6643991Y-20240650D01*
X6643991Y-20240650D02*
X6634468Y-20250174D01*
X6634468Y-20250174D02*
X6615420Y-20259698D01*
X6615420Y-20259698D02*
X6577325Y-20259698D01*
X6577325Y-20259698D02*
X6558277Y-20269222D01*
X6558277Y-20269222D02*
X6548753Y-20278746D01*
X6548753Y-20278746D02*
X6539229Y-20297793D01*
X6539229Y-20297793D02*
X6539229Y-20335889D01*
X6539229Y-20335889D02*
X6548753Y-20354936D01*
X6548753Y-20354936D02*
X6558277Y-20364460D01*
X6558277Y-20364460D02*
X6577325Y-20373984D01*
X6577325Y-20373984D02*
X6615420Y-20373984D01*
X6615420Y-20373984D02*
X6634468Y-20364460D01*
X6634468Y-20364460D02*
X6643991Y-20354936D01*
X6643991Y-20354936D02*
X6653515Y-20335889D01*
X6653515Y-20335889D02*
X6653515Y-20297793D01*
X6653515Y-20297793D02*
X6643991Y-20278746D01*
X6643991Y-20278746D02*
X6634468Y-20269222D01*
X6634468Y-20269222D02*
X6615420Y-20259698D01*
X6891610Y-20373984D02*
X6891610Y-20173984D01*
X6977325Y-20373984D02*
X6977325Y-20269222D01*
X6977325Y-20269222D02*
X6967801Y-20250174D01*
X6967801Y-20250174D02*
X6948753Y-20240650D01*
X6948753Y-20240650D02*
X6920182Y-20240650D01*
X6920182Y-20240650D02*
X6901134Y-20250174D01*
X6901134Y-20250174D02*
X6891610Y-20259698D01*
X7101134Y-20373984D02*
X7082087Y-20364460D01*
X7082087Y-20364460D02*
X7072563Y-20354936D01*
X7072563Y-20354936D02*
X7063039Y-20335889D01*
X7063039Y-20335889D02*
X7063039Y-20278746D01*
X7063039Y-20278746D02*
X7072563Y-20259698D01*
X7072563Y-20259698D02*
X7082087Y-20250174D01*
X7082087Y-20250174D02*
X7101134Y-20240650D01*
X7101134Y-20240650D02*
X7129706Y-20240650D01*
X7129706Y-20240650D02*
X7148753Y-20250174D01*
X7148753Y-20250174D02*
X7158277Y-20259698D01*
X7158277Y-20259698D02*
X7167801Y-20278746D01*
X7167801Y-20278746D02*
X7167801Y-20335889D01*
X7167801Y-20335889D02*
X7158277Y-20354936D01*
X7158277Y-20354936D02*
X7148753Y-20364460D01*
X7148753Y-20364460D02*
X7129706Y-20373984D01*
X7129706Y-20373984D02*
X7101134Y-20373984D01*
X7282087Y-20373984D02*
X7263039Y-20364460D01*
X7263039Y-20364460D02*
X7253515Y-20345412D01*
X7253515Y-20345412D02*
X7253515Y-20173984D01*
X7434468Y-20364460D02*
X7415420Y-20373984D01*
X7415420Y-20373984D02*
X7377325Y-20373984D01*
X7377325Y-20373984D02*
X7358277Y-20364460D01*
X7358277Y-20364460D02*
X7348753Y-20345412D01*
X7348753Y-20345412D02*
X7348753Y-20269222D01*
X7348753Y-20269222D02*
X7358277Y-20250174D01*
X7358277Y-20250174D02*
X7377325Y-20240650D01*
X7377325Y-20240650D02*
X7415420Y-20240650D01*
X7415420Y-20240650D02*
X7434468Y-20250174D01*
X7434468Y-20250174D02*
X7443991Y-20269222D01*
X7443991Y-20269222D02*
X7443991Y-20288270D01*
X7443991Y-20288270D02*
X7348753Y-20307317D01*
X7520182Y-20364460D02*
X7539230Y-20373984D01*
X7539230Y-20373984D02*
X7577325Y-20373984D01*
X7577325Y-20373984D02*
X7596372Y-20364460D01*
X7596372Y-20364460D02*
X7605896Y-20345412D01*
X7605896Y-20345412D02*
X7605896Y-20335889D01*
X7605896Y-20335889D02*
X7596372Y-20316841D01*
X7596372Y-20316841D02*
X7577325Y-20307317D01*
X7577325Y-20307317D02*
X7548753Y-20307317D01*
X7548753Y-20307317D02*
X7529706Y-20297793D01*
X7529706Y-20297793D02*
X7520182Y-20278746D01*
X7520182Y-20278746D02*
X7520182Y-20269222D01*
X7520182Y-20269222D02*
X7529706Y-20250174D01*
X7529706Y-20250174D02*
X7548753Y-20240650D01*
X7548753Y-20240650D02*
X7577325Y-20240650D01*
X7577325Y-20240650D02*
X7596372Y-20250174D01*
X7672563Y-20450174D02*
X7682087Y-20440650D01*
X7682087Y-20440650D02*
X7701134Y-20412079D01*
X7701134Y-20412079D02*
X7710658Y-20393031D01*
X7710658Y-20393031D02*
X7720182Y-20364460D01*
X7720182Y-20364460D02*
X7729706Y-20316841D01*
X7729706Y-20316841D02*
X7729706Y-20278746D01*
X7729706Y-20278746D02*
X7720182Y-20231127D01*
X7720182Y-20231127D02*
X7710658Y-20202555D01*
X7710658Y-20202555D02*
X7701134Y-20183508D01*
X7701134Y-20183508D02*
X7682087Y-20154936D01*
X7682087Y-20154936D02*
X7672563Y-20145412D01*
X8034468Y-20450174D02*
X8024944Y-20440650D01*
X8024944Y-20440650D02*
X8005896Y-20412079D01*
X8005896Y-20412079D02*
X7996372Y-20393031D01*
X7996372Y-20393031D02*
X7986849Y-20364460D01*
X7986849Y-20364460D02*
X7977325Y-20316841D01*
X7977325Y-20316841D02*
X7977325Y-20278746D01*
X7977325Y-20278746D02*
X7986849Y-20231127D01*
X7986849Y-20231127D02*
X7996372Y-20202555D01*
X7996372Y-20202555D02*
X8005896Y-20183508D01*
X8005896Y-20183508D02*
X8024944Y-20154936D01*
X8024944Y-20154936D02*
X8034468Y-20145412D01*
X8110658Y-20240650D02*
X8110658Y-20373984D01*
X8110658Y-20259698D02*
X8120182Y-20250174D01*
X8120182Y-20250174D02*
X8139230Y-20240650D01*
X8139230Y-20240650D02*
X8167801Y-20240650D01*
X8167801Y-20240650D02*
X8186849Y-20250174D01*
X8186849Y-20250174D02*
X8196372Y-20269222D01*
X8196372Y-20269222D02*
X8196372Y-20373984D01*
X8320182Y-20373984D02*
X8301134Y-20364460D01*
X8301134Y-20364460D02*
X8291611Y-20354936D01*
X8291611Y-20354936D02*
X8282087Y-20335889D01*
X8282087Y-20335889D02*
X8282087Y-20278746D01*
X8282087Y-20278746D02*
X8291611Y-20259698D01*
X8291611Y-20259698D02*
X8301134Y-20250174D01*
X8301134Y-20250174D02*
X8320182Y-20240650D01*
X8320182Y-20240650D02*
X8348753Y-20240650D01*
X8348753Y-20240650D02*
X8367801Y-20250174D01*
X8367801Y-20250174D02*
X8377325Y-20259698D01*
X8377325Y-20259698D02*
X8386849Y-20278746D01*
X8386849Y-20278746D02*
X8386849Y-20335889D01*
X8386849Y-20335889D02*
X8377325Y-20354936D01*
X8377325Y-20354936D02*
X8367801Y-20364460D01*
X8367801Y-20364460D02*
X8348753Y-20373984D01*
X8348753Y-20373984D02*
X8320182Y-20373984D01*
X8443992Y-20240650D02*
X8520182Y-20240650D01*
X8472563Y-20173984D02*
X8472563Y-20345412D01*
X8472563Y-20345412D02*
X8482087Y-20364460D01*
X8482087Y-20364460D02*
X8501134Y-20373984D01*
X8501134Y-20373984D02*
X8520182Y-20373984D01*
X8739230Y-20240650D02*
X8739230Y-20440650D01*
X8739230Y-20250174D02*
X8758277Y-20240650D01*
X8758277Y-20240650D02*
X8796373Y-20240650D01*
X8796373Y-20240650D02*
X8815420Y-20250174D01*
X8815420Y-20250174D02*
X8824944Y-20259698D01*
X8824944Y-20259698D02*
X8834468Y-20278746D01*
X8834468Y-20278746D02*
X8834468Y-20335889D01*
X8834468Y-20335889D02*
X8824944Y-20354936D01*
X8824944Y-20354936D02*
X8815420Y-20364460D01*
X8815420Y-20364460D02*
X8796373Y-20373984D01*
X8796373Y-20373984D02*
X8758277Y-20373984D01*
X8758277Y-20373984D02*
X8739230Y-20364460D01*
X8948754Y-20373984D02*
X8929706Y-20364460D01*
X8929706Y-20364460D02*
X8920182Y-20345412D01*
X8920182Y-20345412D02*
X8920182Y-20173984D01*
X9110658Y-20373984D02*
X9110658Y-20269222D01*
X9110658Y-20269222D02*
X9101135Y-20250174D01*
X9101135Y-20250174D02*
X9082087Y-20240650D01*
X9082087Y-20240650D02*
X9043992Y-20240650D01*
X9043992Y-20240650D02*
X9024944Y-20250174D01*
X9110658Y-20364460D02*
X9091611Y-20373984D01*
X9091611Y-20373984D02*
X9043992Y-20373984D01*
X9043992Y-20373984D02*
X9024944Y-20364460D01*
X9024944Y-20364460D02*
X9015420Y-20345412D01*
X9015420Y-20345412D02*
X9015420Y-20326365D01*
X9015420Y-20326365D02*
X9024944Y-20307317D01*
X9024944Y-20307317D02*
X9043992Y-20297793D01*
X9043992Y-20297793D02*
X9091611Y-20297793D01*
X9091611Y-20297793D02*
X9110658Y-20288270D01*
X9177325Y-20240650D02*
X9253515Y-20240650D01*
X9205896Y-20173984D02*
X9205896Y-20345412D01*
X9205896Y-20345412D02*
X9215420Y-20364460D01*
X9215420Y-20364460D02*
X9234468Y-20373984D01*
X9234468Y-20373984D02*
X9253515Y-20373984D01*
X9396373Y-20364460D02*
X9377325Y-20373984D01*
X9377325Y-20373984D02*
X9339230Y-20373984D01*
X9339230Y-20373984D02*
X9320182Y-20364460D01*
X9320182Y-20364460D02*
X9310658Y-20345412D01*
X9310658Y-20345412D02*
X9310658Y-20269222D01*
X9310658Y-20269222D02*
X9320182Y-20250174D01*
X9320182Y-20250174D02*
X9339230Y-20240650D01*
X9339230Y-20240650D02*
X9377325Y-20240650D01*
X9377325Y-20240650D02*
X9396373Y-20250174D01*
X9396373Y-20250174D02*
X9405896Y-20269222D01*
X9405896Y-20269222D02*
X9405896Y-20288270D01*
X9405896Y-20288270D02*
X9310658Y-20307317D01*
X9577325Y-20373984D02*
X9577325Y-20173984D01*
X9577325Y-20364460D02*
X9558277Y-20373984D01*
X9558277Y-20373984D02*
X9520182Y-20373984D01*
X9520182Y-20373984D02*
X9501135Y-20364460D01*
X9501135Y-20364460D02*
X9491611Y-20354936D01*
X9491611Y-20354936D02*
X9482087Y-20335889D01*
X9482087Y-20335889D02*
X9482087Y-20278746D01*
X9482087Y-20278746D02*
X9491611Y-20259698D01*
X9491611Y-20259698D02*
X9501135Y-20250174D01*
X9501135Y-20250174D02*
X9520182Y-20240650D01*
X9520182Y-20240650D02*
X9558277Y-20240650D01*
X9558277Y-20240650D02*
X9577325Y-20250174D01*
X9653516Y-20450174D02*
X9663039Y-20440650D01*
X9663039Y-20440650D02*
X9682087Y-20412079D01*
X9682087Y-20412079D02*
X9691611Y-20393031D01*
X9691611Y-20393031D02*
X9701135Y-20364460D01*
X9701135Y-20364460D02*
X9710658Y-20316841D01*
X9710658Y-20316841D02*
X9710658Y-20278746D01*
X9710658Y-20278746D02*
X9701135Y-20231127D01*
X9701135Y-20231127D02*
X9691611Y-20202555D01*
X9691611Y-20202555D02*
X9682087Y-20183508D01*
X9682087Y-20183508D02*
X9663039Y-20154936D01*
X9663039Y-20154936D02*
X9653516Y-20145412D01*
X2797500Y-20502500D02*
X2797500Y-20702500D01*
X2697500Y-20602500D02*
X2897500Y-20602500D01*
X3243991Y-20560650D02*
X3243991Y-20693984D01*
X3196372Y-20484460D02*
X3148753Y-20627317D01*
X3148753Y-20627317D02*
X3272562Y-20627317D01*
X3348753Y-20674936D02*
X3358277Y-20684460D01*
X3358277Y-20684460D02*
X3348753Y-20693984D01*
X3348753Y-20693984D02*
X3339229Y-20684460D01*
X3339229Y-20684460D02*
X3348753Y-20674936D01*
X3348753Y-20674936D02*
X3348753Y-20693984D01*
X3482086Y-20493984D02*
X3501134Y-20493984D01*
X3501134Y-20493984D02*
X3520182Y-20503508D01*
X3520182Y-20503508D02*
X3529705Y-20513031D01*
X3529705Y-20513031D02*
X3539229Y-20532079D01*
X3539229Y-20532079D02*
X3548753Y-20570174D01*
X3548753Y-20570174D02*
X3548753Y-20617793D01*
X3548753Y-20617793D02*
X3539229Y-20655889D01*
X3539229Y-20655889D02*
X3529705Y-20674936D01*
X3529705Y-20674936D02*
X3520182Y-20684460D01*
X3520182Y-20684460D02*
X3501134Y-20693984D01*
X3501134Y-20693984D02*
X3482086Y-20693984D01*
X3482086Y-20693984D02*
X3463039Y-20684460D01*
X3463039Y-20684460D02*
X3453515Y-20674936D01*
X3453515Y-20674936D02*
X3443991Y-20655889D01*
X3443991Y-20655889D02*
X3434467Y-20617793D01*
X3434467Y-20617793D02*
X3434467Y-20570174D01*
X3434467Y-20570174D02*
X3443991Y-20532079D01*
X3443991Y-20532079D02*
X3453515Y-20513031D01*
X3453515Y-20513031D02*
X3463039Y-20503508D01*
X3463039Y-20503508D02*
X3482086Y-20493984D01*
X3672562Y-20493984D02*
X3691610Y-20493984D01*
X3691610Y-20493984D02*
X3710658Y-20503508D01*
X3710658Y-20503508D02*
X3720182Y-20513031D01*
X3720182Y-20513031D02*
X3729705Y-20532079D01*
X3729705Y-20532079D02*
X3739229Y-20570174D01*
X3739229Y-20570174D02*
X3739229Y-20617793D01*
X3739229Y-20617793D02*
X3729705Y-20655889D01*
X3729705Y-20655889D02*
X3720182Y-20674936D01*
X3720182Y-20674936D02*
X3710658Y-20684460D01*
X3710658Y-20684460D02*
X3691610Y-20693984D01*
X3691610Y-20693984D02*
X3672562Y-20693984D01*
X3672562Y-20693984D02*
X3653515Y-20684460D01*
X3653515Y-20684460D02*
X3643991Y-20674936D01*
X3643991Y-20674936D02*
X3634467Y-20655889D01*
X3634467Y-20655889D02*
X3624943Y-20617793D01*
X3624943Y-20617793D02*
X3624943Y-20570174D01*
X3624943Y-20570174D02*
X3634467Y-20532079D01*
X3634467Y-20532079D02*
X3643991Y-20513031D01*
X3643991Y-20513031D02*
X3653515Y-20503508D01*
X3653515Y-20503508D02*
X3672562Y-20493984D01*
X3863039Y-20493984D02*
X3882086Y-20493984D01*
X3882086Y-20493984D02*
X3901134Y-20503508D01*
X3901134Y-20503508D02*
X3910658Y-20513031D01*
X3910658Y-20513031D02*
X3920182Y-20532079D01*
X3920182Y-20532079D02*
X3929705Y-20570174D01*
X3929705Y-20570174D02*
X3929705Y-20617793D01*
X3929705Y-20617793D02*
X3920182Y-20655889D01*
X3920182Y-20655889D02*
X3910658Y-20674936D01*
X3910658Y-20674936D02*
X3901134Y-20684460D01*
X3901134Y-20684460D02*
X3882086Y-20693984D01*
X3882086Y-20693984D02*
X3863039Y-20693984D01*
X3863039Y-20693984D02*
X3843991Y-20684460D01*
X3843991Y-20684460D02*
X3834467Y-20674936D01*
X3834467Y-20674936D02*
X3824943Y-20655889D01*
X3824943Y-20655889D02*
X3815420Y-20617793D01*
X3815420Y-20617793D02*
X3815420Y-20570174D01*
X3815420Y-20570174D02*
X3824943Y-20532079D01*
X3824943Y-20532079D02*
X3834467Y-20513031D01*
X3834467Y-20513031D02*
X3843991Y-20503508D01*
X3843991Y-20503508D02*
X3863039Y-20493984D01*
X4015420Y-20693984D02*
X4015420Y-20560650D01*
X4015420Y-20579698D02*
X4024943Y-20570174D01*
X4024943Y-20570174D02*
X4043991Y-20560650D01*
X4043991Y-20560650D02*
X4072563Y-20560650D01*
X4072563Y-20560650D02*
X4091610Y-20570174D01*
X4091610Y-20570174D02*
X4101134Y-20589222D01*
X4101134Y-20589222D02*
X4101134Y-20693984D01*
X4101134Y-20589222D02*
X4110658Y-20570174D01*
X4110658Y-20570174D02*
X4129705Y-20560650D01*
X4129705Y-20560650D02*
X4158277Y-20560650D01*
X4158277Y-20560650D02*
X4177324Y-20570174D01*
X4177324Y-20570174D02*
X4186848Y-20589222D01*
X4186848Y-20589222D02*
X4186848Y-20693984D01*
X4282086Y-20693984D02*
X4282086Y-20560650D01*
X4282086Y-20579698D02*
X4291610Y-20570174D01*
X4291610Y-20570174D02*
X4310658Y-20560650D01*
X4310658Y-20560650D02*
X4339229Y-20560650D01*
X4339229Y-20560650D02*
X4358277Y-20570174D01*
X4358277Y-20570174D02*
X4367801Y-20589222D01*
X4367801Y-20589222D02*
X4367801Y-20693984D01*
X4367801Y-20589222D02*
X4377325Y-20570174D01*
X4377325Y-20570174D02*
X4396372Y-20560650D01*
X4396372Y-20560650D02*
X4424944Y-20560650D01*
X4424944Y-20560650D02*
X4443991Y-20570174D01*
X4443991Y-20570174D02*
X4453515Y-20589222D01*
X4453515Y-20589222D02*
X4453515Y-20693984D01*
X4843991Y-20484460D02*
X4672563Y-20741603D01*
X5101134Y-20493984D02*
X5120182Y-20493984D01*
X5120182Y-20493984D02*
X5139229Y-20503508D01*
X5139229Y-20503508D02*
X5148753Y-20513031D01*
X5148753Y-20513031D02*
X5158277Y-20532079D01*
X5158277Y-20532079D02*
X5167801Y-20570174D01*
X5167801Y-20570174D02*
X5167801Y-20617793D01*
X5167801Y-20617793D02*
X5158277Y-20655889D01*
X5158277Y-20655889D02*
X5148753Y-20674936D01*
X5148753Y-20674936D02*
X5139229Y-20684460D01*
X5139229Y-20684460D02*
X5120182Y-20693984D01*
X5120182Y-20693984D02*
X5101134Y-20693984D01*
X5101134Y-20693984D02*
X5082087Y-20684460D01*
X5082087Y-20684460D02*
X5072563Y-20674936D01*
X5072563Y-20674936D02*
X5063039Y-20655889D01*
X5063039Y-20655889D02*
X5053515Y-20617793D01*
X5053515Y-20617793D02*
X5053515Y-20570174D01*
X5053515Y-20570174D02*
X5063039Y-20532079D01*
X5063039Y-20532079D02*
X5072563Y-20513031D01*
X5072563Y-20513031D02*
X5082087Y-20503508D01*
X5082087Y-20503508D02*
X5101134Y-20493984D01*
X5253515Y-20674936D02*
X5263039Y-20684460D01*
X5263039Y-20684460D02*
X5253515Y-20693984D01*
X5253515Y-20693984D02*
X5243991Y-20684460D01*
X5243991Y-20684460D02*
X5253515Y-20674936D01*
X5253515Y-20674936D02*
X5253515Y-20693984D01*
X5453515Y-20693984D02*
X5339229Y-20693984D01*
X5396372Y-20693984D02*
X5396372Y-20493984D01*
X5396372Y-20493984D02*
X5377325Y-20522555D01*
X5377325Y-20522555D02*
X5358277Y-20541603D01*
X5358277Y-20541603D02*
X5339229Y-20551127D01*
X5634467Y-20493984D02*
X5539229Y-20493984D01*
X5539229Y-20493984D02*
X5529706Y-20589222D01*
X5529706Y-20589222D02*
X5539229Y-20579698D01*
X5539229Y-20579698D02*
X5558277Y-20570174D01*
X5558277Y-20570174D02*
X5605896Y-20570174D01*
X5605896Y-20570174D02*
X5624944Y-20579698D01*
X5624944Y-20579698D02*
X5634467Y-20589222D01*
X5634467Y-20589222D02*
X5643991Y-20608270D01*
X5643991Y-20608270D02*
X5643991Y-20655889D01*
X5643991Y-20655889D02*
X5634467Y-20674936D01*
X5634467Y-20674936D02*
X5624944Y-20684460D01*
X5624944Y-20684460D02*
X5605896Y-20693984D01*
X5605896Y-20693984D02*
X5558277Y-20693984D01*
X5558277Y-20693984D02*
X5539229Y-20684460D01*
X5539229Y-20684460D02*
X5529706Y-20674936D01*
X5710658Y-20493984D02*
X5843991Y-20493984D01*
X5843991Y-20493984D02*
X5758277Y-20693984D01*
X6015420Y-20493984D02*
X5920182Y-20493984D01*
X5920182Y-20493984D02*
X5910658Y-20589222D01*
X5910658Y-20589222D02*
X5920182Y-20579698D01*
X5920182Y-20579698D02*
X5939229Y-20570174D01*
X5939229Y-20570174D02*
X5986848Y-20570174D01*
X5986848Y-20570174D02*
X6005896Y-20579698D01*
X6005896Y-20579698D02*
X6015420Y-20589222D01*
X6015420Y-20589222D02*
X6024944Y-20608270D01*
X6024944Y-20608270D02*
X6024944Y-20655889D01*
X6024944Y-20655889D02*
X6015420Y-20674936D01*
X6015420Y-20674936D02*
X6005896Y-20684460D01*
X6005896Y-20684460D02*
X5986848Y-20693984D01*
X5986848Y-20693984D02*
X5939229Y-20693984D01*
X5939229Y-20693984D02*
X5920182Y-20684460D01*
X5920182Y-20684460D02*
X5910658Y-20674936D01*
X6101134Y-20493984D02*
X6101134Y-20532079D01*
X6177325Y-20493984D02*
X6177325Y-20532079D01*
X6472563Y-20770174D02*
X6463039Y-20760650D01*
X6463039Y-20760650D02*
X6443991Y-20732079D01*
X6443991Y-20732079D02*
X6434468Y-20713031D01*
X6434468Y-20713031D02*
X6424944Y-20684460D01*
X6424944Y-20684460D02*
X6415420Y-20636841D01*
X6415420Y-20636841D02*
X6415420Y-20598746D01*
X6415420Y-20598746D02*
X6424944Y-20551127D01*
X6424944Y-20551127D02*
X6434468Y-20522555D01*
X6434468Y-20522555D02*
X6443991Y-20503508D01*
X6443991Y-20503508D02*
X6463039Y-20474936D01*
X6463039Y-20474936D02*
X6472563Y-20465412D01*
X6634468Y-20560650D02*
X6634468Y-20693984D01*
X6586848Y-20484460D02*
X6539229Y-20627317D01*
X6539229Y-20627317D02*
X6663039Y-20627317D01*
X6891610Y-20693984D02*
X6891610Y-20493984D01*
X6977325Y-20693984D02*
X6977325Y-20589222D01*
X6977325Y-20589222D02*
X6967801Y-20570174D01*
X6967801Y-20570174D02*
X6948753Y-20560650D01*
X6948753Y-20560650D02*
X6920182Y-20560650D01*
X6920182Y-20560650D02*
X6901134Y-20570174D01*
X6901134Y-20570174D02*
X6891610Y-20579698D01*
X7101134Y-20693984D02*
X7082087Y-20684460D01*
X7082087Y-20684460D02*
X7072563Y-20674936D01*
X7072563Y-20674936D02*
X7063039Y-20655889D01*
X7063039Y-20655889D02*
X7063039Y-20598746D01*
X7063039Y-20598746D02*
X7072563Y-20579698D01*
X7072563Y-20579698D02*
X7082087Y-20570174D01*
X7082087Y-20570174D02*
X7101134Y-20560650D01*
X7101134Y-20560650D02*
X7129706Y-20560650D01*
X7129706Y-20560650D02*
X7148753Y-20570174D01*
X7148753Y-20570174D02*
X7158277Y-20579698D01*
X7158277Y-20579698D02*
X7167801Y-20598746D01*
X7167801Y-20598746D02*
X7167801Y-20655889D01*
X7167801Y-20655889D02*
X7158277Y-20674936D01*
X7158277Y-20674936D02*
X7148753Y-20684460D01*
X7148753Y-20684460D02*
X7129706Y-20693984D01*
X7129706Y-20693984D02*
X7101134Y-20693984D01*
X7282087Y-20693984D02*
X7263039Y-20684460D01*
X7263039Y-20684460D02*
X7253515Y-20665412D01*
X7253515Y-20665412D02*
X7253515Y-20493984D01*
X7434468Y-20684460D02*
X7415420Y-20693984D01*
X7415420Y-20693984D02*
X7377325Y-20693984D01*
X7377325Y-20693984D02*
X7358277Y-20684460D01*
X7358277Y-20684460D02*
X7348753Y-20665412D01*
X7348753Y-20665412D02*
X7348753Y-20589222D01*
X7348753Y-20589222D02*
X7358277Y-20570174D01*
X7358277Y-20570174D02*
X7377325Y-20560650D01*
X7377325Y-20560650D02*
X7415420Y-20560650D01*
X7415420Y-20560650D02*
X7434468Y-20570174D01*
X7434468Y-20570174D02*
X7443991Y-20589222D01*
X7443991Y-20589222D02*
X7443991Y-20608270D01*
X7443991Y-20608270D02*
X7348753Y-20627317D01*
X7520182Y-20684460D02*
X7539230Y-20693984D01*
X7539230Y-20693984D02*
X7577325Y-20693984D01*
X7577325Y-20693984D02*
X7596372Y-20684460D01*
X7596372Y-20684460D02*
X7605896Y-20665412D01*
X7605896Y-20665412D02*
X7605896Y-20655889D01*
X7605896Y-20655889D02*
X7596372Y-20636841D01*
X7596372Y-20636841D02*
X7577325Y-20627317D01*
X7577325Y-20627317D02*
X7548753Y-20627317D01*
X7548753Y-20627317D02*
X7529706Y-20617793D01*
X7529706Y-20617793D02*
X7520182Y-20598746D01*
X7520182Y-20598746D02*
X7520182Y-20589222D01*
X7520182Y-20589222D02*
X7529706Y-20570174D01*
X7529706Y-20570174D02*
X7548753Y-20560650D01*
X7548753Y-20560650D02*
X7577325Y-20560650D01*
X7577325Y-20560650D02*
X7596372Y-20570174D01*
X7672563Y-20770174D02*
X7682087Y-20760650D01*
X7682087Y-20760650D02*
X7701134Y-20732079D01*
X7701134Y-20732079D02*
X7710658Y-20713031D01*
X7710658Y-20713031D02*
X7720182Y-20684460D01*
X7720182Y-20684460D02*
X7729706Y-20636841D01*
X7729706Y-20636841D02*
X7729706Y-20598746D01*
X7729706Y-20598746D02*
X7720182Y-20551127D01*
X7720182Y-20551127D02*
X7710658Y-20522555D01*
X7710658Y-20522555D02*
X7701134Y-20503508D01*
X7701134Y-20503508D02*
X7682087Y-20474936D01*
X7682087Y-20474936D02*
X7672563Y-20465412D01*
X8034468Y-20770174D02*
X8024944Y-20760650D01*
X8024944Y-20760650D02*
X8005896Y-20732079D01*
X8005896Y-20732079D02*
X7996372Y-20713031D01*
X7996372Y-20713031D02*
X7986849Y-20684460D01*
X7986849Y-20684460D02*
X7977325Y-20636841D01*
X7977325Y-20636841D02*
X7977325Y-20598746D01*
X7977325Y-20598746D02*
X7986849Y-20551127D01*
X7986849Y-20551127D02*
X7996372Y-20522555D01*
X7996372Y-20522555D02*
X8005896Y-20503508D01*
X8005896Y-20503508D02*
X8024944Y-20474936D01*
X8024944Y-20474936D02*
X8034468Y-20465412D01*
X8110658Y-20560650D02*
X8110658Y-20693984D01*
X8110658Y-20579698D02*
X8120182Y-20570174D01*
X8120182Y-20570174D02*
X8139230Y-20560650D01*
X8139230Y-20560650D02*
X8167801Y-20560650D01*
X8167801Y-20560650D02*
X8186849Y-20570174D01*
X8186849Y-20570174D02*
X8196372Y-20589222D01*
X8196372Y-20589222D02*
X8196372Y-20693984D01*
X8320182Y-20693984D02*
X8301134Y-20684460D01*
X8301134Y-20684460D02*
X8291611Y-20674936D01*
X8291611Y-20674936D02*
X8282087Y-20655889D01*
X8282087Y-20655889D02*
X8282087Y-20598746D01*
X8282087Y-20598746D02*
X8291611Y-20579698D01*
X8291611Y-20579698D02*
X8301134Y-20570174D01*
X8301134Y-20570174D02*
X8320182Y-20560650D01*
X8320182Y-20560650D02*
X8348753Y-20560650D01*
X8348753Y-20560650D02*
X8367801Y-20570174D01*
X8367801Y-20570174D02*
X8377325Y-20579698D01*
X8377325Y-20579698D02*
X8386849Y-20598746D01*
X8386849Y-20598746D02*
X8386849Y-20655889D01*
X8386849Y-20655889D02*
X8377325Y-20674936D01*
X8377325Y-20674936D02*
X8367801Y-20684460D01*
X8367801Y-20684460D02*
X8348753Y-20693984D01*
X8348753Y-20693984D02*
X8320182Y-20693984D01*
X8443992Y-20560650D02*
X8520182Y-20560650D01*
X8472563Y-20493984D02*
X8472563Y-20665412D01*
X8472563Y-20665412D02*
X8482087Y-20684460D01*
X8482087Y-20684460D02*
X8501134Y-20693984D01*
X8501134Y-20693984D02*
X8520182Y-20693984D01*
X8739230Y-20560650D02*
X8739230Y-20760650D01*
X8739230Y-20570174D02*
X8758277Y-20560650D01*
X8758277Y-20560650D02*
X8796373Y-20560650D01*
X8796373Y-20560650D02*
X8815420Y-20570174D01*
X8815420Y-20570174D02*
X8824944Y-20579698D01*
X8824944Y-20579698D02*
X8834468Y-20598746D01*
X8834468Y-20598746D02*
X8834468Y-20655889D01*
X8834468Y-20655889D02*
X8824944Y-20674936D01*
X8824944Y-20674936D02*
X8815420Y-20684460D01*
X8815420Y-20684460D02*
X8796373Y-20693984D01*
X8796373Y-20693984D02*
X8758277Y-20693984D01*
X8758277Y-20693984D02*
X8739230Y-20684460D01*
X8948754Y-20693984D02*
X8929706Y-20684460D01*
X8929706Y-20684460D02*
X8920182Y-20665412D01*
X8920182Y-20665412D02*
X8920182Y-20493984D01*
X9110658Y-20693984D02*
X9110658Y-20589222D01*
X9110658Y-20589222D02*
X9101135Y-20570174D01*
X9101135Y-20570174D02*
X9082087Y-20560650D01*
X9082087Y-20560650D02*
X9043992Y-20560650D01*
X9043992Y-20560650D02*
X9024944Y-20570174D01*
X9110658Y-20684460D02*
X9091611Y-20693984D01*
X9091611Y-20693984D02*
X9043992Y-20693984D01*
X9043992Y-20693984D02*
X9024944Y-20684460D01*
X9024944Y-20684460D02*
X9015420Y-20665412D01*
X9015420Y-20665412D02*
X9015420Y-20646365D01*
X9015420Y-20646365D02*
X9024944Y-20627317D01*
X9024944Y-20627317D02*
X9043992Y-20617793D01*
X9043992Y-20617793D02*
X9091611Y-20617793D01*
X9091611Y-20617793D02*
X9110658Y-20608270D01*
X9177325Y-20560650D02*
X9253515Y-20560650D01*
X9205896Y-20493984D02*
X9205896Y-20665412D01*
X9205896Y-20665412D02*
X9215420Y-20684460D01*
X9215420Y-20684460D02*
X9234468Y-20693984D01*
X9234468Y-20693984D02*
X9253515Y-20693984D01*
X9396373Y-20684460D02*
X9377325Y-20693984D01*
X9377325Y-20693984D02*
X9339230Y-20693984D01*
X9339230Y-20693984D02*
X9320182Y-20684460D01*
X9320182Y-20684460D02*
X9310658Y-20665412D01*
X9310658Y-20665412D02*
X9310658Y-20589222D01*
X9310658Y-20589222D02*
X9320182Y-20570174D01*
X9320182Y-20570174D02*
X9339230Y-20560650D01*
X9339230Y-20560650D02*
X9377325Y-20560650D01*
X9377325Y-20560650D02*
X9396373Y-20570174D01*
X9396373Y-20570174D02*
X9405896Y-20589222D01*
X9405896Y-20589222D02*
X9405896Y-20608270D01*
X9405896Y-20608270D02*
X9310658Y-20627317D01*
X9577325Y-20693984D02*
X9577325Y-20493984D01*
X9577325Y-20684460D02*
X9558277Y-20693984D01*
X9558277Y-20693984D02*
X9520182Y-20693984D01*
X9520182Y-20693984D02*
X9501135Y-20684460D01*
X9501135Y-20684460D02*
X9491611Y-20674936D01*
X9491611Y-20674936D02*
X9482087Y-20655889D01*
X9482087Y-20655889D02*
X9482087Y-20598746D01*
X9482087Y-20598746D02*
X9491611Y-20579698D01*
X9491611Y-20579698D02*
X9501135Y-20570174D01*
X9501135Y-20570174D02*
X9520182Y-20560650D01*
X9520182Y-20560650D02*
X9558277Y-20560650D01*
X9558277Y-20560650D02*
X9577325Y-20570174D01*
X9653516Y-20770174D02*
X9663039Y-20760650D01*
X9663039Y-20760650D02*
X9682087Y-20732079D01*
X9682087Y-20732079D02*
X9691611Y-20713031D01*
X9691611Y-20713031D02*
X9701135Y-20684460D01*
X9701135Y-20684460D02*
X9710658Y-20636841D01*
X9710658Y-20636841D02*
X9710658Y-20598746D01*
X9710658Y-20598746D02*
X9701135Y-20551127D01*
X9701135Y-20551127D02*
X9691611Y-20522555D01*
X9691611Y-20522555D02*
X9682087Y-20503508D01*
X9682087Y-20503508D02*
X9663039Y-20474936D01*
X9663039Y-20474936D02*
X9653516Y-20465412D01*
M02*
