%TF.GenerationSoftware,KiCad,Pcbnew,8.0.1-8.0.1-0~ubuntu20.04.1*%
%TF.CreationDate,2024-06-12T16:02:46+01:00*%
%TF.ProjectId,sensd,73656e73-642e-46b6-9963-61645f706362,rev?*%
%TF.SameCoordinates,Original*%
%TF.FileFunction,Legend,Bot*%
%TF.FilePolarity,Positive*%
%FSLAX46Y46*%
G04 Gerber Fmt 4.6, Leading zero omitted, Abs format (unit mm)*
G04 Created by KiCad (PCBNEW 8.0.1-8.0.1-0~ubuntu20.04.1) date 2024-06-12 16:02:46*
%MOMM*%
%LPD*%
G01*
G04 APERTURE LIST*
%ADD10C,0.200000*%
%ADD11C,0.120000*%
G04 APERTURE END LIST*
D10*
X126011279Y-165855398D02*
X125511279Y-165855398D01*
X125296993Y-166641112D02*
X126011279Y-166641112D01*
X126011279Y-166641112D02*
X126011279Y-165141112D01*
X126011279Y-165141112D02*
X125296993Y-165141112D01*
X124654136Y-165641112D02*
X124654136Y-166641112D01*
X124654136Y-165783969D02*
X124582707Y-165712541D01*
X124582707Y-165712541D02*
X124439850Y-165641112D01*
X124439850Y-165641112D02*
X124225564Y-165641112D01*
X124225564Y-165641112D02*
X124082707Y-165712541D01*
X124082707Y-165712541D02*
X124011279Y-165855398D01*
X124011279Y-165855398D02*
X124011279Y-166641112D01*
X123439850Y-165641112D02*
X123082707Y-166641112D01*
X123082707Y-166641112D02*
X122725564Y-165641112D01*
X122154136Y-166641112D02*
X122154136Y-165641112D01*
X122154136Y-165141112D02*
X122225564Y-165212541D01*
X122225564Y-165212541D02*
X122154136Y-165283969D01*
X122154136Y-165283969D02*
X122082707Y-165212541D01*
X122082707Y-165212541D02*
X122154136Y-165141112D01*
X122154136Y-165141112D02*
X122154136Y-165283969D01*
X121439850Y-166641112D02*
X121439850Y-165641112D01*
X121439850Y-165926826D02*
X121368421Y-165783969D01*
X121368421Y-165783969D02*
X121296993Y-165712541D01*
X121296993Y-165712541D02*
X121154135Y-165641112D01*
X121154135Y-165641112D02*
X121011278Y-165641112D01*
X120296993Y-166641112D02*
X120439850Y-166569684D01*
X120439850Y-166569684D02*
X120511279Y-166498255D01*
X120511279Y-166498255D02*
X120582707Y-166355398D01*
X120582707Y-166355398D02*
X120582707Y-165926826D01*
X120582707Y-165926826D02*
X120511279Y-165783969D01*
X120511279Y-165783969D02*
X120439850Y-165712541D01*
X120439850Y-165712541D02*
X120296993Y-165641112D01*
X120296993Y-165641112D02*
X120082707Y-165641112D01*
X120082707Y-165641112D02*
X119939850Y-165712541D01*
X119939850Y-165712541D02*
X119868422Y-165783969D01*
X119868422Y-165783969D02*
X119796993Y-165926826D01*
X119796993Y-165926826D02*
X119796993Y-166355398D01*
X119796993Y-166355398D02*
X119868422Y-166498255D01*
X119868422Y-166498255D02*
X119939850Y-166569684D01*
X119939850Y-166569684D02*
X120082707Y-166641112D01*
X120082707Y-166641112D02*
X120296993Y-166641112D01*
X119154136Y-165641112D02*
X119154136Y-166641112D01*
X119154136Y-165783969D02*
X119082707Y-165712541D01*
X119082707Y-165712541D02*
X118939850Y-165641112D01*
X118939850Y-165641112D02*
X118725564Y-165641112D01*
X118725564Y-165641112D02*
X118582707Y-165712541D01*
X118582707Y-165712541D02*
X118511279Y-165855398D01*
X118511279Y-165855398D02*
X118511279Y-166641112D01*
X117796993Y-166641112D02*
X117796993Y-165641112D01*
X117796993Y-165783969D02*
X117725564Y-165712541D01*
X117725564Y-165712541D02*
X117582707Y-165641112D01*
X117582707Y-165641112D02*
X117368421Y-165641112D01*
X117368421Y-165641112D02*
X117225564Y-165712541D01*
X117225564Y-165712541D02*
X117154136Y-165855398D01*
X117154136Y-165855398D02*
X117154136Y-166641112D01*
X117154136Y-165855398D02*
X117082707Y-165712541D01*
X117082707Y-165712541D02*
X116939850Y-165641112D01*
X116939850Y-165641112D02*
X116725564Y-165641112D01*
X116725564Y-165641112D02*
X116582707Y-165712541D01*
X116582707Y-165712541D02*
X116511278Y-165855398D01*
X116511278Y-165855398D02*
X116511278Y-166641112D01*
X115225564Y-166569684D02*
X115368421Y-166641112D01*
X115368421Y-166641112D02*
X115654136Y-166641112D01*
X115654136Y-166641112D02*
X115796993Y-166569684D01*
X115796993Y-166569684D02*
X115868421Y-166426826D01*
X115868421Y-166426826D02*
X115868421Y-165855398D01*
X115868421Y-165855398D02*
X115796993Y-165712541D01*
X115796993Y-165712541D02*
X115654136Y-165641112D01*
X115654136Y-165641112D02*
X115368421Y-165641112D01*
X115368421Y-165641112D02*
X115225564Y-165712541D01*
X115225564Y-165712541D02*
X115154136Y-165855398D01*
X115154136Y-165855398D02*
X115154136Y-165998255D01*
X115154136Y-165998255D02*
X115868421Y-166141112D01*
X114511279Y-165641112D02*
X114511279Y-166641112D01*
X114511279Y-165783969D02*
X114439850Y-165712541D01*
X114439850Y-165712541D02*
X114296993Y-165641112D01*
X114296993Y-165641112D02*
X114082707Y-165641112D01*
X114082707Y-165641112D02*
X113939850Y-165712541D01*
X113939850Y-165712541D02*
X113868422Y-165855398D01*
X113868422Y-165855398D02*
X113868422Y-166641112D01*
X113368421Y-165641112D02*
X112796993Y-165641112D01*
X113154136Y-165141112D02*
X113154136Y-166426826D01*
X113154136Y-166426826D02*
X113082707Y-166569684D01*
X113082707Y-166569684D02*
X112939850Y-166641112D01*
X112939850Y-166641112D02*
X112796993Y-166641112D01*
X111654136Y-166641112D02*
X111654136Y-165855398D01*
X111654136Y-165855398D02*
X111725564Y-165712541D01*
X111725564Y-165712541D02*
X111868421Y-165641112D01*
X111868421Y-165641112D02*
X112154136Y-165641112D01*
X112154136Y-165641112D02*
X112296993Y-165712541D01*
X111654136Y-166569684D02*
X111796993Y-166641112D01*
X111796993Y-166641112D02*
X112154136Y-166641112D01*
X112154136Y-166641112D02*
X112296993Y-166569684D01*
X112296993Y-166569684D02*
X112368421Y-166426826D01*
X112368421Y-166426826D02*
X112368421Y-166283969D01*
X112368421Y-166283969D02*
X112296993Y-166141112D01*
X112296993Y-166141112D02*
X112154136Y-166069684D01*
X112154136Y-166069684D02*
X111796993Y-166069684D01*
X111796993Y-166069684D02*
X111654136Y-165998255D01*
X110725564Y-166641112D02*
X110868421Y-166569684D01*
X110868421Y-166569684D02*
X110939850Y-166426826D01*
X110939850Y-166426826D02*
X110939850Y-165141112D01*
X108368422Y-166641112D02*
X108368422Y-165855398D01*
X108368422Y-165855398D02*
X108439850Y-165712541D01*
X108439850Y-165712541D02*
X108582707Y-165641112D01*
X108582707Y-165641112D02*
X108868422Y-165641112D01*
X108868422Y-165641112D02*
X109011279Y-165712541D01*
X108368422Y-166569684D02*
X108511279Y-166641112D01*
X108511279Y-166641112D02*
X108868422Y-166641112D01*
X108868422Y-166641112D02*
X109011279Y-166569684D01*
X109011279Y-166569684D02*
X109082707Y-166426826D01*
X109082707Y-166426826D02*
X109082707Y-166283969D01*
X109082707Y-166283969D02*
X109011279Y-166141112D01*
X109011279Y-166141112D02*
X108868422Y-166069684D01*
X108868422Y-166069684D02*
X108511279Y-166069684D01*
X108511279Y-166069684D02*
X108368422Y-165998255D01*
X107654136Y-166641112D02*
X107654136Y-165641112D01*
X107654136Y-165141112D02*
X107725564Y-165212541D01*
X107725564Y-165212541D02*
X107654136Y-165283969D01*
X107654136Y-165283969D02*
X107582707Y-165212541D01*
X107582707Y-165212541D02*
X107654136Y-165141112D01*
X107654136Y-165141112D02*
X107654136Y-165283969D01*
X106939850Y-166641112D02*
X106939850Y-165641112D01*
X106939850Y-165926826D02*
X106868421Y-165783969D01*
X106868421Y-165783969D02*
X106796993Y-165712541D01*
X106796993Y-165712541D02*
X106654135Y-165641112D01*
X106654135Y-165641112D02*
X106511278Y-165641112D01*
X104225565Y-166569684D02*
X104368422Y-166641112D01*
X104368422Y-166641112D02*
X104654136Y-166641112D01*
X104654136Y-166641112D02*
X104796993Y-166569684D01*
X104796993Y-166569684D02*
X104868422Y-166498255D01*
X104868422Y-166498255D02*
X104939850Y-166355398D01*
X104939850Y-166355398D02*
X104939850Y-165926826D01*
X104939850Y-165926826D02*
X104868422Y-165783969D01*
X104868422Y-165783969D02*
X104796993Y-165712541D01*
X104796993Y-165712541D02*
X104654136Y-165641112D01*
X104654136Y-165641112D02*
X104368422Y-165641112D01*
X104368422Y-165641112D02*
X104225565Y-165712541D01*
X103582708Y-166641112D02*
X103582708Y-165141112D01*
X102939851Y-166641112D02*
X102939851Y-165855398D01*
X102939851Y-165855398D02*
X103011279Y-165712541D01*
X103011279Y-165712541D02*
X103154136Y-165641112D01*
X103154136Y-165641112D02*
X103368422Y-165641112D01*
X103368422Y-165641112D02*
X103511279Y-165712541D01*
X103511279Y-165712541D02*
X103582708Y-165783969D01*
X101582708Y-166641112D02*
X101582708Y-165855398D01*
X101582708Y-165855398D02*
X101654136Y-165712541D01*
X101654136Y-165712541D02*
X101796993Y-165641112D01*
X101796993Y-165641112D02*
X102082708Y-165641112D01*
X102082708Y-165641112D02*
X102225565Y-165712541D01*
X101582708Y-166569684D02*
X101725565Y-166641112D01*
X101725565Y-166641112D02*
X102082708Y-166641112D01*
X102082708Y-166641112D02*
X102225565Y-166569684D01*
X102225565Y-166569684D02*
X102296993Y-166426826D01*
X102296993Y-166426826D02*
X102296993Y-166283969D01*
X102296993Y-166283969D02*
X102225565Y-166141112D01*
X102225565Y-166141112D02*
X102082708Y-166069684D01*
X102082708Y-166069684D02*
X101725565Y-166069684D01*
X101725565Y-166069684D02*
X101582708Y-165998255D01*
X100868422Y-166641112D02*
X100868422Y-165641112D01*
X100868422Y-165783969D02*
X100796993Y-165712541D01*
X100796993Y-165712541D02*
X100654136Y-165641112D01*
X100654136Y-165641112D02*
X100439850Y-165641112D01*
X100439850Y-165641112D02*
X100296993Y-165712541D01*
X100296993Y-165712541D02*
X100225565Y-165855398D01*
X100225565Y-165855398D02*
X100225565Y-166641112D01*
X100225565Y-165855398D02*
X100154136Y-165712541D01*
X100154136Y-165712541D02*
X100011279Y-165641112D01*
X100011279Y-165641112D02*
X99796993Y-165641112D01*
X99796993Y-165641112D02*
X99654136Y-165712541D01*
X99654136Y-165712541D02*
X99582707Y-165855398D01*
X99582707Y-165855398D02*
X99582707Y-166641112D01*
X98868422Y-166641112D02*
X98868422Y-165141112D01*
X98868422Y-165712541D02*
X98725565Y-165641112D01*
X98725565Y-165641112D02*
X98439850Y-165641112D01*
X98439850Y-165641112D02*
X98296993Y-165712541D01*
X98296993Y-165712541D02*
X98225565Y-165783969D01*
X98225565Y-165783969D02*
X98154136Y-165926826D01*
X98154136Y-165926826D02*
X98154136Y-166355398D01*
X98154136Y-166355398D02*
X98225565Y-166498255D01*
X98225565Y-166498255D02*
X98296993Y-166569684D01*
X98296993Y-166569684D02*
X98439850Y-166641112D01*
X98439850Y-166641112D02*
X98725565Y-166641112D01*
X98725565Y-166641112D02*
X98868422Y-166569684D01*
X96939850Y-166569684D02*
X97082707Y-166641112D01*
X97082707Y-166641112D02*
X97368422Y-166641112D01*
X97368422Y-166641112D02*
X97511279Y-166569684D01*
X97511279Y-166569684D02*
X97582707Y-166426826D01*
X97582707Y-166426826D02*
X97582707Y-165855398D01*
X97582707Y-165855398D02*
X97511279Y-165712541D01*
X97511279Y-165712541D02*
X97368422Y-165641112D01*
X97368422Y-165641112D02*
X97082707Y-165641112D01*
X97082707Y-165641112D02*
X96939850Y-165712541D01*
X96939850Y-165712541D02*
X96868422Y-165855398D01*
X96868422Y-165855398D02*
X96868422Y-165998255D01*
X96868422Y-165998255D02*
X97582707Y-166141112D01*
X96225565Y-166641112D02*
X96225565Y-165641112D01*
X96225565Y-165926826D02*
X96154136Y-165783969D01*
X96154136Y-165783969D02*
X96082708Y-165712541D01*
X96082708Y-165712541D02*
X95939850Y-165641112D01*
X95939850Y-165641112D02*
X95796993Y-165641112D01*
X94154137Y-166641112D02*
X94154137Y-165141112D01*
X94154137Y-165141112D02*
X93582708Y-165141112D01*
X93582708Y-165141112D02*
X93439851Y-165212541D01*
X93439851Y-165212541D02*
X93368422Y-165283969D01*
X93368422Y-165283969D02*
X93296994Y-165426826D01*
X93296994Y-165426826D02*
X93296994Y-165641112D01*
X93296994Y-165641112D02*
X93368422Y-165783969D01*
X93368422Y-165783969D02*
X93439851Y-165855398D01*
X93439851Y-165855398D02*
X93582708Y-165926826D01*
X93582708Y-165926826D02*
X94154137Y-165926826D01*
X91796994Y-166498255D02*
X91868422Y-166569684D01*
X91868422Y-166569684D02*
X92082708Y-166641112D01*
X92082708Y-166641112D02*
X92225565Y-166641112D01*
X92225565Y-166641112D02*
X92439851Y-166569684D01*
X92439851Y-166569684D02*
X92582708Y-166426826D01*
X92582708Y-166426826D02*
X92654137Y-166283969D01*
X92654137Y-166283969D02*
X92725565Y-165998255D01*
X92725565Y-165998255D02*
X92725565Y-165783969D01*
X92725565Y-165783969D02*
X92654137Y-165498255D01*
X92654137Y-165498255D02*
X92582708Y-165355398D01*
X92582708Y-165355398D02*
X92439851Y-165212541D01*
X92439851Y-165212541D02*
X92225565Y-165141112D01*
X92225565Y-165141112D02*
X92082708Y-165141112D01*
X92082708Y-165141112D02*
X91868422Y-165212541D01*
X91868422Y-165212541D02*
X91796994Y-165283969D01*
X90654137Y-165855398D02*
X90439851Y-165926826D01*
X90439851Y-165926826D02*
X90368422Y-165998255D01*
X90368422Y-165998255D02*
X90296994Y-166141112D01*
X90296994Y-166141112D02*
X90296994Y-166355398D01*
X90296994Y-166355398D02*
X90368422Y-166498255D01*
X90368422Y-166498255D02*
X90439851Y-166569684D01*
X90439851Y-166569684D02*
X90582708Y-166641112D01*
X90582708Y-166641112D02*
X91154137Y-166641112D01*
X91154137Y-166641112D02*
X91154137Y-165141112D01*
X91154137Y-165141112D02*
X90654137Y-165141112D01*
X90654137Y-165141112D02*
X90511280Y-165212541D01*
X90511280Y-165212541D02*
X90439851Y-165283969D01*
X90439851Y-165283969D02*
X90368422Y-165426826D01*
X90368422Y-165426826D02*
X90368422Y-165569684D01*
X90368422Y-165569684D02*
X90439851Y-165712541D01*
X90439851Y-165712541D02*
X90511280Y-165783969D01*
X90511280Y-165783969D02*
X90654137Y-165855398D01*
X90654137Y-165855398D02*
X91154137Y-165855398D01*
X88725565Y-165141112D02*
X88225565Y-166641112D01*
X88225565Y-166641112D02*
X87725565Y-165141112D01*
X86939851Y-165141112D02*
X86796994Y-165141112D01*
X86796994Y-165141112D02*
X86654137Y-165212541D01*
X86654137Y-165212541D02*
X86582709Y-165283969D01*
X86582709Y-165283969D02*
X86511280Y-165426826D01*
X86511280Y-165426826D02*
X86439851Y-165712541D01*
X86439851Y-165712541D02*
X86439851Y-166069684D01*
X86439851Y-166069684D02*
X86511280Y-166355398D01*
X86511280Y-166355398D02*
X86582709Y-166498255D01*
X86582709Y-166498255D02*
X86654137Y-166569684D01*
X86654137Y-166569684D02*
X86796994Y-166641112D01*
X86796994Y-166641112D02*
X86939851Y-166641112D01*
X86939851Y-166641112D02*
X87082709Y-166569684D01*
X87082709Y-166569684D02*
X87154137Y-166498255D01*
X87154137Y-166498255D02*
X87225566Y-166355398D01*
X87225566Y-166355398D02*
X87296994Y-166069684D01*
X87296994Y-166069684D02*
X87296994Y-165712541D01*
X87296994Y-165712541D02*
X87225566Y-165426826D01*
X87225566Y-165426826D02*
X87154137Y-165283969D01*
X87154137Y-165283969D02*
X87082709Y-165212541D01*
X87082709Y-165212541D02*
X86939851Y-165141112D01*
X85796995Y-166498255D02*
X85725566Y-166569684D01*
X85725566Y-166569684D02*
X85796995Y-166641112D01*
X85796995Y-166641112D02*
X85868423Y-166569684D01*
X85868423Y-166569684D02*
X85796995Y-166498255D01*
X85796995Y-166498255D02*
X85796995Y-166641112D01*
X84296994Y-166641112D02*
X85154137Y-166641112D01*
X84725566Y-166641112D02*
X84725566Y-165141112D01*
X84725566Y-165141112D02*
X84868423Y-165355398D01*
X84868423Y-165355398D02*
X85011280Y-165498255D01*
X85011280Y-165498255D02*
X85154137Y-165569684D01*
X126011279Y-169056028D02*
X126011279Y-167556028D01*
X125368422Y-169056028D02*
X125368422Y-168270314D01*
X125368422Y-168270314D02*
X125439850Y-168127457D01*
X125439850Y-168127457D02*
X125582707Y-168056028D01*
X125582707Y-168056028D02*
X125796993Y-168056028D01*
X125796993Y-168056028D02*
X125939850Y-168127457D01*
X125939850Y-168127457D02*
X126011279Y-168198885D01*
X124868421Y-168056028D02*
X124296993Y-168056028D01*
X124654136Y-167556028D02*
X124654136Y-168841742D01*
X124654136Y-168841742D02*
X124582707Y-168984600D01*
X124582707Y-168984600D02*
X124439850Y-169056028D01*
X124439850Y-169056028D02*
X124296993Y-169056028D01*
X124011278Y-168056028D02*
X123439850Y-168056028D01*
X123796993Y-167556028D02*
X123796993Y-168841742D01*
X123796993Y-168841742D02*
X123725564Y-168984600D01*
X123725564Y-168984600D02*
X123582707Y-169056028D01*
X123582707Y-169056028D02*
X123439850Y-169056028D01*
X122939850Y-168056028D02*
X122939850Y-169556028D01*
X122939850Y-168127457D02*
X122796993Y-168056028D01*
X122796993Y-168056028D02*
X122511278Y-168056028D01*
X122511278Y-168056028D02*
X122368421Y-168127457D01*
X122368421Y-168127457D02*
X122296993Y-168198885D01*
X122296993Y-168198885D02*
X122225564Y-168341742D01*
X122225564Y-168341742D02*
X122225564Y-168770314D01*
X122225564Y-168770314D02*
X122296993Y-168913171D01*
X122296993Y-168913171D02*
X122368421Y-168984600D01*
X122368421Y-168984600D02*
X122511278Y-169056028D01*
X122511278Y-169056028D02*
X122796993Y-169056028D01*
X122796993Y-169056028D02*
X122939850Y-168984600D01*
X121654135Y-168984600D02*
X121511278Y-169056028D01*
X121511278Y-169056028D02*
X121225564Y-169056028D01*
X121225564Y-169056028D02*
X121082707Y-168984600D01*
X121082707Y-168984600D02*
X121011278Y-168841742D01*
X121011278Y-168841742D02*
X121011278Y-168770314D01*
X121011278Y-168770314D02*
X121082707Y-168627457D01*
X121082707Y-168627457D02*
X121225564Y-168556028D01*
X121225564Y-168556028D02*
X121439850Y-168556028D01*
X121439850Y-168556028D02*
X121582707Y-168484600D01*
X121582707Y-168484600D02*
X121654135Y-168341742D01*
X121654135Y-168341742D02*
X121654135Y-168270314D01*
X121654135Y-168270314D02*
X121582707Y-168127457D01*
X121582707Y-168127457D02*
X121439850Y-168056028D01*
X121439850Y-168056028D02*
X121225564Y-168056028D01*
X121225564Y-168056028D02*
X121082707Y-168127457D01*
X120368421Y-168913171D02*
X120296992Y-168984600D01*
X120296992Y-168984600D02*
X120368421Y-169056028D01*
X120368421Y-169056028D02*
X120439849Y-168984600D01*
X120439849Y-168984600D02*
X120368421Y-168913171D01*
X120368421Y-168913171D02*
X120368421Y-169056028D01*
X120368421Y-168127457D02*
X120296992Y-168198885D01*
X120296992Y-168198885D02*
X120368421Y-168270314D01*
X120368421Y-168270314D02*
X120439849Y-168198885D01*
X120439849Y-168198885D02*
X120368421Y-168127457D01*
X120368421Y-168127457D02*
X120368421Y-168270314D01*
X118582706Y-167484600D02*
X119868420Y-169413171D01*
X117011277Y-167484600D02*
X118296991Y-169413171D01*
X115868420Y-168056028D02*
X115868420Y-169270314D01*
X115868420Y-169270314D02*
X115939848Y-169413171D01*
X115939848Y-169413171D02*
X116011277Y-169484600D01*
X116011277Y-169484600D02*
X116154134Y-169556028D01*
X116154134Y-169556028D02*
X116368420Y-169556028D01*
X116368420Y-169556028D02*
X116511277Y-169484600D01*
X115868420Y-168984600D02*
X116011277Y-169056028D01*
X116011277Y-169056028D02*
X116296991Y-169056028D01*
X116296991Y-169056028D02*
X116439848Y-168984600D01*
X116439848Y-168984600D02*
X116511277Y-168913171D01*
X116511277Y-168913171D02*
X116582705Y-168770314D01*
X116582705Y-168770314D02*
X116582705Y-168341742D01*
X116582705Y-168341742D02*
X116511277Y-168198885D01*
X116511277Y-168198885D02*
X116439848Y-168127457D01*
X116439848Y-168127457D02*
X116296991Y-168056028D01*
X116296991Y-168056028D02*
X116011277Y-168056028D01*
X116011277Y-168056028D02*
X115868420Y-168127457D01*
X115154134Y-169056028D02*
X115154134Y-168056028D01*
X115154134Y-167556028D02*
X115225562Y-167627457D01*
X115225562Y-167627457D02*
X115154134Y-167698885D01*
X115154134Y-167698885D02*
X115082705Y-167627457D01*
X115082705Y-167627457D02*
X115154134Y-167556028D01*
X115154134Y-167556028D02*
X115154134Y-167698885D01*
X114654133Y-168056028D02*
X114082705Y-168056028D01*
X114439848Y-167556028D02*
X114439848Y-168841742D01*
X114439848Y-168841742D02*
X114368419Y-168984600D01*
X114368419Y-168984600D02*
X114225562Y-169056028D01*
X114225562Y-169056028D02*
X114082705Y-169056028D01*
X113582705Y-169056028D02*
X113582705Y-167556028D01*
X112939848Y-169056028D02*
X112939848Y-168270314D01*
X112939848Y-168270314D02*
X113011276Y-168127457D01*
X113011276Y-168127457D02*
X113154133Y-168056028D01*
X113154133Y-168056028D02*
X113368419Y-168056028D01*
X113368419Y-168056028D02*
X113511276Y-168127457D01*
X113511276Y-168127457D02*
X113582705Y-168198885D01*
X111582705Y-168056028D02*
X111582705Y-169056028D01*
X112225562Y-168056028D02*
X112225562Y-168841742D01*
X112225562Y-168841742D02*
X112154133Y-168984600D01*
X112154133Y-168984600D02*
X112011276Y-169056028D01*
X112011276Y-169056028D02*
X111796990Y-169056028D01*
X111796990Y-169056028D02*
X111654133Y-168984600D01*
X111654133Y-168984600D02*
X111582705Y-168913171D01*
X110868419Y-169056028D02*
X110868419Y-167556028D01*
X110868419Y-168127457D02*
X110725562Y-168056028D01*
X110725562Y-168056028D02*
X110439847Y-168056028D01*
X110439847Y-168056028D02*
X110296990Y-168127457D01*
X110296990Y-168127457D02*
X110225562Y-168198885D01*
X110225562Y-168198885D02*
X110154133Y-168341742D01*
X110154133Y-168341742D02*
X110154133Y-168770314D01*
X110154133Y-168770314D02*
X110225562Y-168913171D01*
X110225562Y-168913171D02*
X110296990Y-168984600D01*
X110296990Y-168984600D02*
X110439847Y-169056028D01*
X110439847Y-169056028D02*
X110725562Y-169056028D01*
X110725562Y-169056028D02*
X110868419Y-168984600D01*
X109511276Y-168913171D02*
X109439847Y-168984600D01*
X109439847Y-168984600D02*
X109511276Y-169056028D01*
X109511276Y-169056028D02*
X109582704Y-168984600D01*
X109582704Y-168984600D02*
X109511276Y-168913171D01*
X109511276Y-168913171D02*
X109511276Y-169056028D01*
X108154133Y-168984600D02*
X108296990Y-169056028D01*
X108296990Y-169056028D02*
X108582704Y-169056028D01*
X108582704Y-169056028D02*
X108725561Y-168984600D01*
X108725561Y-168984600D02*
X108796990Y-168913171D01*
X108796990Y-168913171D02*
X108868418Y-168770314D01*
X108868418Y-168770314D02*
X108868418Y-168341742D01*
X108868418Y-168341742D02*
X108796990Y-168198885D01*
X108796990Y-168198885D02*
X108725561Y-168127457D01*
X108725561Y-168127457D02*
X108582704Y-168056028D01*
X108582704Y-168056028D02*
X108296990Y-168056028D01*
X108296990Y-168056028D02*
X108154133Y-168127457D01*
X107296990Y-169056028D02*
X107439847Y-168984600D01*
X107439847Y-168984600D02*
X107511276Y-168913171D01*
X107511276Y-168913171D02*
X107582704Y-168770314D01*
X107582704Y-168770314D02*
X107582704Y-168341742D01*
X107582704Y-168341742D02*
X107511276Y-168198885D01*
X107511276Y-168198885D02*
X107439847Y-168127457D01*
X107439847Y-168127457D02*
X107296990Y-168056028D01*
X107296990Y-168056028D02*
X107082704Y-168056028D01*
X107082704Y-168056028D02*
X106939847Y-168127457D01*
X106939847Y-168127457D02*
X106868419Y-168198885D01*
X106868419Y-168198885D02*
X106796990Y-168341742D01*
X106796990Y-168341742D02*
X106796990Y-168770314D01*
X106796990Y-168770314D02*
X106868419Y-168913171D01*
X106868419Y-168913171D02*
X106939847Y-168984600D01*
X106939847Y-168984600D02*
X107082704Y-169056028D01*
X107082704Y-169056028D02*
X107296990Y-169056028D01*
X106154133Y-169056028D02*
X106154133Y-168056028D01*
X106154133Y-168198885D02*
X106082704Y-168127457D01*
X106082704Y-168127457D02*
X105939847Y-168056028D01*
X105939847Y-168056028D02*
X105725561Y-168056028D01*
X105725561Y-168056028D02*
X105582704Y-168127457D01*
X105582704Y-168127457D02*
X105511276Y-168270314D01*
X105511276Y-168270314D02*
X105511276Y-169056028D01*
X105511276Y-168270314D02*
X105439847Y-168127457D01*
X105439847Y-168127457D02*
X105296990Y-168056028D01*
X105296990Y-168056028D02*
X105082704Y-168056028D01*
X105082704Y-168056028D02*
X104939847Y-168127457D01*
X104939847Y-168127457D02*
X104868418Y-168270314D01*
X104868418Y-168270314D02*
X104868418Y-169056028D01*
X103082704Y-167484600D02*
X104368418Y-169413171D01*
X101725561Y-169056028D02*
X102225561Y-168341742D01*
X102582704Y-169056028D02*
X102582704Y-167556028D01*
X102582704Y-167556028D02*
X102011275Y-167556028D01*
X102011275Y-167556028D02*
X101868418Y-167627457D01*
X101868418Y-167627457D02*
X101796989Y-167698885D01*
X101796989Y-167698885D02*
X101725561Y-167841742D01*
X101725561Y-167841742D02*
X101725561Y-168056028D01*
X101725561Y-168056028D02*
X101796989Y-168198885D01*
X101796989Y-168198885D02*
X101868418Y-168270314D01*
X101868418Y-168270314D02*
X102011275Y-168341742D01*
X102011275Y-168341742D02*
X102582704Y-168341742D01*
X100511275Y-168984600D02*
X100654132Y-169056028D01*
X100654132Y-169056028D02*
X100939847Y-169056028D01*
X100939847Y-169056028D02*
X101082704Y-168984600D01*
X101082704Y-168984600D02*
X101154132Y-168841742D01*
X101154132Y-168841742D02*
X101154132Y-168270314D01*
X101154132Y-168270314D02*
X101082704Y-168127457D01*
X101082704Y-168127457D02*
X100939847Y-168056028D01*
X100939847Y-168056028D02*
X100654132Y-168056028D01*
X100654132Y-168056028D02*
X100511275Y-168127457D01*
X100511275Y-168127457D02*
X100439847Y-168270314D01*
X100439847Y-168270314D02*
X100439847Y-168413171D01*
X100439847Y-168413171D02*
X101154132Y-168556028D01*
X99296990Y-168270314D02*
X99796990Y-168270314D01*
X99796990Y-169056028D02*
X99796990Y-167556028D01*
X99796990Y-167556028D02*
X99082704Y-167556028D01*
X98511276Y-169056028D02*
X98511276Y-168056028D01*
X98511276Y-167556028D02*
X98582704Y-167627457D01*
X98582704Y-167627457D02*
X98511276Y-167698885D01*
X98511276Y-167698885D02*
X98439847Y-167627457D01*
X98439847Y-167627457D02*
X98511276Y-167556028D01*
X98511276Y-167556028D02*
X98511276Y-167698885D01*
X97582704Y-169056028D02*
X97725561Y-168984600D01*
X97725561Y-168984600D02*
X97796990Y-168841742D01*
X97796990Y-168841742D02*
X97796990Y-167556028D01*
X95939847Y-167484600D02*
X97225561Y-169413171D01*
X95511275Y-168984600D02*
X95296990Y-169056028D01*
X95296990Y-169056028D02*
X94939847Y-169056028D01*
X94939847Y-169056028D02*
X94796990Y-168984600D01*
X94796990Y-168984600D02*
X94725561Y-168913171D01*
X94725561Y-168913171D02*
X94654132Y-168770314D01*
X94654132Y-168770314D02*
X94654132Y-168627457D01*
X94654132Y-168627457D02*
X94725561Y-168484600D01*
X94725561Y-168484600D02*
X94796990Y-168413171D01*
X94796990Y-168413171D02*
X94939847Y-168341742D01*
X94939847Y-168341742D02*
X95225561Y-168270314D01*
X95225561Y-168270314D02*
X95368418Y-168198885D01*
X95368418Y-168198885D02*
X95439847Y-168127457D01*
X95439847Y-168127457D02*
X95511275Y-167984600D01*
X95511275Y-167984600D02*
X95511275Y-167841742D01*
X95511275Y-167841742D02*
X95439847Y-167698885D01*
X95439847Y-167698885D02*
X95368418Y-167627457D01*
X95368418Y-167627457D02*
X95225561Y-167556028D01*
X95225561Y-167556028D02*
X94868418Y-167556028D01*
X94868418Y-167556028D02*
X94654132Y-167627457D01*
X93439847Y-168984600D02*
X93582704Y-169056028D01*
X93582704Y-169056028D02*
X93868419Y-169056028D01*
X93868419Y-169056028D02*
X94011276Y-168984600D01*
X94011276Y-168984600D02*
X94082704Y-168841742D01*
X94082704Y-168841742D02*
X94082704Y-168270314D01*
X94082704Y-168270314D02*
X94011276Y-168127457D01*
X94011276Y-168127457D02*
X93868419Y-168056028D01*
X93868419Y-168056028D02*
X93582704Y-168056028D01*
X93582704Y-168056028D02*
X93439847Y-168127457D01*
X93439847Y-168127457D02*
X93368419Y-168270314D01*
X93368419Y-168270314D02*
X93368419Y-168413171D01*
X93368419Y-168413171D02*
X94082704Y-168556028D01*
X92725562Y-168056028D02*
X92725562Y-169056028D01*
X92725562Y-168198885D02*
X92654133Y-168127457D01*
X92654133Y-168127457D02*
X92511276Y-168056028D01*
X92511276Y-168056028D02*
X92296990Y-168056028D01*
X92296990Y-168056028D02*
X92154133Y-168127457D01*
X92154133Y-168127457D02*
X92082705Y-168270314D01*
X92082705Y-168270314D02*
X92082705Y-169056028D01*
X91439847Y-168984600D02*
X91296990Y-169056028D01*
X91296990Y-169056028D02*
X91011276Y-169056028D01*
X91011276Y-169056028D02*
X90868419Y-168984600D01*
X90868419Y-168984600D02*
X90796990Y-168841742D01*
X90796990Y-168841742D02*
X90796990Y-168770314D01*
X90796990Y-168770314D02*
X90868419Y-168627457D01*
X90868419Y-168627457D02*
X91011276Y-168556028D01*
X91011276Y-168556028D02*
X91225562Y-168556028D01*
X91225562Y-168556028D02*
X91368419Y-168484600D01*
X91368419Y-168484600D02*
X91439847Y-168341742D01*
X91439847Y-168341742D02*
X91439847Y-168270314D01*
X91439847Y-168270314D02*
X91368419Y-168127457D01*
X91368419Y-168127457D02*
X91225562Y-168056028D01*
X91225562Y-168056028D02*
X91011276Y-168056028D01*
X91011276Y-168056028D02*
X90868419Y-168127457D01*
X89939847Y-169056028D02*
X90082704Y-168984600D01*
X90082704Y-168984600D02*
X90154133Y-168913171D01*
X90154133Y-168913171D02*
X90225561Y-168770314D01*
X90225561Y-168770314D02*
X90225561Y-168341742D01*
X90225561Y-168341742D02*
X90154133Y-168198885D01*
X90154133Y-168198885D02*
X90082704Y-168127457D01*
X90082704Y-168127457D02*
X89939847Y-168056028D01*
X89939847Y-168056028D02*
X89725561Y-168056028D01*
X89725561Y-168056028D02*
X89582704Y-168127457D01*
X89582704Y-168127457D02*
X89511276Y-168198885D01*
X89511276Y-168198885D02*
X89439847Y-168341742D01*
X89439847Y-168341742D02*
X89439847Y-168770314D01*
X89439847Y-168770314D02*
X89511276Y-168913171D01*
X89511276Y-168913171D02*
X89582704Y-168984600D01*
X89582704Y-168984600D02*
X89725561Y-169056028D01*
X89725561Y-169056028D02*
X89939847Y-169056028D01*
X88796990Y-169056028D02*
X88796990Y-168056028D01*
X88796990Y-168341742D02*
X88725561Y-168198885D01*
X88725561Y-168198885D02*
X88654133Y-168127457D01*
X88654133Y-168127457D02*
X88511275Y-168056028D01*
X88511275Y-168056028D02*
X88368418Y-168056028D01*
X87868419Y-168484600D02*
X86725562Y-168484600D01*
X86225561Y-168056028D02*
X85654133Y-168056028D01*
X86011276Y-167556028D02*
X86011276Y-168841742D01*
X86011276Y-168841742D02*
X85939847Y-168984600D01*
X85939847Y-168984600D02*
X85796990Y-169056028D01*
X85796990Y-169056028D02*
X85654133Y-169056028D01*
X84582704Y-168984600D02*
X84725561Y-169056028D01*
X84725561Y-169056028D02*
X85011276Y-169056028D01*
X85011276Y-169056028D02*
X85154133Y-168984600D01*
X85154133Y-168984600D02*
X85225561Y-168841742D01*
X85225561Y-168841742D02*
X85225561Y-168270314D01*
X85225561Y-168270314D02*
X85154133Y-168127457D01*
X85154133Y-168127457D02*
X85011276Y-168056028D01*
X85011276Y-168056028D02*
X84725561Y-168056028D01*
X84725561Y-168056028D02*
X84582704Y-168127457D01*
X84582704Y-168127457D02*
X84511276Y-168270314D01*
X84511276Y-168270314D02*
X84511276Y-168413171D01*
X84511276Y-168413171D02*
X85225561Y-168556028D01*
X83939847Y-168984600D02*
X83796990Y-169056028D01*
X83796990Y-169056028D02*
X83511276Y-169056028D01*
X83511276Y-169056028D02*
X83368419Y-168984600D01*
X83368419Y-168984600D02*
X83296990Y-168841742D01*
X83296990Y-168841742D02*
X83296990Y-168770314D01*
X83296990Y-168770314D02*
X83368419Y-168627457D01*
X83368419Y-168627457D02*
X83511276Y-168556028D01*
X83511276Y-168556028D02*
X83725562Y-168556028D01*
X83725562Y-168556028D02*
X83868419Y-168484600D01*
X83868419Y-168484600D02*
X83939847Y-168341742D01*
X83939847Y-168341742D02*
X83939847Y-168270314D01*
X83939847Y-168270314D02*
X83868419Y-168127457D01*
X83868419Y-168127457D02*
X83725562Y-168056028D01*
X83725562Y-168056028D02*
X83511276Y-168056028D01*
X83511276Y-168056028D02*
X83368419Y-168127457D01*
X82868418Y-168056028D02*
X82296990Y-168056028D01*
X82654133Y-167556028D02*
X82654133Y-168841742D01*
X82654133Y-168841742D02*
X82582704Y-168984600D01*
X82582704Y-168984600D02*
X82439847Y-169056028D01*
X82439847Y-169056028D02*
X82296990Y-169056028D01*
X80725561Y-167484600D02*
X82011275Y-169413171D01*
X80439846Y-168056028D02*
X79868418Y-168056028D01*
X80225561Y-167556028D02*
X80225561Y-168841742D01*
X80225561Y-168841742D02*
X80154132Y-168984600D01*
X80154132Y-168984600D02*
X80011275Y-169056028D01*
X80011275Y-169056028D02*
X79868418Y-169056028D01*
X79368418Y-169056028D02*
X79368418Y-168056028D01*
X79368418Y-168341742D02*
X79296989Y-168198885D01*
X79296989Y-168198885D02*
X79225561Y-168127457D01*
X79225561Y-168127457D02*
X79082703Y-168056028D01*
X79082703Y-168056028D02*
X78939846Y-168056028D01*
X77868418Y-168984600D02*
X78011275Y-169056028D01*
X78011275Y-169056028D02*
X78296990Y-169056028D01*
X78296990Y-169056028D02*
X78439847Y-168984600D01*
X78439847Y-168984600D02*
X78511275Y-168841742D01*
X78511275Y-168841742D02*
X78511275Y-168270314D01*
X78511275Y-168270314D02*
X78439847Y-168127457D01*
X78439847Y-168127457D02*
X78296990Y-168056028D01*
X78296990Y-168056028D02*
X78011275Y-168056028D01*
X78011275Y-168056028D02*
X77868418Y-168127457D01*
X77868418Y-168127457D02*
X77796990Y-168270314D01*
X77796990Y-168270314D02*
X77796990Y-168413171D01*
X77796990Y-168413171D02*
X78511275Y-168556028D01*
X76582704Y-168984600D02*
X76725561Y-169056028D01*
X76725561Y-169056028D02*
X77011276Y-169056028D01*
X77011276Y-169056028D02*
X77154133Y-168984600D01*
X77154133Y-168984600D02*
X77225561Y-168841742D01*
X77225561Y-168841742D02*
X77225561Y-168270314D01*
X77225561Y-168270314D02*
X77154133Y-168127457D01*
X77154133Y-168127457D02*
X77011276Y-168056028D01*
X77011276Y-168056028D02*
X76725561Y-168056028D01*
X76725561Y-168056028D02*
X76582704Y-168127457D01*
X76582704Y-168127457D02*
X76511276Y-168270314D01*
X76511276Y-168270314D02*
X76511276Y-168413171D01*
X76511276Y-168413171D02*
X77225561Y-168556028D01*
X74796990Y-167484600D02*
X76082704Y-169413171D01*
X74296990Y-169056028D02*
X74296990Y-168056028D01*
X74296990Y-168198885D02*
X74225561Y-168127457D01*
X74225561Y-168127457D02*
X74082704Y-168056028D01*
X74082704Y-168056028D02*
X73868418Y-168056028D01*
X73868418Y-168056028D02*
X73725561Y-168127457D01*
X73725561Y-168127457D02*
X73654133Y-168270314D01*
X73654133Y-168270314D02*
X73654133Y-169056028D01*
X73654133Y-168270314D02*
X73582704Y-168127457D01*
X73582704Y-168127457D02*
X73439847Y-168056028D01*
X73439847Y-168056028D02*
X73225561Y-168056028D01*
X73225561Y-168056028D02*
X73082704Y-168127457D01*
X73082704Y-168127457D02*
X73011275Y-168270314D01*
X73011275Y-168270314D02*
X73011275Y-169056028D01*
X71654133Y-169056028D02*
X71654133Y-168270314D01*
X71654133Y-168270314D02*
X71725561Y-168127457D01*
X71725561Y-168127457D02*
X71868418Y-168056028D01*
X71868418Y-168056028D02*
X72154133Y-168056028D01*
X72154133Y-168056028D02*
X72296990Y-168127457D01*
X71654133Y-168984600D02*
X71796990Y-169056028D01*
X71796990Y-169056028D02*
X72154133Y-169056028D01*
X72154133Y-169056028D02*
X72296990Y-168984600D01*
X72296990Y-168984600D02*
X72368418Y-168841742D01*
X72368418Y-168841742D02*
X72368418Y-168698885D01*
X72368418Y-168698885D02*
X72296990Y-168556028D01*
X72296990Y-168556028D02*
X72154133Y-168484600D01*
X72154133Y-168484600D02*
X71796990Y-168484600D01*
X71796990Y-168484600D02*
X71654133Y-168413171D01*
X70939847Y-169056028D02*
X70939847Y-168056028D01*
X70939847Y-167556028D02*
X71011275Y-167627457D01*
X71011275Y-167627457D02*
X70939847Y-167698885D01*
X70939847Y-167698885D02*
X70868418Y-167627457D01*
X70868418Y-167627457D02*
X70939847Y-167556028D01*
X70939847Y-167556028D02*
X70939847Y-167698885D01*
X70225561Y-168056028D02*
X70225561Y-169056028D01*
X70225561Y-168198885D02*
X70154132Y-168127457D01*
X70154132Y-168127457D02*
X70011275Y-168056028D01*
X70011275Y-168056028D02*
X69796989Y-168056028D01*
X69796989Y-168056028D02*
X69654132Y-168127457D01*
X69654132Y-168127457D02*
X69582704Y-168270314D01*
X69582704Y-168270314D02*
X69582704Y-169056028D01*
X67796989Y-167484600D02*
X69082703Y-169413171D01*
X67368417Y-168984600D02*
X67225560Y-169056028D01*
X67225560Y-169056028D02*
X66939846Y-169056028D01*
X66939846Y-169056028D02*
X66796989Y-168984600D01*
X66796989Y-168984600D02*
X66725560Y-168841742D01*
X66725560Y-168841742D02*
X66725560Y-168770314D01*
X66725560Y-168770314D02*
X66796989Y-168627457D01*
X66796989Y-168627457D02*
X66939846Y-168556028D01*
X66939846Y-168556028D02*
X67154132Y-168556028D01*
X67154132Y-168556028D02*
X67296989Y-168484600D01*
X67296989Y-168484600D02*
X67368417Y-168341742D01*
X67368417Y-168341742D02*
X67368417Y-168270314D01*
X67368417Y-168270314D02*
X67296989Y-168127457D01*
X67296989Y-168127457D02*
X67154132Y-168056028D01*
X67154132Y-168056028D02*
X66939846Y-168056028D01*
X66939846Y-168056028D02*
X66796989Y-168127457D01*
X65511274Y-168984600D02*
X65654131Y-169056028D01*
X65654131Y-169056028D02*
X65939846Y-169056028D01*
X65939846Y-169056028D02*
X66082703Y-168984600D01*
X66082703Y-168984600D02*
X66154131Y-168841742D01*
X66154131Y-168841742D02*
X66154131Y-168270314D01*
X66154131Y-168270314D02*
X66082703Y-168127457D01*
X66082703Y-168127457D02*
X65939846Y-168056028D01*
X65939846Y-168056028D02*
X65654131Y-168056028D01*
X65654131Y-168056028D02*
X65511274Y-168127457D01*
X65511274Y-168127457D02*
X65439846Y-168270314D01*
X65439846Y-168270314D02*
X65439846Y-168413171D01*
X65439846Y-168413171D02*
X66154131Y-168556028D01*
X64796989Y-168056028D02*
X64796989Y-169056028D01*
X64796989Y-168198885D02*
X64725560Y-168127457D01*
X64725560Y-168127457D02*
X64582703Y-168056028D01*
X64582703Y-168056028D02*
X64368417Y-168056028D01*
X64368417Y-168056028D02*
X64225560Y-168127457D01*
X64225560Y-168127457D02*
X64154132Y-168270314D01*
X64154132Y-168270314D02*
X64154132Y-169056028D01*
X63511274Y-168984600D02*
X63368417Y-169056028D01*
X63368417Y-169056028D02*
X63082703Y-169056028D01*
X63082703Y-169056028D02*
X62939846Y-168984600D01*
X62939846Y-168984600D02*
X62868417Y-168841742D01*
X62868417Y-168841742D02*
X62868417Y-168770314D01*
X62868417Y-168770314D02*
X62939846Y-168627457D01*
X62939846Y-168627457D02*
X63082703Y-168556028D01*
X63082703Y-168556028D02*
X63296989Y-168556028D01*
X63296989Y-168556028D02*
X63439846Y-168484600D01*
X63439846Y-168484600D02*
X63511274Y-168341742D01*
X63511274Y-168341742D02*
X63511274Y-168270314D01*
X63511274Y-168270314D02*
X63439846Y-168127457D01*
X63439846Y-168127457D02*
X63296989Y-168056028D01*
X63296989Y-168056028D02*
X63082703Y-168056028D01*
X63082703Y-168056028D02*
X62939846Y-168127457D01*
X61582703Y-169056028D02*
X61582703Y-167556028D01*
X61582703Y-168984600D02*
X61725560Y-169056028D01*
X61725560Y-169056028D02*
X62011274Y-169056028D01*
X62011274Y-169056028D02*
X62154131Y-168984600D01*
X62154131Y-168984600D02*
X62225560Y-168913171D01*
X62225560Y-168913171D02*
X62296988Y-168770314D01*
X62296988Y-168770314D02*
X62296988Y-168341742D01*
X62296988Y-168341742D02*
X62225560Y-168198885D01*
X62225560Y-168198885D02*
X62154131Y-168127457D01*
X62154131Y-168127457D02*
X62011274Y-168056028D01*
X62011274Y-168056028D02*
X61725560Y-168056028D01*
X61725560Y-168056028D02*
X61582703Y-168127457D01*
X88071427Y-51183528D02*
X88928570Y-51183528D01*
X88499999Y-51183528D02*
X88499999Y-49683528D01*
X88499999Y-49683528D02*
X88642856Y-49897814D01*
X88642856Y-49897814D02*
X88785713Y-50040671D01*
X88785713Y-50040671D02*
X88928570Y-50112100D01*
X87142856Y-49683528D02*
X86999999Y-49683528D01*
X86999999Y-49683528D02*
X86857142Y-49754957D01*
X86857142Y-49754957D02*
X86785714Y-49826385D01*
X86785714Y-49826385D02*
X86714285Y-49969242D01*
X86714285Y-49969242D02*
X86642856Y-50254957D01*
X86642856Y-50254957D02*
X86642856Y-50612100D01*
X86642856Y-50612100D02*
X86714285Y-50897814D01*
X86714285Y-50897814D02*
X86785714Y-51040671D01*
X86785714Y-51040671D02*
X86857142Y-51112100D01*
X86857142Y-51112100D02*
X86999999Y-51183528D01*
X86999999Y-51183528D02*
X87142856Y-51183528D01*
X87142856Y-51183528D02*
X87285714Y-51112100D01*
X87285714Y-51112100D02*
X87357142Y-51040671D01*
X87357142Y-51040671D02*
X87428571Y-50897814D01*
X87428571Y-50897814D02*
X87499999Y-50612100D01*
X87499999Y-50612100D02*
X87499999Y-50254957D01*
X87499999Y-50254957D02*
X87428571Y-49969242D01*
X87428571Y-49969242D02*
X87357142Y-49826385D01*
X87357142Y-49826385D02*
X87285714Y-49754957D01*
X87285714Y-49754957D02*
X87142856Y-49683528D01*
X86142857Y-49683528D02*
X85214285Y-49683528D01*
X85214285Y-49683528D02*
X85714285Y-50254957D01*
X85714285Y-50254957D02*
X85500000Y-50254957D01*
X85500000Y-50254957D02*
X85357143Y-50326385D01*
X85357143Y-50326385D02*
X85285714Y-50397814D01*
X85285714Y-50397814D02*
X85214285Y-50540671D01*
X85214285Y-50540671D02*
X85214285Y-50897814D01*
X85214285Y-50897814D02*
X85285714Y-51040671D01*
X85285714Y-51040671D02*
X85357143Y-51112100D01*
X85357143Y-51112100D02*
X85500000Y-51183528D01*
X85500000Y-51183528D02*
X85928571Y-51183528D01*
X85928571Y-51183528D02*
X86071428Y-51112100D01*
X86071428Y-51112100D02*
X86142857Y-51040671D01*
X83428572Y-51183528D02*
X83428572Y-50183528D01*
X83428572Y-50326385D02*
X83357143Y-50254957D01*
X83357143Y-50254957D02*
X83214286Y-50183528D01*
X83214286Y-50183528D02*
X83000000Y-50183528D01*
X83000000Y-50183528D02*
X82857143Y-50254957D01*
X82857143Y-50254957D02*
X82785715Y-50397814D01*
X82785715Y-50397814D02*
X82785715Y-51183528D01*
X82785715Y-50397814D02*
X82714286Y-50254957D01*
X82714286Y-50254957D02*
X82571429Y-50183528D01*
X82571429Y-50183528D02*
X82357143Y-50183528D01*
X82357143Y-50183528D02*
X82214286Y-50254957D01*
X82214286Y-50254957D02*
X82142857Y-50397814D01*
X82142857Y-50397814D02*
X82142857Y-51183528D01*
X81428572Y-51183528D02*
X81428572Y-50183528D01*
X81428572Y-50326385D02*
X81357143Y-50254957D01*
X81357143Y-50254957D02*
X81214286Y-50183528D01*
X81214286Y-50183528D02*
X81000000Y-50183528D01*
X81000000Y-50183528D02*
X80857143Y-50254957D01*
X80857143Y-50254957D02*
X80785715Y-50397814D01*
X80785715Y-50397814D02*
X80785715Y-51183528D01*
X80785715Y-50397814D02*
X80714286Y-50254957D01*
X80714286Y-50254957D02*
X80571429Y-50183528D01*
X80571429Y-50183528D02*
X80357143Y-50183528D01*
X80357143Y-50183528D02*
X80214286Y-50254957D01*
X80214286Y-50254957D02*
X80142857Y-50397814D01*
X80142857Y-50397814D02*
X80142857Y-51183528D01*
X33000000Y-47500000D02*
X33000000Y-47413580D01*
X136000000Y-47500000D02*
X136000000Y-47413580D01*
X33000000Y-48000000D02*
X136000000Y-48000000D01*
X33000000Y-48000000D02*
X136000000Y-48000000D01*
X33000000Y-48000000D02*
X34126504Y-47413579D01*
X33000000Y-48000000D02*
X34126504Y-48586421D01*
X136000000Y-48000000D02*
X134873496Y-48586421D01*
X136000000Y-48000000D02*
X134873496Y-47413579D01*
X39571428Y-165433528D02*
X38571428Y-165433528D01*
X38571428Y-165433528D02*
X39214285Y-166933528D01*
X36857143Y-166933528D02*
X36857143Y-165933528D01*
X36857143Y-166076385D02*
X36785714Y-166004957D01*
X36785714Y-166004957D02*
X36642857Y-165933528D01*
X36642857Y-165933528D02*
X36428571Y-165933528D01*
X36428571Y-165933528D02*
X36285714Y-166004957D01*
X36285714Y-166004957D02*
X36214286Y-166147814D01*
X36214286Y-166147814D02*
X36214286Y-166933528D01*
X36214286Y-166147814D02*
X36142857Y-166004957D01*
X36142857Y-166004957D02*
X36000000Y-165933528D01*
X36000000Y-165933528D02*
X35785714Y-165933528D01*
X35785714Y-165933528D02*
X35642857Y-166004957D01*
X35642857Y-166004957D02*
X35571428Y-166147814D01*
X35571428Y-166147814D02*
X35571428Y-166933528D01*
X34857143Y-166933528D02*
X34857143Y-165933528D01*
X34857143Y-166076385D02*
X34785714Y-166004957D01*
X34785714Y-166004957D02*
X34642857Y-165933528D01*
X34642857Y-165933528D02*
X34428571Y-165933528D01*
X34428571Y-165933528D02*
X34285714Y-166004957D01*
X34285714Y-166004957D02*
X34214286Y-166147814D01*
X34214286Y-166147814D02*
X34214286Y-166933528D01*
X34214286Y-166147814D02*
X34142857Y-166004957D01*
X34142857Y-166004957D02*
X34000000Y-165933528D01*
X34000000Y-165933528D02*
X33785714Y-165933528D01*
X33785714Y-165933528D02*
X33642857Y-166004957D01*
X33642857Y-166004957D02*
X33571428Y-166147814D01*
X33571428Y-166147814D02*
X33571428Y-166933528D01*
X40000000Y-161749999D02*
X40000000Y-164336420D01*
X33000000Y-161749999D02*
X33000000Y-164336420D01*
X40000000Y-163750000D02*
X33000000Y-163750000D01*
X40000000Y-163750000D02*
X33000000Y-163750000D01*
X40000000Y-163750000D02*
X38873496Y-164336421D01*
X40000000Y-163750000D02*
X38873496Y-163163579D01*
X33000000Y-163750000D02*
X34126504Y-163163579D01*
X33000000Y-163750000D02*
X34126504Y-164336421D01*
X96571427Y-188483528D02*
X97428570Y-188483528D01*
X96999999Y-188483528D02*
X96999999Y-186983528D01*
X96999999Y-186983528D02*
X97142856Y-187197814D01*
X97142856Y-187197814D02*
X97285713Y-187340671D01*
X97285713Y-187340671D02*
X97428570Y-187412100D01*
X95999999Y-187126385D02*
X95928571Y-187054957D01*
X95928571Y-187054957D02*
X95785714Y-186983528D01*
X95785714Y-186983528D02*
X95428571Y-186983528D01*
X95428571Y-186983528D02*
X95285714Y-187054957D01*
X95285714Y-187054957D02*
X95214285Y-187126385D01*
X95214285Y-187126385D02*
X95142856Y-187269242D01*
X95142856Y-187269242D02*
X95142856Y-187412100D01*
X95142856Y-187412100D02*
X95214285Y-187626385D01*
X95214285Y-187626385D02*
X96071428Y-188483528D01*
X96071428Y-188483528D02*
X95142856Y-188483528D01*
X94214285Y-186983528D02*
X94071428Y-186983528D01*
X94071428Y-186983528D02*
X93928571Y-187054957D01*
X93928571Y-187054957D02*
X93857143Y-187126385D01*
X93857143Y-187126385D02*
X93785714Y-187269242D01*
X93785714Y-187269242D02*
X93714285Y-187554957D01*
X93714285Y-187554957D02*
X93714285Y-187912100D01*
X93714285Y-187912100D02*
X93785714Y-188197814D01*
X93785714Y-188197814D02*
X93857143Y-188340671D01*
X93857143Y-188340671D02*
X93928571Y-188412100D01*
X93928571Y-188412100D02*
X94071428Y-188483528D01*
X94071428Y-188483528D02*
X94214285Y-188483528D01*
X94214285Y-188483528D02*
X94357143Y-188412100D01*
X94357143Y-188412100D02*
X94428571Y-188340671D01*
X94428571Y-188340671D02*
X94500000Y-188197814D01*
X94500000Y-188197814D02*
X94571428Y-187912100D01*
X94571428Y-187912100D02*
X94571428Y-187554957D01*
X94571428Y-187554957D02*
X94500000Y-187269242D01*
X94500000Y-187269242D02*
X94428571Y-187126385D01*
X94428571Y-187126385D02*
X94357143Y-187054957D01*
X94357143Y-187054957D02*
X94214285Y-186983528D01*
X91928572Y-188483528D02*
X91928572Y-187483528D01*
X91928572Y-187626385D02*
X91857143Y-187554957D01*
X91857143Y-187554957D02*
X91714286Y-187483528D01*
X91714286Y-187483528D02*
X91500000Y-187483528D01*
X91500000Y-187483528D02*
X91357143Y-187554957D01*
X91357143Y-187554957D02*
X91285715Y-187697814D01*
X91285715Y-187697814D02*
X91285715Y-188483528D01*
X91285715Y-187697814D02*
X91214286Y-187554957D01*
X91214286Y-187554957D02*
X91071429Y-187483528D01*
X91071429Y-187483528D02*
X90857143Y-187483528D01*
X90857143Y-187483528D02*
X90714286Y-187554957D01*
X90714286Y-187554957D02*
X90642857Y-187697814D01*
X90642857Y-187697814D02*
X90642857Y-188483528D01*
X89928572Y-188483528D02*
X89928572Y-187483528D01*
X89928572Y-187626385D02*
X89857143Y-187554957D01*
X89857143Y-187554957D02*
X89714286Y-187483528D01*
X89714286Y-187483528D02*
X89500000Y-187483528D01*
X89500000Y-187483528D02*
X89357143Y-187554957D01*
X89357143Y-187554957D02*
X89285715Y-187697814D01*
X89285715Y-187697814D02*
X89285715Y-188483528D01*
X89285715Y-187697814D02*
X89214286Y-187554957D01*
X89214286Y-187554957D02*
X89071429Y-187483528D01*
X89071429Y-187483528D02*
X88857143Y-187483528D01*
X88857143Y-187483528D02*
X88714286Y-187554957D01*
X88714286Y-187554957D02*
X88642857Y-187697814D01*
X88642857Y-187697814D02*
X88642857Y-188483528D01*
X33000000Y-189000000D02*
X33000000Y-188913580D01*
X153000000Y-189000000D02*
X153000000Y-188913580D01*
X33000000Y-189500000D02*
X153000000Y-189500000D01*
X33000000Y-189500000D02*
X153000000Y-189500000D01*
X33000000Y-189500000D02*
X34126504Y-188913579D01*
X33000000Y-189500000D02*
X34126504Y-190086421D01*
X153000000Y-189500000D02*
X151873496Y-190086421D01*
X153000000Y-189500000D02*
X151873496Y-188913579D01*
X37826385Y-173285715D02*
X37754957Y-173357143D01*
X37754957Y-173357143D02*
X37683528Y-173500001D01*
X37683528Y-173500001D02*
X37683528Y-173857143D01*
X37683528Y-173857143D02*
X37754957Y-174000001D01*
X37754957Y-174000001D02*
X37826385Y-174071429D01*
X37826385Y-174071429D02*
X37969242Y-174142858D01*
X37969242Y-174142858D02*
X38112100Y-174142858D01*
X38112100Y-174142858D02*
X38326385Y-174071429D01*
X38326385Y-174071429D02*
X39183528Y-173214286D01*
X39183528Y-173214286D02*
X39183528Y-174142858D01*
X39183528Y-174857143D02*
X39183528Y-175142857D01*
X39183528Y-175142857D02*
X39112100Y-175285714D01*
X39112100Y-175285714D02*
X39040671Y-175357143D01*
X39040671Y-175357143D02*
X38826385Y-175500000D01*
X38826385Y-175500000D02*
X38540671Y-175571429D01*
X38540671Y-175571429D02*
X37969242Y-175571429D01*
X37969242Y-175571429D02*
X37826385Y-175500000D01*
X37826385Y-175500000D02*
X37754957Y-175428572D01*
X37754957Y-175428572D02*
X37683528Y-175285714D01*
X37683528Y-175285714D02*
X37683528Y-175000000D01*
X37683528Y-175000000D02*
X37754957Y-174857143D01*
X37754957Y-174857143D02*
X37826385Y-174785714D01*
X37826385Y-174785714D02*
X37969242Y-174714286D01*
X37969242Y-174714286D02*
X38326385Y-174714286D01*
X38326385Y-174714286D02*
X38469242Y-174785714D01*
X38469242Y-174785714D02*
X38540671Y-174857143D01*
X38540671Y-174857143D02*
X38612100Y-175000000D01*
X38612100Y-175000000D02*
X38612100Y-175285714D01*
X38612100Y-175285714D02*
X38540671Y-175428572D01*
X38540671Y-175428572D02*
X38469242Y-175500000D01*
X38469242Y-175500000D02*
X38326385Y-175571429D01*
X39183528Y-177357142D02*
X38183528Y-177357142D01*
X38326385Y-177357142D02*
X38254957Y-177428571D01*
X38254957Y-177428571D02*
X38183528Y-177571428D01*
X38183528Y-177571428D02*
X38183528Y-177785714D01*
X38183528Y-177785714D02*
X38254957Y-177928571D01*
X38254957Y-177928571D02*
X38397814Y-178000000D01*
X38397814Y-178000000D02*
X39183528Y-178000000D01*
X38397814Y-178000000D02*
X38254957Y-178071428D01*
X38254957Y-178071428D02*
X38183528Y-178214285D01*
X38183528Y-178214285D02*
X38183528Y-178428571D01*
X38183528Y-178428571D02*
X38254957Y-178571428D01*
X38254957Y-178571428D02*
X38397814Y-178642857D01*
X38397814Y-178642857D02*
X39183528Y-178642857D01*
X39183528Y-179357142D02*
X38183528Y-179357142D01*
X38326385Y-179357142D02*
X38254957Y-179428571D01*
X38254957Y-179428571D02*
X38183528Y-179571428D01*
X38183528Y-179571428D02*
X38183528Y-179785714D01*
X38183528Y-179785714D02*
X38254957Y-179928571D01*
X38254957Y-179928571D02*
X38397814Y-180000000D01*
X38397814Y-180000000D02*
X39183528Y-180000000D01*
X38397814Y-180000000D02*
X38254957Y-180071428D01*
X38254957Y-180071428D02*
X38183528Y-180214285D01*
X38183528Y-180214285D02*
X38183528Y-180428571D01*
X38183528Y-180428571D02*
X38254957Y-180571428D01*
X38254957Y-180571428D02*
X38397814Y-180642857D01*
X38397814Y-180642857D02*
X39183528Y-180642857D01*
X40500000Y-160500000D02*
X40586420Y-160500000D01*
X40500000Y-189500000D02*
X40586420Y-189500000D01*
X40000000Y-160500000D02*
X40000000Y-189500000D01*
X40000000Y-160500000D02*
X40000000Y-189500000D01*
X40000000Y-160500000D02*
X40586421Y-161626504D01*
X40000000Y-160500000D02*
X39413579Y-161626504D01*
X40000000Y-189500000D02*
X39413579Y-188373496D01*
X40000000Y-189500000D02*
X40586421Y-188373496D01*
X35433528Y-121107144D02*
X35433528Y-120250001D01*
X35433528Y-120678572D02*
X33933528Y-120678572D01*
X33933528Y-120678572D02*
X34147814Y-120535715D01*
X34147814Y-120535715D02*
X34290671Y-120392858D01*
X34290671Y-120392858D02*
X34362100Y-120250001D01*
X34433528Y-122392858D02*
X35433528Y-122392858D01*
X33862100Y-122035715D02*
X34933528Y-121678572D01*
X34933528Y-121678572D02*
X34933528Y-122607143D01*
X35433528Y-123964286D02*
X35433528Y-123107143D01*
X35433528Y-123535714D02*
X33933528Y-123535714D01*
X33933528Y-123535714D02*
X34147814Y-123392857D01*
X34147814Y-123392857D02*
X34290671Y-123250000D01*
X34290671Y-123250000D02*
X34362100Y-123107143D01*
X35290671Y-124607142D02*
X35362100Y-124678571D01*
X35362100Y-124678571D02*
X35433528Y-124607142D01*
X35433528Y-124607142D02*
X35362100Y-124535714D01*
X35362100Y-124535714D02*
X35290671Y-124607142D01*
X35290671Y-124607142D02*
X35433528Y-124607142D01*
X33933528Y-126035714D02*
X33933528Y-125321428D01*
X33933528Y-125321428D02*
X34647814Y-125250000D01*
X34647814Y-125250000D02*
X34576385Y-125321428D01*
X34576385Y-125321428D02*
X34504957Y-125464286D01*
X34504957Y-125464286D02*
X34504957Y-125821428D01*
X34504957Y-125821428D02*
X34576385Y-125964286D01*
X34576385Y-125964286D02*
X34647814Y-126035714D01*
X34647814Y-126035714D02*
X34790671Y-126107143D01*
X34790671Y-126107143D02*
X35147814Y-126107143D01*
X35147814Y-126107143D02*
X35290671Y-126035714D01*
X35290671Y-126035714D02*
X35362100Y-125964286D01*
X35362100Y-125964286D02*
X35433528Y-125821428D01*
X35433528Y-125821428D02*
X35433528Y-125464286D01*
X35433528Y-125464286D02*
X35362100Y-125321428D01*
X35362100Y-125321428D02*
X35290671Y-125250000D01*
X35433528Y-127892856D02*
X34433528Y-127892856D01*
X34576385Y-127892856D02*
X34504957Y-127964285D01*
X34504957Y-127964285D02*
X34433528Y-128107142D01*
X34433528Y-128107142D02*
X34433528Y-128321428D01*
X34433528Y-128321428D02*
X34504957Y-128464285D01*
X34504957Y-128464285D02*
X34647814Y-128535714D01*
X34647814Y-128535714D02*
X35433528Y-128535714D01*
X34647814Y-128535714D02*
X34504957Y-128607142D01*
X34504957Y-128607142D02*
X34433528Y-128749999D01*
X34433528Y-128749999D02*
X34433528Y-128964285D01*
X34433528Y-128964285D02*
X34504957Y-129107142D01*
X34504957Y-129107142D02*
X34647814Y-129178571D01*
X34647814Y-129178571D02*
X35433528Y-129178571D01*
X35433528Y-129892856D02*
X34433528Y-129892856D01*
X34576385Y-129892856D02*
X34504957Y-129964285D01*
X34504957Y-129964285D02*
X34433528Y-130107142D01*
X34433528Y-130107142D02*
X34433528Y-130321428D01*
X34433528Y-130321428D02*
X34504957Y-130464285D01*
X34504957Y-130464285D02*
X34647814Y-130535714D01*
X34647814Y-130535714D02*
X35433528Y-130535714D01*
X34647814Y-130535714D02*
X34504957Y-130607142D01*
X34504957Y-130607142D02*
X34433528Y-130749999D01*
X34433528Y-130749999D02*
X34433528Y-130964285D01*
X34433528Y-130964285D02*
X34504957Y-131107142D01*
X34504957Y-131107142D02*
X34647814Y-131178571D01*
X34647814Y-131178571D02*
X35433528Y-131178571D01*
X33500000Y-48000000D02*
X33586420Y-48000000D01*
X33500000Y-189500000D02*
X33586420Y-189500000D01*
X33000000Y-48000000D02*
X33000000Y-189500000D01*
X33000000Y-48000000D02*
X33000000Y-189500000D01*
X33000000Y-48000000D02*
X33586421Y-49126504D01*
X33000000Y-48000000D02*
X32413579Y-49126504D01*
X33000000Y-189500000D02*
X32413579Y-188373496D01*
X33000000Y-189500000D02*
X33586421Y-188373496D01*
D11*
%TO.C,JP4*%
X38500000Y-152600000D02*
X40500000Y-152600000D01*
X38500000Y-155400000D02*
X38500000Y-152600000D01*
X40500000Y-152600000D02*
X40500000Y-155400000D01*
X40500000Y-155400000D02*
X38500000Y-155400000D01*
%TO.C,JP9*%
X51250000Y-152600000D02*
X53250000Y-152600000D01*
X51250000Y-155400000D02*
X51250000Y-152600000D01*
X53250000Y-152600000D02*
X53250000Y-155400000D01*
X53250000Y-155400000D02*
X51250000Y-155400000D01*
%TO.C,JP45*%
X89000000Y-130600000D02*
X91000000Y-130600000D01*
X89000000Y-133400000D02*
X89000000Y-130600000D01*
X91000000Y-130600000D02*
X91000000Y-133400000D01*
X91000000Y-133400000D02*
X89000000Y-133400000D01*
%TO.C,JP13*%
X61250000Y-152600000D02*
X63250000Y-152600000D01*
X61250000Y-155400000D02*
X61250000Y-152600000D01*
X63250000Y-152600000D02*
X63250000Y-155400000D01*
X63250000Y-155400000D02*
X61250000Y-155400000D01*
%TO.C,JP22*%
X86750000Y-152600000D02*
X88750000Y-152600000D01*
X86750000Y-155400000D02*
X86750000Y-152600000D01*
X88750000Y-152600000D02*
X88750000Y-155400000D01*
X88750000Y-155400000D02*
X86750000Y-155400000D01*
%TO.C,JP7*%
X46250000Y-152600000D02*
X48250000Y-152600000D01*
X46250000Y-155400000D02*
X46250000Y-152600000D01*
X48250000Y-152600000D02*
X48250000Y-155400000D01*
X48250000Y-155400000D02*
X46250000Y-155400000D01*
%TO.C,JP19*%
X79250000Y-152600000D02*
X81250000Y-152600000D01*
X79250000Y-155400000D02*
X79250000Y-152600000D01*
X81250000Y-152600000D02*
X81250000Y-155400000D01*
X81250000Y-155400000D02*
X79250000Y-155400000D01*
%TO.C,JP11*%
X56250000Y-152600000D02*
X58250000Y-152600000D01*
X56250000Y-155400000D02*
X56250000Y-152600000D01*
X58250000Y-152600000D02*
X58250000Y-155400000D01*
X58250000Y-155400000D02*
X56250000Y-155400000D01*
%TO.C,JP15*%
X69000000Y-152600000D02*
X71000000Y-152600000D01*
X69000000Y-155400000D02*
X69000000Y-152600000D01*
X71000000Y-152600000D02*
X71000000Y-155400000D01*
X71000000Y-155400000D02*
X69000000Y-155400000D01*
%TO.C,JP21*%
X84250000Y-152600000D02*
X86250000Y-152600000D01*
X84250000Y-155400000D02*
X84250000Y-152600000D01*
X86250000Y-152600000D02*
X86250000Y-155400000D01*
X86250000Y-155400000D02*
X84250000Y-155400000D01*
%TO.C,JP34*%
X58750000Y-130600000D02*
X60750000Y-130600000D01*
X58750000Y-133400000D02*
X58750000Y-130600000D01*
X60750000Y-130600000D02*
X60750000Y-133400000D01*
X60750000Y-133400000D02*
X58750000Y-133400000D01*
%TO.C,JP44*%
X86500000Y-130600000D02*
X88500000Y-130600000D01*
X86500000Y-133400000D02*
X86500000Y-130600000D01*
X88500000Y-130600000D02*
X88500000Y-133400000D01*
X88500000Y-133400000D02*
X86500000Y-133400000D01*
%TO.C,JP10*%
X53750000Y-152600000D02*
X55750000Y-152600000D01*
X53750000Y-155400000D02*
X53750000Y-152600000D01*
X55750000Y-152600000D02*
X55750000Y-155400000D01*
X55750000Y-155400000D02*
X53750000Y-155400000D01*
%TO.C,JP23*%
X89250000Y-152600000D02*
X91250000Y-152600000D01*
X89250000Y-155400000D02*
X89250000Y-152600000D01*
X91250000Y-152600000D02*
X91250000Y-155400000D01*
X91250000Y-155400000D02*
X89250000Y-155400000D01*
%TO.C,JP30*%
X48500000Y-130600000D02*
X50500000Y-130600000D01*
X48500000Y-133400000D02*
X48500000Y-130600000D01*
X50500000Y-130600000D02*
X50500000Y-133400000D01*
X50500000Y-133400000D02*
X48500000Y-133400000D01*
%TO.C,JP42*%
X78750000Y-130600000D02*
X80750000Y-130600000D01*
X78750000Y-133400000D02*
X78750000Y-130600000D01*
X80750000Y-130600000D02*
X80750000Y-133400000D01*
X80750000Y-133400000D02*
X78750000Y-133400000D01*
%TO.C,JP8*%
X48750000Y-152600000D02*
X50750000Y-152600000D01*
X48750000Y-155400000D02*
X48750000Y-152600000D01*
X50750000Y-152600000D02*
X50750000Y-155400000D01*
X50750000Y-155400000D02*
X48750000Y-155400000D01*
%TO.C,JP12*%
X58750000Y-152600000D02*
X60750000Y-152600000D01*
X58750000Y-155400000D02*
X58750000Y-152600000D01*
X60750000Y-152600000D02*
X60750000Y-155400000D01*
X60750000Y-155400000D02*
X58750000Y-155400000D01*
%TO.C,JP6*%
X43750000Y-152600000D02*
X45750000Y-152600000D01*
X43750000Y-155400000D02*
X43750000Y-152600000D01*
X45750000Y-152600000D02*
X45750000Y-155400000D01*
X45750000Y-155400000D02*
X43750000Y-155400000D01*
%TO.C,JP31*%
X51000000Y-130600000D02*
X53000000Y-130600000D01*
X51000000Y-133400000D02*
X51000000Y-130600000D01*
X53000000Y-130600000D02*
X53000000Y-133400000D01*
X53000000Y-133400000D02*
X51000000Y-133400000D01*
%TO.C,JP29*%
X46000000Y-130600000D02*
X48000000Y-130600000D01*
X46000000Y-133400000D02*
X46000000Y-130600000D01*
X48000000Y-130600000D02*
X48000000Y-133400000D01*
X48000000Y-133400000D02*
X46000000Y-133400000D01*
%TO.C,JP43*%
X84000000Y-130600000D02*
X86000000Y-130600000D01*
X84000000Y-133400000D02*
X84000000Y-130600000D01*
X86000000Y-130600000D02*
X86000000Y-133400000D01*
X86000000Y-133400000D02*
X84000000Y-133400000D01*
%TO.C,JP20*%
X81750000Y-152600000D02*
X83750000Y-152600000D01*
X81750000Y-155400000D02*
X81750000Y-152600000D01*
X83750000Y-152600000D02*
X83750000Y-155400000D01*
X83750000Y-155400000D02*
X81750000Y-155400000D01*
%TO.C,JP41*%
X76250000Y-130600000D02*
X78250000Y-130600000D01*
X76250000Y-133400000D02*
X76250000Y-130600000D01*
X78250000Y-130600000D02*
X78250000Y-133400000D01*
X78250000Y-133400000D02*
X76250000Y-133400000D01*
%TO.C,J14*%
X140465662Y-149830000D02*
X140898675Y-150080000D01*
X140465662Y-150330000D02*
X140465662Y-149830000D01*
X140898675Y-150080000D02*
X140465662Y-150330000D01*
X141360000Y-158965000D02*
X141360000Y-130115000D01*
X142420000Y-129055000D02*
X152920000Y-129055000D01*
X143660000Y-150771689D02*
X143660000Y-138308311D01*
X150308256Y-137502267D02*
X145608256Y-136673530D01*
X150308256Y-151577733D02*
X145608256Y-152406470D01*
X151680000Y-149942952D02*
X151680000Y-139137048D01*
X152920000Y-160025000D02*
X142420000Y-160025000D01*
X153980000Y-130115000D02*
X153980000Y-158965000D01*
X141360000Y-130115000D02*
G75*
G02*
X142420000Y-129055000I1060001J-1D01*
G01*
X142420000Y-160025000D02*
G75*
G02*
X141360000Y-158965000I0J1060000D01*
G01*
X143660000Y-138308311D02*
G75*
G02*
X145608256Y-136673530I1659999J1D01*
G01*
X145608256Y-152406470D02*
G75*
G02*
X143660001Y-150771689I-288256J1634780D01*
G01*
X150308256Y-137502268D02*
G75*
G02*
X151679999Y-139137048I-288259J-1634782D01*
G01*
X151680000Y-149942952D02*
G75*
G02*
X150308256Y-151577733I-1659999J-1D01*
G01*
X152920000Y-129055000D02*
G75*
G02*
X153980000Y-130115000I-1J-1060001D01*
G01*
X153980000Y-158965000D02*
G75*
G02*
X152920000Y-160025000I-1060000J0D01*
G01*
%TO.C,JP32*%
X53750000Y-130600000D02*
X55750000Y-130600000D01*
X53750000Y-133400000D02*
X53750000Y-130600000D01*
X55750000Y-130600000D02*
X55750000Y-133400000D01*
X55750000Y-133400000D02*
X53750000Y-133400000D01*
%TO.C,JP3*%
X36000000Y-152600000D02*
X38000000Y-152600000D01*
X36000000Y-155400000D02*
X36000000Y-152600000D01*
X38000000Y-152600000D02*
X38000000Y-155400000D01*
X38000000Y-155400000D02*
X36000000Y-155400000D01*
%TO.C,JP39*%
X71250000Y-130600000D02*
X73250000Y-130600000D01*
X71250000Y-133400000D02*
X71250000Y-130600000D01*
X73250000Y-130600000D02*
X73250000Y-133400000D01*
X73250000Y-133400000D02*
X71250000Y-133400000D01*
%TO.C,JP33*%
X56250000Y-130600000D02*
X58250000Y-130600000D01*
X56250000Y-133400000D02*
X56250000Y-130600000D01*
X58250000Y-130600000D02*
X58250000Y-133400000D01*
X58250000Y-133400000D02*
X56250000Y-133400000D01*
%TO.C,JP16*%
X71500000Y-152600000D02*
X73500000Y-152600000D01*
X71500000Y-155400000D02*
X71500000Y-152600000D01*
X73500000Y-152600000D02*
X73500000Y-155400000D01*
X73500000Y-155400000D02*
X71500000Y-155400000D01*
%TO.C,JP5*%
X41000000Y-152600000D02*
X43000000Y-152600000D01*
X41000000Y-155400000D02*
X41000000Y-152600000D01*
X43000000Y-152600000D02*
X43000000Y-155400000D01*
X43000000Y-155400000D02*
X41000000Y-155400000D01*
%TO.C,JP38*%
X68750000Y-130600000D02*
X70750000Y-130600000D01*
X68750000Y-133400000D02*
X68750000Y-130600000D01*
X70750000Y-130600000D02*
X70750000Y-133400000D01*
X70750000Y-133400000D02*
X68750000Y-133400000D01*
%TO.C,JP40*%
X73750000Y-130600000D02*
X75750000Y-130600000D01*
X73750000Y-133400000D02*
X73750000Y-130600000D01*
X75750000Y-130600000D02*
X75750000Y-133400000D01*
X75750000Y-133400000D02*
X73750000Y-133400000D01*
%TO.C,JP28*%
X41000000Y-130600000D02*
X43000000Y-130600000D01*
X41000000Y-133400000D02*
X41000000Y-130600000D01*
X43000000Y-130600000D02*
X43000000Y-133400000D01*
X43000000Y-133400000D02*
X41000000Y-133400000D01*
%TO.C,JP2*%
X33500000Y-152600000D02*
X35500000Y-152600000D01*
X33500000Y-155400000D02*
X33500000Y-152600000D01*
X35500000Y-152600000D02*
X35500000Y-155400000D01*
X35500000Y-155400000D02*
X33500000Y-155400000D01*
%TO.C,JP35*%
X61250000Y-130600000D02*
X63250000Y-130600000D01*
X61250000Y-133400000D02*
X61250000Y-130600000D01*
X63250000Y-130600000D02*
X63250000Y-133400000D01*
X63250000Y-133400000D02*
X61250000Y-133400000D01*
%TO.C,JP18*%
X76500000Y-152600000D02*
X78500000Y-152600000D01*
X76500000Y-155400000D02*
X76500000Y-152600000D01*
X78500000Y-152600000D02*
X78500000Y-155400000D01*
X78500000Y-155400000D02*
X76500000Y-155400000D01*
%TO.C,JP17*%
X74000000Y-152600000D02*
X76000000Y-152600000D01*
X74000000Y-155400000D02*
X74000000Y-152600000D01*
X76000000Y-152600000D02*
X76000000Y-155400000D01*
X76000000Y-155400000D02*
X74000000Y-155400000D01*
%TO.C,JP36*%
X63750000Y-130600000D02*
X65750000Y-130600000D01*
X63750000Y-133400000D02*
X63750000Y-130600000D01*
X65750000Y-130600000D02*
X65750000Y-133400000D01*
X65750000Y-133400000D02*
X63750000Y-133400000D01*
%TO.C,JP27*%
X38250000Y-130600000D02*
X40250000Y-130600000D01*
X38250000Y-133400000D02*
X38250000Y-130600000D01*
X40250000Y-130600000D02*
X40250000Y-133400000D01*
X40250000Y-133400000D02*
X38250000Y-133400000D01*
%TD*%
M02*
