M48
; DRILL file {KiCad 8.0.1-8.0.1-0~ubuntu20.04.1} date 2024-06-12T16:02:42+0100
; FORMAT={-:-/ absolute / metric / decimal}
; #@! TF.CreationDate,2024-06-12T16:02:42+01:00
; #@! TF.GenerationSoftware,Kicad,Pcbnew,8.0.1-8.0.1-0~ubuntu20.04.1
; #@! TF.FileFunction,Plated,1,2,PTH
FMAT,2
METRIC
; #@! TA.AperFunction,Plated,PTH,ViaDrill
T1C0.300
; #@! TA.AperFunction,Plated,PTH,ComponentDrill
T2C0.600
; #@! TA.AperFunction,Plated,PTH,ComponentDrill
T3C0.760
; #@! TA.AperFunction,Plated,PTH,ViaDrill
T4C0.800
; #@! TA.AperFunction,Plated,PTH,ComponentDrill
T5C0.800
; #@! TA.AperFunction,Plated,PTH,ComponentDrill
T6C1.000
; #@! TA.AperFunction,Plated,PTH,ComponentDrill
T7C1.100
; #@! TA.AperFunction,Plated,PTH,ComponentDrill
T8C1.300
; #@! TA.AperFunction,Plated,PTH,ComponentDrill
T9C1.500
; #@! TA.AperFunction,Plated,PTH,ComponentDrill
T10C1.900
; #@! TA.AperFunction,Plated,PTH,ComponentDrill
T11C2.000
; #@! TA.AperFunction,Plated,PTH,ComponentDrill
T12C2.700
%
G90
G05
T1
X44.75Y-99.0
X45.5Y-94.5
X46.25Y-100.75
X46.25Y-101.75
X46.25Y-102.75
X46.25Y-103.75
X46.25Y-104.75
X46.25Y-105.75
X46.25Y-111.75
X46.25Y-112.75
X46.25Y-113.75
X46.25Y-114.75
X46.25Y-115.75
X46.25Y-116.75
X46.57Y-87.0
X47.0Y-127.75
X47.25Y-100.75
X47.25Y-101.75
X47.25Y-102.75
X47.25Y-103.75
X47.25Y-104.75
X47.25Y-105.75
X47.25Y-111.75
X47.25Y-112.75
X47.25Y-113.75
X47.25Y-114.75
X47.25Y-115.75
X47.25Y-116.75
X47.646Y-158.605
X48.25Y-100.75
X48.25Y-101.75
X48.25Y-102.75
X48.25Y-103.75
X48.25Y-104.75
X48.25Y-105.75
X48.25Y-111.75
X48.25Y-112.75
X48.25Y-113.75
X48.25Y-114.75
X48.25Y-115.75
X48.25Y-116.75
X48.5Y-85.75
X49.25Y-100.75
X49.25Y-101.75
X49.25Y-102.75
X49.25Y-103.75
X49.25Y-104.75
X49.25Y-105.75
X49.25Y-111.75
X49.25Y-112.75
X49.25Y-113.75
X49.25Y-114.75
X49.25Y-115.75
X49.25Y-116.75
X49.5Y-157.93
X49.75Y-123.159
X49.75Y-159.75
X50.25Y-100.75
X50.25Y-101.75
X50.25Y-102.75
X50.25Y-103.75
X50.25Y-104.75
X50.25Y-105.75
X50.25Y-111.75
X50.25Y-112.75
X50.25Y-113.75
X50.25Y-114.75
X50.25Y-115.75
X50.25Y-116.75
X50.449Y-157.431
X51.25Y-100.75
X51.25Y-101.75
X51.25Y-102.75
X51.25Y-103.75
X51.25Y-104.75
X51.25Y-105.75
X51.25Y-111.75
X51.25Y-112.75
X51.25Y-113.75
X51.25Y-114.75
X51.25Y-115.75
X51.25Y-116.75
X51.995Y-123.245
X52.25Y-156.25
X54.75Y-122.75
X54.75Y-156.275
X55.102Y-95.648
X56.57Y-87.0
X57.0Y-123.25
X58.0Y-85.75
X59.75Y-123.25
X62.25Y-123.367
X62.25Y-156.25
X62.5Y-161.25
X62.75Y-160.25
X64.75Y-94.5
X64.75Y-127.25
X64.75Y-157.0
X65.22Y-121.124
X66.0Y-156.25
X66.02Y-121.112
X66.75Y-87.0
X66.886Y-119.858
X66.886Y-120.658
X67.08Y-126.202
X67.5Y-162.75
X67.85Y-158.75
X68.0Y-85.75
X68.22Y-125.187
X68.5Y-162.75
X68.786Y-120.743
X68.823Y-121.617
X68.857Y-122.537
X69.377Y-162.827
X69.5Y-119.0
X69.5Y-124.0
X69.674Y-122.674
X69.75Y-128.75
X70.33Y-162.83
X72.25Y-128.75
X74.0Y-94.5
X74.75Y-128.75
X76.0Y-87.0
X77.25Y-129.0
X78.25Y-87.0
X83.25Y-80.25
X83.25Y-81.25
X83.25Y-82.25
X83.25Y-83.25
X83.25Y-84.25
X83.25Y-85.25
X83.88Y-157.0
X83.88Y-171.0
X84.25Y-80.25
X84.25Y-81.25
X84.25Y-82.25
X84.25Y-83.25
X84.25Y-84.25
X84.25Y-85.25
X85.25Y-80.25
X85.25Y-81.25
X85.25Y-82.25
X85.25Y-83.25
X85.25Y-84.25
X85.25Y-85.25
X85.25Y-157.0
X85.25Y-171.25
X86.25Y-80.25
X86.25Y-81.25
X86.25Y-82.25
X86.25Y-83.25
X86.25Y-84.25
X86.25Y-85.25
X86.5Y-157.0
X86.5Y-172.0
X87.25Y-80.25
X87.25Y-81.25
X87.25Y-82.25
X87.25Y-83.25
X87.25Y-84.25
X87.25Y-85.25
X88.25Y-80.25
X88.25Y-81.25
X88.25Y-82.25
X88.25Y-83.25
X88.25Y-84.25
X88.25Y-85.25
X91.5Y-156.75
X92.75Y-157.0
X93.575Y-169.5
X94.25Y-170.25
X104.0Y-86.5
X115.75Y-142.5
X115.75Y-143.5
X118.75Y-85.75
X125.0Y-83.0
X125.0Y-84.0
X125.0Y-85.0
X125.0Y-86.0
X125.0Y-87.0
X125.0Y-88.0
X126.0Y-83.0
X126.0Y-84.0
X126.0Y-85.0
X126.0Y-86.0
X126.0Y-87.0
X126.0Y-88.0
X127.0Y-83.0
X127.0Y-84.0
X127.0Y-85.0
X127.0Y-86.0
X127.0Y-87.0
X127.0Y-88.0
X128.0Y-83.0
X128.0Y-84.0
X128.0Y-85.0
X128.0Y-86.0
X128.0Y-87.0
X128.0Y-88.0
X129.0Y-83.0
X129.0Y-84.0
X129.0Y-85.0
X129.0Y-86.0
X129.0Y-87.0
X129.0Y-88.0
X129.25Y-143.25
X129.898Y-179.398
X130.0Y-83.0
X130.0Y-84.0
X130.0Y-85.0
X130.0Y-86.0
X130.0Y-87.0
X130.0Y-88.0
X130.5Y-66.75
X134.0Y-85.0
X134.75Y-73.5
X136.0Y-85.0
X136.75Y-73.5
X138.0Y-85.0
X140.0Y-85.0
X141.0Y-174.75
X143.0Y-173.75
X144.25Y-173.0
T3
X142.11Y-51.892
X142.11Y-54.432
X142.11Y-56.972
X142.11Y-59.512
X144.65Y-53.162
X144.65Y-55.703
X144.65Y-58.242
X144.65Y-60.782
T4
X48.859Y-118.859
T5
X32.52Y-141.73
X32.52Y-144.27
X44.76Y-137.818
X44.76Y-139.818
X44.76Y-141.818
X46.76Y-137.818
X46.76Y-139.818
X46.76Y-141.818
T6
X35.54Y-171.25
X35.54Y-185.75
X36.0Y-57.27
X36.0Y-59.81
X38.04Y-171.25
X40.54Y-171.25
X40.54Y-185.75
X46.0Y-49.65
X46.0Y-52.19
X46.0Y-54.73
X46.0Y-57.27
X46.0Y-59.81
X56.0Y-49.65
X56.0Y-52.19
X56.0Y-54.73
X56.0Y-57.27
X56.0Y-59.81
X66.0Y-49.65
X66.0Y-52.19
X66.0Y-54.73
X66.0Y-57.27
X66.0Y-59.81
X76.0Y-49.65
X76.0Y-52.19
X76.0Y-54.73
X76.0Y-57.27
X76.0Y-59.81
X98.0Y-57.27
X98.0Y-59.81
X116.5Y-47.15
X127.5Y-47.15
X137.38Y-177.5
X137.38Y-180.04
X139.92Y-177.5
X139.92Y-180.04
X142.46Y-177.5
X142.46Y-180.04
X142.52Y-72.0
X142.52Y-77.0
X142.52Y-99.0
X142.52Y-104.0
X142.52Y-109.0
X142.52Y-114.0
X142.71Y-82.0
X145.0Y-177.5
X145.0Y-180.04
X145.06Y-72.0
X145.06Y-77.0
X145.06Y-99.0
X145.06Y-104.0
X145.06Y-109.0
X145.06Y-114.0
X145.25Y-82.0
X147.54Y-177.5
X147.54Y-180.04
X147.6Y-72.0
X147.6Y-77.0
X147.6Y-99.0
X147.6Y-104.0
X147.6Y-109.0
X147.6Y-114.0
X147.79Y-82.0
X150.14Y-72.0
X150.14Y-77.0
X150.14Y-99.0
X150.14Y-104.0
X150.14Y-109.0
X150.14Y-114.0
X150.33Y-82.0
T7
X31.79Y-135.38
X31.79Y-150.62
X34.33Y-135.38
X34.33Y-137.92
X34.33Y-150.62
X36.87Y-135.38
X36.87Y-150.62
X38.089Y-147.569
X39.41Y-135.38
X39.41Y-150.62
X40.629Y-147.569
X41.95Y-135.38
X41.95Y-150.62
X43.169Y-147.569
X44.49Y-135.38
X44.49Y-150.62
X45.709Y-147.569
X47.03Y-135.38
X47.03Y-150.62
X48.249Y-147.569
X49.57Y-135.38
X49.57Y-150.62
X52.11Y-135.38
X52.11Y-150.62
X54.65Y-135.38
X54.65Y-150.62
X57.19Y-135.38
X57.19Y-150.62
X59.73Y-135.38
X59.73Y-150.62
X62.27Y-135.38
X62.27Y-150.62
X64.81Y-135.38
X64.81Y-150.62
X67.35Y-135.38
X67.35Y-150.62
X69.89Y-135.38
X69.89Y-150.62
X72.43Y-135.38
X72.43Y-150.62
X74.97Y-135.38
X74.97Y-150.62
X77.51Y-135.38
X77.51Y-137.92
X77.51Y-140.46
X77.51Y-143.0
X77.51Y-145.54
X77.51Y-148.08
X77.51Y-150.62
X80.05Y-135.38
X80.05Y-150.62
X82.59Y-135.38
X82.59Y-150.62
X85.13Y-135.38
X85.13Y-150.62
X87.67Y-135.38
X87.67Y-150.62
X90.21Y-135.38
X90.21Y-150.62
T8
X103.0Y-108.5
X123.0Y-108.5
T9
X54.69Y-176.04
X61.04Y-173.5
X73.69Y-176.04
X80.04Y-173.5
X92.69Y-176.04
X99.04Y-173.5
X111.69Y-176.04
X118.04Y-173.5
T10
X119.5Y-52.15
X124.5Y-52.15
T11
X146.25Y-139.0
X146.25Y-141.77
X146.25Y-144.54
X146.25Y-147.31
X146.25Y-150.08
X149.09Y-140.385
X149.09Y-143.155
X149.09Y-145.925
X149.09Y-148.695
T12
X38.0Y-106.8
X38.0Y-114.0
T2
X31.45Y-103.65G85X32.55Y-103.65
G05
X31.45Y-117.15G85X32.55Y-117.15
G05
T11
X32.44Y-178.2G85X32.44Y-179.3
G05
X43.64Y-178.2G85X43.64Y-179.3
G05
M30
